<svg width="1440" height="820" viewBox="0 0 1440 820" fill="none" xmlns="http://www.w3.org/2000/svg">
<rect x="0.5" y="0.5" width="1439" height="819" fill="#FFFBF0"/>
<rect x="0.5" y="0.5" width="1439" height="819" stroke="#D5D5D5"/>
<path d="M50 146H47.3333V131.333H50L51.9479 135.896H52.0625L54 131.333H56.6667V146H54V136.667H53.8958L52.5729 139.333H51.4271L50.1042 136.625H50V146ZM60.6615 135.979C60.5573 136.549 60.5052 137.444 60.5052 138.667C60.5052 139.889 60.5573 140.785 60.6615 141.354C60.7865 142.028 61.0156 142.583 61.349 143.021C61.6892 143.451 62.1302 143.667 62.6719 143.667C63.2135 143.667 63.651 143.451 63.9844 143.021C64.3247 142.583 64.5573 142.028 64.6823 141.354C64.7865 140.778 64.8385 139.882 64.8385 138.667C64.8385 137.444 64.7865 136.549 64.6823 135.979C64.5573 135.306 64.3247 134.753 63.9844 134.323C63.651 133.885 63.2135 133.667 62.6719 133.667C62.1302 133.667 61.6892 133.885 61.349 134.323C61.0156 134.753 60.7865 135.306 60.6615 135.979ZM58.1302 142.302C57.9358 141.531 57.8385 140.319 57.8385 138.667C57.8385 137.014 57.9358 135.802 58.1302 135.031C58.408 133.906 58.9323 132.983 59.7031 132.26C60.474 131.531 61.4635 131.167 62.6719 131.167C63.8802 131.167 64.8698 131.531 65.6406 132.26C66.4115 132.983 66.9358 133.906 67.2135 135.031C67.408 135.802 67.5052 137.014 67.5052 138.667C67.5052 140.319 67.408 141.531 67.2135 142.302C66.9358 143.427 66.4115 144.354 65.6406 145.083C64.8698 145.806 63.8802 146.167 62.6719 146.167C61.4635 146.167 60.474 145.806 59.7031 145.083C58.9323 144.354 58.408 143.427 58.1302 142.302ZM72.0104 146H69.3438V131.333H72L74.5729 139.646H74.6771V131.333H77.3438V146H74.6771L72.1146 137.688H72.0104V146ZM82.0052 135.979C81.901 136.549 81.849 137.444 81.849 138.667C81.849 139.889 81.901 140.785 82.0052 141.354C82.1302 142.028 82.3594 142.583 82.6927 143.021C83.033 143.451 83.474 143.667 84.0156 143.667C84.5573 143.667 84.9948 143.451 85.3281 143.021C85.6684 142.583 85.901 142.028 86.026 141.354C86.1302 140.778 86.1823 139.882 86.1823 138.667C86.1823 137.444 86.1302 136.549 86.026 135.979C85.901 135.306 85.6684 134.753 85.3281 134.323C84.9948 133.885 84.5573 133.667 84.0156 133.667C83.474 133.667 83.033 133.885 82.6927 134.323C82.3594 134.753 82.1302 135.306 82.0052 135.979ZM79.474 142.302C79.2795 141.531 79.1823 140.319 79.1823 138.667C79.1823 137.014 79.2795 135.802 79.474 135.031C79.7517 133.906 80.276 132.983 81.0469 132.26C81.8177 131.531 82.8073 131.167 84.0156 131.167C85.224 131.167 86.2135 131.531 86.9844 132.26C87.7552 132.983 88.2795 133.906 88.5573 135.031C88.7517 135.802 88.849 137.014 88.849 138.667C88.849 140.319 88.7517 141.531 88.5573 142.302C88.2795 143.427 87.7552 144.354 86.9844 145.083C86.2135 145.806 85.224 146.167 84.0156 146.167C82.8073 146.167 81.8177 145.806 81.0469 145.083C80.276 144.354 79.7517 143.427 79.474 142.302ZM98.6875 131.333V133.833H96.0208V143.5H98.6875V146H90.6875V143.5H93.3542V133.833H90.6875V131.333H98.6875ZM104.297 131.333C106.533 131.333 108.161 132.156 109.182 133.802C109.578 134.427 109.845 135.135 109.984 135.927C110.123 136.719 110.193 137.632 110.193 138.667C110.193 139.701 110.123 140.615 109.984 141.406C109.845 142.198 109.578 142.906 109.182 143.531C108.161 145.177 106.533 146 104.297 146H100.693V131.333H104.297ZM106.932 142.167C107.328 141.5 107.526 140.333 107.526 138.667C107.526 137 107.328 135.833 106.932 135.167C106.411 134.278 105.606 133.833 104.516 133.833H103.359V143.5H104.516C105.606 143.5 106.411 143.056 106.932 142.167ZM122.036 138.083H131.37V140.583H122.036V138.083ZM144.047 143.417C145.45 143.583 146.55 143.667 147.349 143.667C148.821 143.667 149.714 142.868 150.026 141.271C150.116 140.833 150.172 140.354 150.193 139.833H145.38V137.333H150.182C150.148 136.812 150.095 136.389 150.026 136.062C149.714 134.465 148.845 133.667 147.422 133.667C146.665 133.667 145.592 133.729 144.203 133.854V131.354C145.307 131.229 146.391 131.167 147.453 131.167C148.856 131.167 149.981 131.521 150.828 132.229C151.675 132.937 152.252 133.903 152.557 135.125C152.773 135.972 152.88 137.153 152.88 138.667C152.88 140.181 152.773 141.361 152.557 142.208C152.252 143.424 151.661 144.389 150.786 145.104C149.918 145.812 148.773 146.167 147.349 146.167C146.391 146.167 145.29 146.083 144.047 145.917V143.417ZM163.385 131.333V133.833H160.052V146H157.385V133.833H154.052V131.333H163.385ZM167.38 135.979C167.276 136.549 167.224 137.444 167.224 138.667C167.224 139.889 167.276 140.785 167.38 141.354C167.505 142.028 167.734 142.583 168.068 143.021C168.408 143.451 168.849 143.667 169.391 143.667C169.932 143.667 170.37 143.451 170.703 143.021C171.043 142.583 171.276 142.028 171.401 141.354C171.505 140.778 171.557 139.882 171.557 138.667C171.557 137.444 171.505 136.549 171.401 135.979C171.276 135.306 171.043 134.753 170.703 134.323C170.37 133.885 169.932 133.667 169.391 133.667C168.849 133.667 168.408 133.885 168.068 134.323C167.734 134.753 167.505 135.306 167.38 135.979ZM164.849 142.302C164.655 141.531 164.557 140.319 164.557 138.667C164.557 137.014 164.655 135.802 164.849 135.031C165.127 133.906 165.651 132.983 166.422 132.26C167.193 131.531 168.182 131.167 169.391 131.167C170.599 131.167 171.589 131.531 172.359 132.26C173.13 132.983 173.655 133.906 173.932 135.031C174.127 135.802 174.224 137.014 174.224 138.667C174.224 140.319 174.127 141.531 173.932 142.302C173.655 143.427 173.13 144.354 172.359 145.083C171.589 145.806 170.599 146.167 169.391 146.167C168.182 146.167 167.193 145.806 166.422 145.083C165.651 144.354 165.127 143.427 164.849 142.302ZM186.068 146V131.333H188.734V143.5H190.068V131.333H191.401V143.5H192.734V131.333H195.401V146H186.068ZM199.406 133.833V138.083H200.719C201.316 138.083 201.75 138.056 202.021 138C202.493 137.903 202.868 137.67 203.146 137.302C203.431 136.934 203.573 136.486 203.573 135.958C203.573 135.431 203.431 134.983 203.146 134.615C202.868 134.247 202.493 134.014 202.021 133.917C201.75 133.861 201.316 133.833 200.719 133.833H199.406ZM196.74 131.333H200.698C201.726 131.333 202.458 131.385 202.896 131.49C203.882 131.726 204.684 132.243 205.302 133.042C205.927 133.833 206.24 134.806 206.24 135.958C206.24 137.111 205.927 138.087 205.302 138.885C204.684 139.677 203.882 140.191 202.896 140.427C202.458 140.531 201.726 140.583 200.698 140.583H199.406V146H196.74V131.333ZM214.078 146V136.646H213.974L210.078 146H207.411V131.333H210.078V140.688H210.182L214.089 131.333H216.745V146H214.078ZM218.26 141.625C218.031 140.875 217.917 139.889 217.917 138.667C217.917 137.444 218.031 136.458 218.26 135.708C218.503 134.931 218.892 134.274 219.427 133.74C219.962 133.205 220.625 132.84 221.417 132.646V131.333H224.083V132.646C224.875 132.84 225.538 133.205 226.073 133.74C226.608 134.274 226.997 134.931 227.24 135.708C227.469 136.458 227.583 137.444 227.583 138.667C227.583 139.889 227.469 140.875 227.24 141.625C226.997 142.403 226.608 143.059 226.073 143.594C225.538 144.128 224.875 144.493 224.083 144.688V145.781H221.417V144.688C220.625 144.493 219.962 144.128 219.427 143.594C218.892 143.059 218.503 142.403 218.26 141.625ZM220.917 136.167C220.694 136.778 220.583 137.611 220.583 138.667C220.583 139.722 220.694 140.559 220.917 141.177C221.139 141.788 221.528 142.156 222.083 142.281V135.052C221.528 135.177 221.139 135.549 220.917 136.167ZM223.417 142.281C223.972 142.156 224.361 141.788 224.583 141.177C224.806 140.559 224.917 139.722 224.917 138.667C224.917 137.611 224.806 136.778 224.583 136.167C224.361 135.549 223.972 135.177 223.417 135.052V142.281ZM238.089 131.333V133.833H234.755V146H232.089V133.833H228.755V131.333H238.089ZM242.094 140.917H246.094V144.833C246.094 145.201 246.083 145.497 246.062 145.719C246.049 145.934 245.976 146.219 245.844 146.573C245.719 146.927 245.531 147.25 245.281 147.542C244.941 147.944 244.497 148.26 243.948 148.49C243.399 148.719 242.781 148.833 242.094 148.833V146.333C242.615 146.333 242.983 146.163 243.198 145.823C243.351 145.58 243.427 145.25 243.427 144.833V144.667H242.094V140.917ZM263.438 146H260.771V131.333H263.438V137.062L266.521 131.333H269.531L266.042 137.479L270.5 146H267.51L264.25 139.635L263.438 141.01V146ZM274.099 135.979C273.995 136.549 273.943 137.444 273.943 138.667C273.943 139.889 273.995 140.785 274.099 141.354C274.224 142.028 274.453 142.583 274.786 143.021C275.127 143.451 275.568 143.667 276.109 143.667C276.651 143.667 277.089 143.451 277.422 143.021C277.762 142.583 277.995 142.028 278.12 141.354C278.224 140.778 278.276 139.882 278.276 138.667C278.276 137.444 278.224 136.549 278.12 135.979C277.995 135.306 277.762 134.753 277.422 134.323C277.089 133.885 276.651 133.667 276.109 133.667C275.568 133.667 275.127 133.885 274.786 134.323C274.453 134.753 274.224 135.306 274.099 135.979ZM271.568 142.302C271.373 141.531 271.276 140.319 271.276 138.667C271.276 137.014 271.373 135.802 271.568 135.031C271.845 133.906 272.37 132.983 273.141 132.26C273.911 131.531 274.901 131.167 276.109 131.167C277.318 131.167 278.307 131.531 279.078 132.26C279.849 132.983 280.373 133.906 280.651 135.031C280.845 135.802 280.943 137.014 280.943 138.667C280.943 140.319 280.845 141.531 280.651 142.302C280.373 143.427 279.849 144.354 279.078 145.083C278.307 145.806 277.318 146.167 276.109 146.167C274.901 146.167 273.911 145.806 273.141 145.083C272.37 144.354 271.845 143.427 271.568 142.302ZM291.448 131.333V133.833H288.115V146H285.448V133.833H282.115V131.333H291.448ZM295.443 135.979C295.339 136.549 295.286 137.444 295.286 138.667C295.286 139.889 295.339 140.785 295.443 141.354C295.568 142.028 295.797 142.583 296.13 143.021C296.47 143.451 296.911 143.667 297.453 143.667C297.995 143.667 298.432 143.451 298.766 143.021C299.106 142.583 299.339 142.028 299.464 141.354C299.568 140.778 299.62 139.882 299.62 138.667C299.62 137.444 299.568 136.549 299.464 135.979C299.339 135.306 299.106 134.753 298.766 134.323C298.432 133.885 297.995 133.667 297.453 133.667C296.911 133.667 296.47 133.885 296.13 134.323C295.797 134.753 295.568 135.306 295.443 135.979ZM292.911 142.302C292.717 141.531 292.62 140.319 292.62 138.667C292.62 137.014 292.717 135.802 292.911 135.031C293.189 133.906 293.714 132.983 294.484 132.26C295.255 131.531 296.245 131.167 297.453 131.167C298.661 131.167 299.651 131.531 300.422 132.26C301.193 132.983 301.717 133.906 301.995 135.031C302.189 135.802 302.286 137.014 302.286 138.667C302.286 140.319 302.189 141.531 301.995 142.302C301.717 143.427 301.193 144.354 300.422 145.083C299.651 145.806 298.661 146.167 297.453 146.167C296.245 146.167 295.255 145.806 294.484 145.083C293.714 144.354 293.189 143.427 292.911 142.302ZM306.125 133.833V138.083H307.438C308.035 138.083 308.469 138.056 308.74 138C309.212 137.903 309.587 137.67 309.865 137.302C310.149 136.934 310.292 136.486 310.292 135.958C310.292 135.431 310.149 134.983 309.865 134.615C309.587 134.247 309.212 134.014 308.74 133.917C308.469 133.861 308.035 133.833 307.438 133.833H306.125ZM303.458 131.333H307.417C308.444 131.333 309.177 131.385 309.615 131.49C310.601 131.726 311.403 132.243 312.021 133.042C312.646 133.833 312.958 134.806 312.958 135.958C312.958 137.111 312.646 138.087 312.021 138.885C311.403 139.677 310.601 140.191 309.615 140.427C309.177 140.531 308.444 140.583 307.417 140.583H306.125V146H303.458V131.333ZM323.464 131.333V146H320.797V143.281C320.63 143.934 320.366 144.479 320.005 144.917C319.651 145.354 319.231 145.66 318.745 145.833C318.425 145.944 317.894 146 317.151 146H314.13V131.333H316.797V137.438H317.151C317.894 137.438 318.425 137.493 318.745 137.604C319.224 137.771 319.644 138.083 320.005 138.542C320.366 138.993 320.63 139.552 320.797 140.219V131.333H323.464ZM316.797 139.938V143.5H317.161C317.474 143.5 317.682 143.472 317.786 143.417C318.203 143.201 318.411 142.646 318.411 141.75C318.411 141.312 318.352 140.941 318.234 140.635C318.123 140.33 317.974 140.125 317.786 140.021C317.682 139.965 317.474 139.938 317.161 139.938H316.797ZM331.052 127.333H333.219C333.219 128.187 332.858 128.875 332.135 129.396C331.42 129.91 330.531 130.167 329.469 130.167C328.406 130.167 327.514 129.91 326.792 129.396C326.076 128.875 325.719 128.187 325.719 127.333H327.885C327.885 127.618 328.021 127.851 328.292 128.031C328.563 128.205 328.955 128.292 329.469 128.292C329.983 128.292 330.375 128.205 330.646 128.031C330.917 127.851 331.052 127.618 331.052 127.333ZM331.469 146V136.646H331.365L327.469 146H324.802V131.333H327.469V140.688H327.573L331.479 131.333H334.135V146H331.469ZM355.479 143.281V145.781C354.056 146.038 352.802 146.167 351.719 146.167C350.24 146.167 349.045 145.812 348.135 145.104C347.233 144.389 346.622 143.424 346.302 142.208C346.087 141.361 345.979 140.181 345.979 138.667C345.979 137.153 346.087 135.972 346.302 135.125C346.628 133.903 347.229 132.937 348.104 132.229C348.979 131.521 350.149 131.167 351.615 131.167C352.726 131.167 353.91 131.267 355.167 131.469V133.969C353.597 133.767 352.424 133.667 351.646 133.667C350.111 133.667 349.156 134.465 348.781 136.062C348.635 136.694 348.562 137.562 348.562 138.667C348.562 139.771 348.635 140.639 348.781 141.271C349.163 142.868 350.142 143.667 351.719 143.667C352.587 143.667 353.84 143.538 355.479 143.281ZM359.474 135.979C359.37 136.549 359.318 137.444 359.318 138.667C359.318 139.889 359.37 140.785 359.474 141.354C359.599 142.028 359.828 142.583 360.161 143.021C360.502 143.451 360.943 143.667 361.484 143.667C362.026 143.667 362.464 143.451 362.797 143.021C363.137 142.583 363.37 142.028 363.495 141.354C363.599 140.778 363.651 139.882 363.651 138.667C363.651 137.444 363.599 136.549 363.495 135.979C363.37 135.306 363.137 134.753 362.797 134.323C362.464 133.885 362.026 133.667 361.484 133.667C360.943 133.667 360.502 133.885 360.161 134.323C359.828 134.753 359.599 135.306 359.474 135.979ZM356.943 142.302C356.748 141.531 356.651 140.319 356.651 138.667C356.651 137.014 356.748 135.802 356.943 135.031C357.22 133.906 357.745 132.983 358.516 132.26C359.286 131.531 360.276 131.167 361.484 131.167C362.693 131.167 363.682 131.531 364.453 132.26C365.224 132.983 365.748 133.906 366.026 135.031C366.22 135.802 366.318 137.014 366.318 138.667C366.318 140.319 366.22 141.531 366.026 142.302C365.748 143.427 365.224 144.354 364.453 145.083C363.682 145.806 362.693 146.167 361.484 146.167C360.276 146.167 359.286 145.806 358.516 145.083C357.745 144.354 357.22 143.427 356.943 142.302ZM371.219 131.167C371.969 131.167 372.628 131.267 373.198 131.469C373.767 131.67 374.226 131.955 374.573 132.323C374.92 132.691 375.181 133.118 375.354 133.604C375.528 134.09 375.615 134.632 375.615 135.229C375.615 135.944 375.486 136.597 375.229 137.188C374.972 137.771 374.604 138.233 374.125 138.573V138.677C374.653 139.003 375.066 139.469 375.365 140.073C375.67 140.67 375.823 141.337 375.823 142.073V142.104C375.816 143.299 375.431 144.274 374.667 145.031C373.903 145.788 372.788 146.167 371.323 146.167C370.149 146.167 368.872 146.007 367.49 145.688V143.177C368.948 143.503 370.191 143.667 371.219 143.667C372.51 143.667 373.156 143.076 373.156 141.896C373.156 141.194 373.01 140.691 372.719 140.385C372.434 140.073 371.92 139.917 371.177 139.917H369.49V137.417H371.188C371.889 137.417 372.358 137.26 372.594 136.948C372.83 136.635 372.948 136.132 372.948 135.438C372.948 134.875 372.816 134.441 372.552 134.135C372.295 133.823 371.851 133.667 371.219 133.667C371.073 133.667 370.927 133.67 370.781 133.677C370.642 133.684 370.49 133.694 370.323 133.708C370.163 133.722 370.024 133.736 369.906 133.75C369.795 133.757 369.649 133.774 369.469 133.802C369.288 133.83 369.153 133.851 369.062 133.865C368.979 133.878 368.837 133.906 368.635 133.948C368.441 133.983 368.316 134.007 368.26 134.021C368.205 134.028 368.069 134.052 367.854 134.094C367.639 134.135 367.517 134.16 367.49 134.167V131.667C368.948 131.333 370.191 131.167 371.219 131.167ZM380.974 143.5H383.495V133.833H382.161C382.148 137.708 381.752 140.931 380.974 143.5ZM378.276 143.5C378.561 142.556 378.79 141.604 378.964 140.646C379.137 139.681 379.259 138.642 379.328 137.531C379.405 136.413 379.45 135.451 379.464 134.646C379.484 133.833 379.495 132.729 379.495 131.333H386.161V143.5H387.495V148.667H384.828V146H379.495V148.667H376.828V143.5H378.276ZM395.01 140.667C394.608 138.049 394.122 135.691 393.552 133.594H393.448C392.885 135.67 392.399 138.028 391.99 140.667H395.01ZM391.438 131.333H395.562C396.757 135.069 397.705 139.958 398.406 146H395.708C395.625 145.042 395.51 144.097 395.365 143.167H391.635C391.49 144.097 391.375 145.042 391.292 146H388.594C389.295 139.958 390.243 135.069 391.438 131.333ZM399.505 131.333H402.172V137.458H406.172V131.333H408.839V146H406.172V139.958H402.172V146H399.505V131.333ZM53.5104 172.667C53.1076 170.049 52.6215 167.691 52.0521 165.594H51.9479C51.3854 167.67 50.8993 170.028 50.4896 172.667H53.5104ZM49.9375 163.333H54.0625C55.2569 167.069 56.2049 171.958 56.9062 178H54.2083C54.125 177.042 54.0104 176.097 53.8646 175.167H50.1354C49.9896 176.097 49.875 177.042 49.7917 178H47.0938C47.7951 171.958 48.7431 167.069 49.9375 163.333ZM58.0052 163.333H60.6719V169.458H64.6719V163.333H67.3385V178H64.6719V171.958H60.6719V178H58.0052V163.333ZM71.4896 175.5H74.0104V165.833H72.6771C72.6632 169.708 72.2674 172.931 71.4896 175.5ZM68.7917 175.5C69.0764 174.556 69.3056 173.604 69.4792 172.646C69.6528 171.681 69.7743 170.642 69.8438 169.531C69.9201 168.413 69.9653 167.451 69.9792 166.646C70 165.833 70.0104 164.729 70.0104 163.333H76.6771V175.5H78.0104V180.667H75.3438V178H70.0104V180.667H67.3438V175.5H68.7917ZM82.0156 165.833V170.083H83.3281C83.9253 170.083 84.3594 170.056 84.6302 170C85.1024 169.903 85.4774 169.67 85.7552 169.302C86.0399 168.934 86.1823 168.486 86.1823 167.958C86.1823 167.431 86.0399 166.983 85.7552 166.615C85.4774 166.247 85.1024 166.014 84.6302 165.917C84.3594 165.861 83.9253 165.833 83.3281 165.833H82.0156ZM79.349 163.333H83.3073C84.3351 163.333 85.0677 163.385 85.5052 163.49C86.4913 163.726 87.2934 164.243 87.9115 165.042C88.5365 165.833 88.849 166.806 88.849 167.958C88.849 169.111 88.5365 170.087 87.9115 170.885C87.2934 171.677 86.4913 172.191 85.5052 172.427C85.0677 172.531 84.3351 172.583 83.3073 172.583H82.0156V178H79.349V163.333ZM90.6875 163.333H98.6875V165.833H93.3542V169.375H97.3542V171.875H93.3542V175.5H98.6875V178H90.6875V163.333ZM106.87 172.667C106.467 170.049 105.981 167.691 105.411 165.594H105.307C104.745 167.67 104.259 170.028 103.849 172.667H106.87ZM103.297 163.333H107.422C108.616 167.069 109.564 171.958 110.266 178H107.568C107.484 177.042 107.37 176.097 107.224 175.167H103.495C103.349 176.097 103.234 177.042 103.151 178H100.453C101.155 171.958 102.102 167.069 103.297 163.333ZM120.698 175.281V177.781C119.274 178.038 118.021 178.167 116.938 178.167C115.458 178.167 114.264 177.812 113.354 177.104C112.451 176.389 111.84 175.424 111.521 174.208C111.306 173.361 111.198 172.181 111.198 170.667C111.198 169.153 111.306 167.972 111.521 167.125C111.847 165.903 112.448 164.937 113.323 164.229C114.198 163.521 115.368 163.167 116.833 163.167C117.944 163.167 119.128 163.267 120.385 163.469V165.969C118.816 165.767 117.642 165.667 116.865 165.667C115.33 165.667 114.375 166.465 114 168.062C113.854 168.694 113.781 169.562 113.781 170.667C113.781 171.771 113.854 172.639 114 173.271C114.382 174.868 115.361 175.667 116.938 175.667C117.806 175.667 119.059 175.538 120.698 175.281ZM124.693 167.979C124.589 168.549 124.536 169.444 124.536 170.667C124.536 171.889 124.589 172.785 124.693 173.354C124.818 174.028 125.047 174.583 125.38 175.021C125.72 175.451 126.161 175.667 126.703 175.667C127.245 175.667 127.682 175.451 128.016 175.021C128.356 174.583 128.589 174.028 128.714 173.354C128.818 172.778 128.87 171.882 128.87 170.667C128.87 169.444 128.818 168.549 128.714 167.979C128.589 167.306 128.356 166.753 128.016 166.323C127.682 165.885 127.245 165.667 126.703 165.667C126.161 165.667 125.72 165.885 125.38 166.323C125.047 166.753 124.818 167.306 124.693 167.979ZM122.161 174.302C121.967 173.531 121.87 172.319 121.87 170.667C121.87 169.014 121.967 167.802 122.161 167.031C122.439 165.906 122.964 164.983 123.734 164.26C124.505 163.531 125.495 163.167 126.703 163.167C127.911 163.167 128.901 163.531 129.672 164.26C130.443 164.983 130.967 165.906 131.245 167.031C131.439 167.802 131.536 169.014 131.536 170.667C131.536 172.319 131.439 173.531 131.245 174.302C130.967 175.427 130.443 176.354 129.672 177.083C128.901 177.806 127.911 178.167 126.703 178.167C125.495 178.167 124.505 177.806 123.734 177.083C122.964 176.354 122.439 175.427 122.161 174.302ZM135.375 178H132.708V163.333H135.375L137.323 167.896H137.438L139.375 163.333H142.042V178H139.375V168.667H139.271L137.948 171.333H136.802L135.479 168.625H135.375V178ZM159.385 165.729C159.385 167.875 159.361 169.628 159.312 170.99C159.271 172.198 159.181 173.184 159.042 173.948C158.903 174.712 158.625 175.424 158.208 176.083C157.368 177.472 155.983 178.167 154.052 178.167V175.667C154.587 175.667 154.976 175.611 155.219 175.5C155.462 175.382 155.688 175.16 155.896 174.833C156.09 174.549 156.243 174.17 156.354 173.698C156.465 173.226 156.535 172.799 156.562 172.417C156.597 172.028 156.625 171.524 156.646 170.906C156.694 169.587 156.719 167.889 156.719 165.812V163.333H159.385H163.385V178H160.719V165.729H159.385ZM170.901 172.667C170.498 170.049 170.012 167.691 169.443 165.594H169.339C168.776 167.67 168.29 170.028 167.88 172.667H170.901ZM167.328 163.333H171.453C172.648 167.069 173.595 171.958 174.297 178H171.599C171.516 177.042 171.401 176.097 171.255 175.167H167.526C167.38 176.097 167.266 177.042 167.182 178H164.484C165.186 171.958 166.134 167.069 167.328 163.333ZM178.062 165.833V170.083H179.375C179.972 170.083 180.406 170.056 180.677 170C181.149 169.903 181.524 169.67 181.802 169.302C182.087 168.934 182.229 168.486 182.229 167.958C182.229 167.431 182.087 166.983 181.802 166.615C181.524 166.247 181.149 166.014 180.677 165.917C180.406 165.861 179.972 165.833 179.375 165.833H178.062ZM175.396 163.333H179.354C180.382 163.333 181.115 163.385 181.552 163.49C182.538 163.726 183.34 164.243 183.958 165.042C184.583 165.833 184.896 166.806 184.896 167.958C184.896 169.111 184.583 170.087 183.958 170.885C183.34 171.677 182.538 172.191 181.552 172.427C181.115 172.531 180.382 172.583 179.354 172.583H178.062V178H175.396V163.333ZM195.401 175.281V177.781C193.977 178.038 192.724 178.167 191.641 178.167C190.161 178.167 188.967 177.812 188.057 177.104C187.155 176.389 186.543 175.424 186.224 174.208C186.009 173.361 185.901 172.181 185.901 170.667C185.901 169.153 186.009 167.972 186.224 167.125C186.55 165.903 187.151 164.937 188.026 164.229C188.901 163.521 190.071 163.167 191.536 163.167C192.648 163.167 193.832 163.267 195.089 163.469V165.969C193.519 165.767 192.345 165.667 191.568 165.667C190.033 165.667 189.078 166.465 188.703 168.062C188.557 168.694 188.484 169.562 188.484 170.667C188.484 171.771 188.557 172.639 188.703 173.271C189.085 174.868 190.064 175.667 191.641 175.667C192.509 175.667 193.762 175.538 195.401 175.281ZM197.406 163.333H205.406V165.833H200.073V169.375H204.073V171.875H200.073V175.5H205.406V178H197.406V163.333ZM207.411 163.333H210.078V169.458H214.078V163.333H216.745V178H214.078V171.958H210.078V178H207.411V163.333ZM220.74 167.979C220.635 168.549 220.583 169.444 220.583 170.667C220.583 171.889 220.635 172.785 220.74 173.354C220.865 174.028 221.094 174.583 221.427 175.021C221.767 175.451 222.208 175.667 222.75 175.667C223.292 175.667 223.729 175.451 224.062 175.021C224.403 174.583 224.635 174.028 224.76 173.354C224.865 172.778 224.917 171.882 224.917 170.667C224.917 169.444 224.865 168.549 224.76 167.979C224.635 167.306 224.403 166.753 224.062 166.323C223.729 165.885 223.292 165.667 222.75 165.667C222.208 165.667 221.767 165.885 221.427 166.323C221.094 166.753 220.865 167.306 220.74 167.979ZM218.208 174.302C218.014 173.531 217.917 172.319 217.917 170.667C217.917 169.014 218.014 167.802 218.208 167.031C218.486 165.906 219.01 164.983 219.781 164.26C220.552 163.531 221.542 163.167 222.75 163.167C223.958 163.167 224.948 163.531 225.719 164.26C226.49 164.983 227.014 165.906 227.292 167.031C227.486 167.802 227.583 169.014 227.583 170.667C227.583 172.319 227.486 173.531 227.292 174.302C227.014 175.427 226.49 176.354 225.719 177.083C224.948 177.806 223.958 178.167 222.75 178.167C221.542 178.167 220.552 177.806 219.781 177.083C219.01 176.354 218.486 175.427 218.208 174.302ZM231.422 178H228.755V163.333H231.422L233.37 167.896H233.484L235.422 163.333H238.089V178H235.422V168.667H235.318L233.995 171.333H232.849L231.526 168.625H231.422V178ZM253.891 169.375C254.411 169.375 254.752 169.354 254.911 169.312C255.286 169.222 255.585 169.028 255.807 168.729C256.036 168.424 256.151 168.049 256.151 167.604C256.151 167.167 256.036 166.795 255.807 166.49C255.578 166.184 255.28 165.99 254.911 165.906C254.689 165.858 254.349 165.833 253.891 165.833H253.432V169.375H253.891ZM257.151 170.417C257.866 170.625 258.422 171.052 258.818 171.698C259.22 172.337 259.422 173.104 259.422 174C259.422 174.972 259.165 175.806 258.651 176.5C258.144 177.188 257.484 177.632 256.672 177.833C256.227 177.944 255.488 178 254.453 178H250.766V163.333H253.891C254.786 163.333 255.425 163.378 255.807 163.469C256.661 163.67 257.359 164.111 257.901 164.792C258.443 165.472 258.714 166.306 258.714 167.292C258.714 168.757 258.193 169.764 257.151 170.312V170.417ZM253.432 171.875V175.5H254.464C255.089 175.5 255.505 175.472 255.714 175.417C256.061 175.326 256.339 175.128 256.547 174.823C256.755 174.51 256.859 174.132 256.859 173.688C256.859 173.243 256.755 172.865 256.547 172.552C256.339 172.24 256.061 172.042 255.714 171.958C255.477 171.903 255.061 171.875 254.464 171.875H253.432ZM272.776 163.49C273.88 163.274 274.88 163.167 275.776 163.167C276.443 163.167 277.026 163.267 277.526 163.469C278.033 163.67 278.429 163.944 278.714 164.292C279.005 164.639 279.22 165.021 279.359 165.438C279.498 165.854 279.568 166.299 279.568 166.771C279.568 167.229 279.519 167.625 279.422 167.958C279.332 168.285 279.186 168.635 278.984 169.01L275.818 175.5H279.651V178H272.776V175.823L276.464 168.427C276.755 167.885 276.901 167.333 276.901 166.771C276.901 166.035 276.526 165.667 275.776 165.667C274.936 165.667 273.936 165.774 272.776 165.99V163.49ZM283.823 165.406C284.392 163.899 285.378 163.146 286.781 163.146C288.184 163.146 289.17 163.899 289.74 165.406C289.865 165.747 289.958 166.215 290.021 166.812C290.083 167.41 290.118 167.955 290.125 168.448C290.139 168.934 290.146 169.674 290.146 170.667C290.146 171.66 290.139 172.403 290.125 172.896C290.118 173.382 290.083 173.924 290.021 174.521C289.958 175.118 289.865 175.587 289.74 175.927C289.17 177.434 288.184 178.188 286.781 178.188C285.378 178.188 284.392 177.434 283.823 175.927C283.698 175.587 283.604 175.118 283.542 174.521C283.479 173.924 283.441 173.382 283.427 172.896C283.42 172.403 283.417 171.66 283.417 170.667C283.417 169.674 283.42 168.934 283.427 168.448C283.441 167.955 283.479 167.41 283.542 166.812C283.604 166.215 283.698 165.747 283.823 165.406ZM286.781 165.688C286.483 165.688 286.271 166.125 286.146 167C286.076 167.465 286.042 168.687 286.042 170.667V171.76L287.438 167.167C287.389 166.757 287.309 166.41 287.198 166.125C287.087 165.833 286.948 165.688 286.781 165.688ZM286.125 174.167C286.174 174.576 286.253 174.927 286.365 175.219C286.476 175.503 286.615 175.646 286.781 175.646C287.08 175.646 287.292 175.208 287.417 174.333C287.486 173.868 287.521 172.646 287.521 170.667V169.573L286.125 174.167ZM297.036 163.333H299.453V178H296.786V166.479H296.682L295.443 167.385L294.12 165.458L297.036 163.333ZM304.792 175.323C305.924 175.552 306.91 175.667 307.75 175.667C308.049 175.667 308.299 175.608 308.5 175.49C308.701 175.372 308.851 175.198 308.948 174.969C309.045 174.74 309.111 174.497 309.146 174.24C309.188 173.983 309.208 173.677 309.208 173.323C309.208 171.774 308.799 171 307.979 171C307.535 171 307.191 171.135 306.948 171.406L304.792 170.844V163.333H311.458V165.833H307.458V169.083H307.562C307.986 168.812 308.444 168.677 308.938 168.677C310.84 168.677 311.792 170.233 311.792 173.344C311.792 174.983 311.472 176.198 310.833 176.99C310.201 177.774 309.243 178.167 307.958 178.167C307.111 178.167 306.056 178.059 304.792 177.844V175.323ZM326.135 163.333H334.135V165.833H328.802V178H326.135V163.333ZM338.13 167.979C338.026 168.549 337.974 169.444 337.974 170.667C337.974 171.889 338.026 172.785 338.13 173.354C338.255 174.028 338.484 174.583 338.818 175.021C339.158 175.451 339.599 175.667 340.141 175.667C340.682 175.667 341.12 175.451 341.453 175.021C341.793 174.583 342.026 174.028 342.151 173.354C342.255 172.778 342.307 171.882 342.307 170.667C342.307 169.444 342.255 168.549 342.151 167.979C342.026 167.306 341.793 166.753 341.453 166.323C341.12 165.885 340.682 165.667 340.141 165.667C339.599 165.667 339.158 165.885 338.818 166.323C338.484 166.753 338.255 167.306 338.13 167.979ZM335.599 174.302C335.405 173.531 335.307 172.319 335.307 170.667C335.307 169.014 335.405 167.802 335.599 167.031C335.877 165.906 336.401 164.983 337.172 164.26C337.943 163.531 338.932 163.167 340.141 163.167C341.349 163.167 342.339 163.531 343.109 164.26C343.88 164.983 344.405 165.906 344.682 167.031C344.877 167.802 344.974 169.014 344.974 170.667C344.974 172.319 344.877 173.531 344.682 174.302C344.405 175.427 343.88 176.354 343.109 177.083C342.339 177.806 341.349 178.167 340.141 178.167C338.932 178.167 337.943 177.806 337.172 177.083C336.401 176.354 335.877 175.427 335.599 174.302ZM348.958 175.5H351.479V165.833H350.146C350.132 169.708 349.736 172.931 348.958 175.5ZM346.26 175.5C346.545 174.556 346.774 173.604 346.948 172.646C347.122 171.681 347.243 170.642 347.312 169.531C347.389 168.413 347.434 167.451 347.448 166.646C347.469 165.833 347.479 164.729 347.479 163.333H354.146V175.5H355.479V180.667H352.812V178H347.479V180.667H344.812V175.5H346.26ZM360.182 173.344C359.266 171.83 358.554 170.264 358.047 168.646C357.547 167.021 357.168 165.25 356.911 163.333H359.547C359.811 165.833 360.384 168.08 361.266 170.073H361.37C362.224 167.587 362.873 165.34 363.318 163.333H366.057C365.057 167.625 363.547 171.99 361.526 176.427C361.325 176.872 361.016 177.247 360.599 177.552C360.182 177.851 359.675 178.031 359.078 178.094C358.571 178.142 357.818 178.167 356.818 178.167V175.729C357.498 175.729 358.023 175.701 358.391 175.646C358.766 175.583 359.03 175.465 359.182 175.292C359.273 175.194 359.356 175.094 359.432 174.99C359.509 174.878 359.585 174.743 359.661 174.583C359.738 174.417 359.793 174.295 359.828 174.219C359.863 174.135 359.925 173.983 360.016 173.76C360.106 173.531 360.161 173.392 360.182 173.344Z" fill="black"/>
<path d="M943 131.333H951V133.833H945.667V137.375H949.667V139.875H945.667V143.5H951V146H943V131.333ZM954.339 131.333H962.339V133.833H957.005V146H954.339V131.333ZM966.333 135.979C966.229 136.549 966.177 137.444 966.177 138.667C966.177 139.889 966.229 140.785 966.333 141.354C966.458 142.028 966.688 142.583 967.021 143.021C967.361 143.451 967.802 143.667 968.344 143.667C968.885 143.667 969.323 143.451 969.656 143.021C969.997 142.583 970.229 142.028 970.354 141.354C970.458 140.778 970.51 139.882 970.51 138.667C970.51 137.444 970.458 136.549 970.354 135.979C970.229 135.306 969.997 134.753 969.656 134.323C969.323 133.885 968.885 133.667 968.344 133.667C967.802 133.667 967.361 133.885 967.021 134.323C966.688 134.753 966.458 135.306 966.333 135.979ZM963.802 142.302C963.608 141.531 963.51 140.319 963.51 138.667C963.51 137.014 963.608 135.802 963.802 135.031C964.08 133.906 964.604 132.983 965.375 132.26C966.146 131.531 967.135 131.167 968.344 131.167C969.552 131.167 970.542 131.531 971.312 132.26C972.083 132.983 972.608 133.906 972.885 135.031C973.08 135.802 973.177 137.014 973.177 138.667C973.177 140.319 973.08 141.531 972.885 142.302C972.608 143.427 972.083 144.354 971.312 145.083C970.542 145.806 969.552 146.167 968.344 146.167C967.135 146.167 966.146 145.806 965.375 145.083C964.604 144.354 964.08 143.427 963.802 142.302ZM987.677 135.979C987.573 136.549 987.521 137.444 987.521 138.667C987.521 139.889 987.573 140.785 987.677 141.354C987.802 142.028 988.031 142.583 988.365 143.021C988.705 143.451 989.146 143.667 989.688 143.667C990.229 143.667 990.667 143.451 991 143.021C991.34 142.583 991.573 142.028 991.698 141.354C991.802 140.778 991.854 139.882 991.854 138.667C991.854 137.444 991.802 136.549 991.698 135.979C991.573 135.306 991.34 134.753 991 134.323C990.667 133.885 990.229 133.667 989.688 133.667C989.146 133.667 988.705 133.885 988.365 134.323C988.031 134.753 987.802 135.306 987.677 135.979ZM985.146 142.302C984.951 141.531 984.854 140.319 984.854 138.667C984.854 137.014 984.951 135.802 985.146 135.031C985.424 133.906 985.948 132.983 986.719 132.26C987.49 131.531 988.479 131.167 989.688 131.167C990.896 131.167 991.885 131.531 992.656 132.26C993.427 132.983 993.951 133.906 994.229 135.031C994.424 135.802 994.521 137.014 994.521 138.667C994.521 140.319 994.424 141.531 994.229 142.302C993.951 143.427 993.427 144.354 992.656 145.083C991.885 145.806 990.896 146.167 989.688 146.167C988.479 146.167 987.49 145.806 986.719 145.083C985.948 144.354 985.424 143.427 985.146 142.302ZM1005.03 143.281V145.781C1003.6 146.038 1002.35 146.167 1001.27 146.167C999.786 146.167 998.592 145.812 997.682 145.104C996.78 144.389 996.168 143.424 995.849 142.208C995.634 141.361 995.526 140.181 995.526 138.667C995.526 137.153 995.634 135.972 995.849 135.125C996.175 133.903 996.776 132.937 997.651 132.229C998.526 131.521 999.696 131.167 1001.16 131.167C1002.27 131.167 1003.46 131.267 1004.71 131.469V133.969C1003.14 133.767 1001.97 133.667 1001.19 133.667C999.658 133.667 998.703 134.465 998.328 136.062C998.182 136.694 998.109 137.562 998.109 138.667C998.109 139.771 998.182 140.639 998.328 141.271C998.71 142.868 999.689 143.667 1001.27 143.667C1002.13 143.667 1003.39 143.538 1005.03 143.281ZM1006.36 131.333H1009.03V137.458H1013.03V131.333H1015.7V146H1013.03V139.958H1009.03V146H1006.36V131.333ZM1019.69 135.979C1019.59 136.549 1019.54 137.444 1019.54 138.667C1019.54 139.889 1019.59 140.785 1019.69 141.354C1019.82 142.028 1020.05 142.583 1020.38 143.021C1020.72 143.451 1021.16 143.667 1021.7 143.667C1022.24 143.667 1022.68 143.451 1023.02 143.021C1023.36 142.583 1023.59 142.028 1023.71 141.354C1023.82 140.778 1023.87 139.882 1023.87 138.667C1023.87 137.444 1023.82 136.549 1023.71 135.979C1023.59 135.306 1023.36 134.753 1023.02 134.323C1022.68 133.885 1022.24 133.667 1021.7 133.667C1021.16 133.667 1020.72 133.885 1020.38 134.323C1020.05 134.753 1019.82 135.306 1019.69 135.979ZM1017.16 142.302C1016.97 141.531 1016.87 140.319 1016.87 138.667C1016.87 137.014 1016.97 135.802 1017.16 135.031C1017.44 133.906 1017.96 132.983 1018.73 132.26C1019.51 131.531 1020.49 131.167 1021.7 131.167C1022.91 131.167 1023.9 131.531 1024.67 132.26C1025.44 132.983 1025.97 133.906 1026.24 135.031C1026.44 135.802 1026.54 137.014 1026.54 138.667C1026.54 140.319 1026.44 141.531 1026.24 142.302C1025.97 143.427 1025.44 144.354 1024.67 145.083C1023.9 145.806 1022.91 146.167 1021.7 146.167C1020.49 146.167 1019.51 145.806 1018.73 145.083C1017.96 144.354 1017.44 143.427 1017.16 142.302ZM1031.5 137.375C1032.02 137.375 1032.36 137.354 1032.52 137.312C1032.9 137.222 1033.19 137.028 1033.42 136.729C1033.65 136.424 1033.76 136.049 1033.76 135.604C1033.76 135.167 1033.65 134.795 1033.42 134.49C1033.19 134.184 1032.89 133.99 1032.52 133.906C1032.3 133.858 1031.96 133.833 1031.5 133.833H1031.04V137.375H1031.5ZM1034.76 138.417C1035.48 138.625 1036.03 139.052 1036.43 139.698C1036.83 140.337 1037.03 141.104 1037.03 142C1037.03 142.972 1036.77 143.806 1036.26 144.5C1035.75 145.188 1035.09 145.632 1034.28 145.833C1033.84 145.944 1033.1 146 1032.06 146H1028.38V131.333H1031.5C1032.4 131.333 1033.03 131.378 1033.42 131.469C1034.27 131.67 1034.97 132.111 1035.51 132.792C1036.05 133.472 1036.32 134.306 1036.32 135.292C1036.32 136.757 1035.8 137.764 1034.76 138.312V138.417ZM1031.04 139.875V143.5H1032.07C1032.7 143.5 1033.11 143.472 1033.32 143.417C1033.67 143.326 1033.95 143.128 1034.16 142.823C1034.36 142.51 1034.47 142.132 1034.47 141.688C1034.47 141.243 1034.36 140.865 1034.16 140.552C1033.95 140.24 1033.67 140.042 1033.32 139.958C1033.09 139.903 1032.67 139.875 1032.07 139.875H1031.04ZM1038.38 131.333H1041.05V137.458H1045.05V131.333H1047.71V146H1045.05V139.958H1041.05V146H1038.38V131.333ZM1051.71 135.979C1051.6 136.549 1051.55 137.444 1051.55 138.667C1051.55 139.889 1051.6 140.785 1051.71 141.354C1051.83 142.028 1052.06 142.583 1052.4 143.021C1052.74 143.451 1053.18 143.667 1053.72 143.667C1054.26 143.667 1054.7 143.451 1055.03 143.021C1055.37 142.583 1055.6 142.028 1055.73 141.354C1055.83 140.778 1055.89 139.882 1055.89 138.667C1055.89 137.444 1055.83 136.549 1055.73 135.979C1055.6 135.306 1055.37 134.753 1055.03 134.323C1054.7 133.885 1054.26 133.667 1053.72 133.667C1053.18 133.667 1052.74 133.885 1052.4 134.323C1052.06 134.753 1051.83 135.306 1051.71 135.979ZM1049.18 142.302C1048.98 141.531 1048.89 140.319 1048.89 138.667C1048.89 137.014 1048.98 135.802 1049.18 135.031C1049.45 133.906 1049.98 132.983 1050.75 132.26C1051.52 131.531 1052.51 131.167 1053.72 131.167C1054.93 131.167 1055.92 131.531 1056.69 132.26C1057.46 132.983 1057.98 133.906 1058.26 135.031C1058.45 135.802 1058.55 137.014 1058.55 138.667C1058.55 140.319 1058.45 141.531 1058.26 142.302C1057.98 143.427 1057.46 144.354 1056.69 145.083C1055.92 145.806 1054.93 146.167 1053.72 146.167C1052.51 146.167 1051.52 145.806 1050.75 145.083C1049.98 144.354 1049.45 143.427 1049.18 142.302ZM1060.39 131.333H1068.39V133.833H1063.06V137.375H1067.06V139.875H1063.06V143.5H1068.39V146H1060.39V131.333ZM1081.07 131.333H1083.73V137.458H1087.73V131.333H1090.4V146H1087.73V139.958H1083.73V146H1081.07V131.333ZM1097.92 140.667C1097.51 138.049 1097.03 135.691 1096.46 133.594H1096.35C1095.79 135.67 1095.31 138.028 1094.9 140.667H1097.92ZM1094.34 131.333H1098.47C1099.66 135.069 1100.61 139.958 1101.31 146H1098.61C1098.53 145.042 1098.42 144.097 1098.27 143.167H1094.54C1094.4 144.097 1094.28 145.042 1094.2 146H1091.5C1092.2 139.958 1093.15 135.069 1094.34 131.333ZM1106.14 131.167C1106.89 131.167 1107.55 131.267 1108.12 131.469C1108.69 131.67 1109.15 131.955 1109.49 132.323C1109.84 132.691 1110.1 133.118 1110.28 133.604C1110.45 134.09 1110.54 134.632 1110.54 135.229C1110.54 135.944 1110.41 136.597 1110.15 137.188C1109.89 137.771 1109.53 138.233 1109.05 138.573V138.677C1109.57 139.003 1109.99 139.469 1110.29 140.073C1110.59 140.67 1110.74 141.337 1110.74 142.073V142.104C1110.74 143.299 1110.35 144.274 1109.59 145.031C1108.82 145.788 1107.71 146.167 1106.24 146.167C1105.07 146.167 1103.79 146.007 1102.41 145.688V143.177C1103.87 143.503 1105.11 143.667 1106.14 143.667C1107.43 143.667 1108.08 143.076 1108.08 141.896C1108.08 141.194 1107.93 140.691 1107.64 140.385C1107.36 140.073 1106.84 139.917 1106.1 139.917H1104.41V137.417H1106.11C1106.81 137.417 1107.28 137.26 1107.52 136.948C1107.75 136.635 1107.87 136.132 1107.87 135.438C1107.87 134.875 1107.74 134.441 1107.47 134.135C1107.22 133.823 1106.77 133.667 1106.14 133.667C1105.99 133.667 1105.85 133.67 1105.7 133.677C1105.56 133.684 1105.41 133.694 1105.24 133.708C1105.09 133.722 1104.95 133.736 1104.83 133.75C1104.72 133.757 1104.57 133.774 1104.39 133.802C1104.21 133.83 1104.07 133.851 1103.98 133.865C1103.9 133.878 1103.76 133.906 1103.56 133.948C1103.36 133.983 1103.24 134.007 1103.18 134.021C1103.13 134.028 1102.99 134.052 1102.78 134.094C1102.56 134.135 1102.44 134.16 1102.41 134.167V131.667C1103.87 131.333 1105.11 131.167 1106.14 131.167ZM1113.08 131.333H1115.75V137.458H1119.75V131.333H1122.42V146H1119.75V139.958H1115.75V146H1113.08V131.333ZM1129.93 140.667C1129.53 138.049 1129.04 135.691 1128.47 133.594H1128.37C1127.81 135.67 1127.32 138.028 1126.91 140.667H1129.93ZM1126.36 131.333H1130.48C1131.68 135.069 1132.63 139.958 1133.33 146H1130.63C1130.55 145.042 1130.43 144.097 1130.29 143.167H1126.56C1126.41 144.097 1126.3 145.042 1126.21 146H1123.52C1124.22 139.958 1125.16 135.069 1126.36 131.333ZM1134.43 131.333H1137.09V135.333C1137.09 136.257 1137.17 136.889 1137.32 137.229C1137.66 137.965 1138.25 138.333 1139.09 138.333C1139.93 138.333 1140.52 137.965 1140.86 137.229C1141.02 136.896 1141.09 136.264 1141.09 135.333V131.333H1143.76V146H1141.09V139.896H1140.99C1140.43 140.521 1139.73 140.833 1138.89 140.833C1137.8 140.833 1136.87 140.524 1136.08 139.906C1135.3 139.288 1134.8 138.49 1134.58 137.51C1134.48 137.038 1134.43 136.312 1134.43 135.333V131.333ZM1145.77 131.333H1153.77V133.833H1148.43V137.375H1152.43V139.875H1148.43V143.5H1153.77V146H1145.77V131.333ZM1155.77 131.333H1158.44V137.458H1162.44V131.333H1165.1V146H1162.44V139.958H1158.44V146H1155.77V131.333ZM1173.11 146V136.646H1173.01L1169.11 146H1166.44V131.333H1169.11V140.688H1169.21L1173.12 131.333H1175.78V146H1173.11ZM1177.78 131.333H1185.78V133.833H1180.45V137.375H1184.45V139.875H1180.45V143.5H1185.78V146H1177.78V131.333ZM1202.25 137.375C1202.77 137.375 1203.11 137.354 1203.27 137.312C1203.65 137.222 1203.94 137.028 1204.17 136.729C1204.4 136.424 1204.51 136.049 1204.51 135.604C1204.51 135.167 1204.4 134.795 1204.17 134.49C1203.94 134.184 1203.64 133.99 1203.27 133.906C1203.05 133.858 1202.71 133.833 1202.25 133.833H1201.79V137.375H1202.25ZM1205.51 138.417C1206.23 138.625 1206.78 139.052 1207.18 139.698C1207.58 140.337 1207.78 141.104 1207.78 142C1207.78 142.972 1207.52 143.806 1207.01 144.5C1206.5 145.188 1205.84 145.632 1205.03 145.833C1204.59 145.944 1203.85 146 1202.81 146H1199.12V131.333H1202.25C1203.15 131.333 1203.78 131.378 1204.17 131.469C1205.02 131.67 1205.72 132.111 1206.26 132.792C1206.8 133.472 1207.07 134.306 1207.07 135.292C1207.07 136.757 1206.55 137.764 1205.51 138.312V138.417ZM1201.79 139.875V143.5H1202.82C1203.45 143.5 1203.86 143.472 1204.07 143.417C1204.42 143.326 1204.7 143.128 1204.91 142.823C1205.11 142.51 1205.22 142.132 1205.22 141.688C1205.22 141.243 1205.11 140.865 1204.91 140.552C1204.7 140.24 1204.42 140.042 1204.07 139.958C1203.84 139.903 1203.42 139.875 1202.82 139.875H1201.79ZM1229.14 131.333V133.833H1225.8V146H1223.14V133.833H1219.8V131.333H1229.14ZM1233.13 135.979C1233.03 136.549 1232.97 137.444 1232.97 138.667C1232.97 139.889 1233.03 140.785 1233.13 141.354C1233.26 142.028 1233.48 142.583 1233.82 143.021C1234.16 143.451 1234.6 143.667 1235.14 143.667C1235.68 143.667 1236.12 143.451 1236.45 143.021C1236.79 142.583 1237.03 142.028 1237.15 141.354C1237.26 140.778 1237.31 139.882 1237.31 138.667C1237.31 137.444 1237.26 136.549 1237.15 135.979C1237.03 135.306 1236.79 134.753 1236.45 134.323C1236.12 133.885 1235.68 133.667 1235.14 133.667C1234.6 133.667 1234.16 133.885 1233.82 134.323C1233.48 134.753 1233.26 135.306 1233.13 135.979ZM1230.6 142.302C1230.4 141.531 1230.31 140.319 1230.31 138.667C1230.31 137.014 1230.4 135.802 1230.6 135.031C1230.88 133.906 1231.4 132.983 1232.17 132.26C1232.94 131.531 1233.93 131.167 1235.14 131.167C1236.35 131.167 1237.34 131.531 1238.11 132.26C1238.88 132.983 1239.4 133.906 1239.68 135.031C1239.88 135.802 1239.97 137.014 1239.97 138.667C1239.97 140.319 1239.88 141.531 1239.68 142.302C1239.4 143.427 1238.88 144.354 1238.11 145.083C1237.34 145.806 1236.35 146.167 1235.14 146.167C1233.93 146.167 1232.94 145.806 1232.17 145.083C1231.4 144.354 1230.88 143.427 1230.6 142.302ZM1243.81 146H1241.15V131.333H1243.81L1245.76 135.896H1245.88L1247.81 131.333H1250.48V146H1247.81V136.667H1247.71L1246.39 139.333H1245.24L1243.92 136.625H1243.81V146ZM1254.48 140.917H1258.48V144.833C1258.48 145.201 1258.47 145.497 1258.45 145.719C1258.44 145.934 1258.37 146.219 1258.23 146.573C1258.11 146.927 1257.92 147.25 1257.67 147.542C1257.33 147.944 1256.89 148.26 1256.34 148.49C1255.79 148.719 1255.17 148.833 1254.48 148.833V146.333C1255.01 146.333 1255.37 146.163 1255.59 145.823C1255.74 145.58 1255.82 145.25 1255.82 144.833V144.667H1254.48V140.917ZM1273.16 131.333H1275.83V135.333C1275.83 136.257 1275.9 136.889 1276.06 137.229C1276.39 137.965 1276.98 138.333 1277.83 138.333C1278.67 138.333 1279.26 137.965 1279.6 137.229C1279.75 136.896 1279.83 136.264 1279.83 135.333V131.333H1282.49V146H1279.83V139.896H1279.72C1279.17 140.521 1278.47 140.833 1277.62 140.833C1276.54 140.833 1275.6 140.524 1274.82 139.906C1274.03 139.288 1273.53 138.49 1273.32 137.51C1273.21 137.038 1273.16 136.312 1273.16 135.333V131.333ZM1293.17 131.333V133.833H1289.83V146H1287.17V133.833H1283.83V131.333H1293.17ZM1297.16 135.979C1297.06 136.549 1297.01 137.444 1297.01 138.667C1297.01 139.889 1297.06 140.785 1297.16 141.354C1297.29 142.028 1297.52 142.583 1297.85 143.021C1298.19 143.451 1298.63 143.667 1299.17 143.667C1299.71 143.667 1300.15 143.451 1300.48 143.021C1300.82 142.583 1301.06 142.028 1301.18 141.354C1301.29 140.778 1301.34 139.882 1301.34 138.667C1301.34 137.444 1301.29 136.549 1301.18 135.979C1301.06 135.306 1300.82 134.753 1300.48 134.323C1300.15 133.885 1299.71 133.667 1299.17 133.667C1298.63 133.667 1298.19 133.885 1297.85 134.323C1297.52 134.753 1297.29 135.306 1297.16 135.979ZM1294.63 142.302C1294.44 141.531 1294.34 140.319 1294.34 138.667C1294.34 137.014 1294.44 135.802 1294.63 135.031C1294.91 133.906 1295.43 132.983 1296.2 132.26C1296.97 131.531 1297.96 131.167 1299.17 131.167C1300.38 131.167 1301.37 131.531 1302.14 132.26C1302.91 132.983 1303.44 133.906 1303.71 135.031C1303.91 135.802 1304.01 137.014 1304.01 138.667C1304.01 140.319 1303.91 141.531 1303.71 142.302C1303.44 143.427 1302.91 144.354 1302.14 145.083C1301.37 145.806 1300.38 146.167 1299.17 146.167C1297.96 146.167 1296.97 145.806 1296.2 145.083C1295.43 144.354 1294.91 143.427 1294.63 142.302ZM1309.53 137.438C1310.57 137.438 1311.31 137.493 1311.75 137.604C1312.56 137.806 1313.22 138.281 1313.73 139.031C1314.24 139.781 1314.5 140.688 1314.5 141.75C1314.5 142.819 1314.25 143.719 1313.74 144.448C1313.23 145.17 1312.57 145.632 1311.75 145.833C1311.31 145.944 1310.57 146 1309.53 146H1305.84V131.333H1313.84V133.833H1308.51V137.438H1309.53ZM1308.51 139.938V143.5H1309.54C1310.17 143.5 1310.58 143.472 1310.79 143.417C1311.15 143.326 1311.42 143.142 1311.62 142.865C1311.83 142.58 1311.94 142.208 1311.94 141.75C1311.94 141.306 1311.83 140.931 1311.62 140.625C1311.42 140.319 1311.14 140.118 1310.79 140.021C1310.58 139.965 1310.17 139.938 1309.54 139.938H1308.51ZM1325.18 131.333V146H1322.52V143.281C1322.35 143.934 1322.09 144.479 1321.72 144.917C1321.37 145.354 1320.95 145.66 1320.46 145.833C1320.14 145.944 1319.61 146 1318.87 146H1315.85V131.333H1318.52V137.438H1318.87C1319.61 137.438 1320.14 137.493 1320.46 137.604C1320.94 137.771 1321.36 138.083 1321.72 138.542C1322.09 138.993 1322.35 139.552 1322.52 140.219V131.333H1325.18ZM1318.52 139.938V143.5H1318.88C1319.19 143.5 1319.4 143.472 1319.51 143.417C1319.92 143.201 1320.13 142.646 1320.13 141.75C1320.13 141.312 1320.07 140.941 1319.95 140.635C1319.84 140.33 1319.69 140.125 1319.51 140.021C1319.4 139.965 1319.19 139.938 1318.88 139.938H1318.52ZM1342.53 133.729C1342.53 135.875 1342.5 137.628 1342.45 138.99C1342.41 140.198 1342.32 141.184 1342.18 141.948C1342.04 142.712 1341.77 143.424 1341.35 144.083C1340.51 145.472 1339.12 146.167 1337.19 146.167V143.667C1337.73 143.667 1338.12 143.611 1338.36 143.5C1338.6 143.382 1338.83 143.16 1339.04 142.833C1339.23 142.549 1339.38 142.17 1339.49 141.698C1339.61 141.226 1339.68 140.799 1339.7 140.417C1339.74 140.028 1339.77 139.524 1339.79 138.906C1339.84 137.587 1339.86 135.889 1339.86 133.812V131.333H1342.53H1346.53V146H1343.86V133.729H1342.53ZM1348.53 131.333H1356.53V133.833H1351.2V137.375H1355.2V139.875H1351.2V143.5H1356.53V146H1348.53V131.333ZM1361.2 146H1358.54V131.333H1361.2V137.062L1364.29 131.333H1367.3L1363.81 137.479L1368.27 146H1365.28L1362.02 139.635L1361.2 141.01V146ZM1370.54 131.333H1378.54V133.833H1373.21V146H1370.54V131.333ZM1382.54 135.979C1382.43 136.549 1382.38 137.444 1382.38 138.667C1382.38 139.889 1382.43 140.785 1382.54 141.354C1382.66 142.028 1382.89 142.583 1383.22 143.021C1383.56 143.451 1384.01 143.667 1384.55 143.667C1385.09 143.667 1385.53 143.451 1385.86 143.021C1386.2 142.583 1386.43 142.028 1386.56 141.354C1386.66 140.778 1386.71 139.882 1386.71 138.667C1386.71 137.444 1386.66 136.549 1386.56 135.979C1386.43 135.306 1386.2 134.753 1385.86 134.323C1385.53 133.885 1385.09 133.667 1384.55 133.667C1384.01 133.667 1383.56 133.885 1383.22 134.323C1382.89 134.753 1382.66 135.306 1382.54 135.979ZM1380.01 142.302C1379.81 141.531 1379.71 140.319 1379.71 138.667C1379.71 137.014 1379.81 135.802 1380.01 135.031C1380.28 133.906 1380.81 132.983 1381.58 132.26C1382.35 131.531 1383.34 131.167 1384.55 131.167C1385.76 131.167 1386.74 131.531 1387.52 132.26C1388.29 132.983 1388.81 133.906 1389.09 135.031C1389.28 135.802 1389.38 137.014 1389.38 138.667C1389.38 140.319 1389.28 141.531 1389.09 142.302C1388.81 143.427 1388.29 144.354 1387.52 145.083C1386.74 145.806 1385.76 146.167 1384.55 146.167C1383.34 146.167 1382.35 145.806 1381.58 145.083C1380.81 144.354 1380.28 143.427 1380.01 142.302ZM944.99 167.979C944.885 168.549 944.833 169.444 944.833 170.667C944.833 171.889 944.885 172.785 944.99 173.354C945.115 174.028 945.344 174.583 945.677 175.021C946.017 175.451 946.458 175.667 947 175.667C947.542 175.667 947.979 175.451 948.312 175.021C948.653 174.583 948.885 174.028 949.01 173.354C949.115 172.778 949.167 171.882 949.167 170.667C949.167 169.444 949.115 168.549 949.01 167.979C948.885 167.306 948.653 166.753 948.312 166.323C947.979 165.885 947.542 165.667 947 165.667C946.458 165.667 946.017 165.885 945.677 166.323C945.344 166.753 945.115 167.306 944.99 167.979ZM942.458 174.302C942.264 173.531 942.167 172.319 942.167 170.667C942.167 169.014 942.264 167.802 942.458 167.031C942.736 165.906 943.26 164.983 944.031 164.26C944.802 163.531 945.792 163.167 947 163.167C948.208 163.167 949.198 163.531 949.969 164.26C950.74 164.983 951.264 165.906 951.542 167.031C951.736 167.802 951.833 169.014 951.833 170.667C951.833 172.319 951.736 173.531 951.542 174.302C951.264 175.427 950.74 176.354 949.969 177.083C949.198 177.806 948.208 178.167 947 178.167C945.792 178.167 944.802 177.806 944.031 177.083C943.26 176.354 942.736 175.427 942.458 174.302ZM955.672 165.833V170.083H956.984C957.582 170.083 958.016 170.056 958.286 170C958.759 169.903 959.134 169.67 959.411 169.302C959.696 168.934 959.839 168.486 959.839 167.958C959.839 167.431 959.696 166.983 959.411 166.615C959.134 166.247 958.759 166.014 958.286 165.917C958.016 165.861 957.582 165.833 956.984 165.833H955.672ZM953.005 163.333H956.964C957.991 163.333 958.724 163.385 959.161 163.49C960.148 163.726 960.95 164.243 961.568 165.042C962.193 165.833 962.505 166.806 962.505 167.958C962.505 169.111 962.193 170.087 961.568 170.885C960.95 171.677 960.148 172.191 959.161 172.427C958.724 172.531 957.991 172.583 956.964 172.583H955.672V178H953.005V163.333ZM970.344 178V168.646H970.24L966.344 178H963.677V163.333H966.344V172.688H966.448L970.354 163.333H973.01V178H970.344ZM975.016 163.333H983.016V165.833H977.682V169.375H981.682V171.875H977.682V175.5H983.016V178H975.016V163.333ZM985.021 163.333H987.688V169.458H991.688V163.333H994.354V178H991.688V171.958H987.688V178H985.021V163.333ZM1005.03 163.333V165.833H1001.69V178H999.026V165.833H995.693V163.333H1005.03ZM1013.03 178V168.646H1012.93L1009.03 178H1006.36V163.333H1009.03V172.688H1009.14L1013.04 163.333H1015.7V178H1013.03ZM1019.7 165.833V170.083H1021.02C1021.61 170.083 1022.05 170.056 1022.32 170C1022.79 169.903 1023.16 169.67 1023.44 169.302C1023.73 168.934 1023.87 168.486 1023.87 167.958C1023.87 167.431 1023.73 166.983 1023.44 166.615C1023.16 166.247 1022.79 166.014 1022.32 165.917C1022.05 165.861 1021.61 165.833 1021.02 165.833H1019.7ZM1017.04 163.333H1020.99C1022.02 163.333 1022.76 163.385 1023.19 163.49C1024.18 163.726 1024.98 164.243 1025.6 165.042C1026.22 165.833 1026.54 166.806 1026.54 167.958C1026.54 169.111 1026.22 170.087 1025.6 170.885C1024.98 171.677 1024.18 172.191 1023.19 172.427C1022.76 172.531 1022.02 172.583 1020.99 172.583H1019.7V178H1017.04V163.333ZM1030.36 167.979C1030.26 168.549 1030.21 169.444 1030.21 170.667C1030.21 171.889 1030.26 172.785 1030.36 173.354C1030.49 174.028 1030.72 174.583 1031.05 175.021C1031.39 175.451 1031.83 175.667 1032.38 175.667C1032.92 175.667 1033.35 175.451 1033.69 175.021C1034.03 174.583 1034.26 174.028 1034.39 173.354C1034.49 172.778 1034.54 171.882 1034.54 170.667C1034.54 169.444 1034.49 168.549 1034.39 167.979C1034.26 167.306 1034.03 166.753 1033.69 166.323C1033.35 165.885 1032.92 165.667 1032.38 165.667C1031.83 165.667 1031.39 165.885 1031.05 166.323C1030.72 166.753 1030.49 167.306 1030.36 167.979ZM1027.83 174.302C1027.64 173.531 1027.54 172.319 1027.54 170.667C1027.54 169.014 1027.64 167.802 1027.83 167.031C1028.11 165.906 1028.64 164.983 1029.41 164.26C1030.18 163.531 1031.17 163.167 1032.38 163.167C1033.58 163.167 1034.57 163.531 1035.34 164.26C1036.11 164.983 1036.64 165.906 1036.92 167.031C1037.11 167.802 1037.21 169.014 1037.21 170.667C1037.21 172.319 1037.11 173.531 1036.92 174.302C1036.64 175.427 1036.11 176.354 1035.34 177.083C1034.57 177.806 1033.58 178.167 1032.38 178.167C1031.17 178.167 1030.18 177.806 1029.41 177.083C1028.64 176.354 1028.11 175.427 1027.83 174.302ZM1042.17 169.375C1042.69 169.375 1043.03 169.354 1043.19 169.312C1043.57 169.222 1043.87 169.028 1044.09 168.729C1044.32 168.424 1044.43 168.049 1044.43 167.604C1044.43 167.167 1044.32 166.795 1044.09 166.49C1043.86 166.184 1043.56 165.99 1043.19 165.906C1042.97 165.858 1042.63 165.833 1042.17 165.833H1041.71V169.375H1042.17ZM1045.43 170.417C1046.15 170.625 1046.7 171.052 1047.1 171.698C1047.5 172.337 1047.7 173.104 1047.7 174C1047.7 174.972 1047.45 175.806 1046.93 176.5C1046.43 177.188 1045.77 177.632 1044.95 177.833C1044.51 177.944 1043.77 178 1042.73 178H1039.05V163.333H1042.17C1043.07 163.333 1043.71 163.378 1044.09 163.469C1044.94 163.67 1045.64 164.111 1046.18 164.792C1046.72 165.472 1046.99 166.306 1046.99 167.292C1046.99 168.757 1046.47 169.764 1045.43 170.312V170.417ZM1041.71 171.875V175.5H1042.74C1043.37 175.5 1043.79 175.472 1043.99 175.417C1044.34 175.326 1044.62 175.128 1044.83 174.823C1045.04 174.51 1045.14 174.132 1045.14 173.688C1045.14 173.243 1045.04 172.865 1044.83 172.552C1044.62 172.24 1044.34 172.042 1043.99 171.958C1043.76 171.903 1043.34 171.875 1042.74 171.875H1041.71ZM1055.23 172.667C1054.83 170.049 1054.34 167.691 1053.77 165.594H1053.67C1053.1 167.67 1052.62 170.028 1052.21 172.667H1055.23ZM1051.66 163.333H1055.78C1056.98 167.069 1057.92 171.958 1058.62 178H1055.93C1055.84 177.042 1055.73 176.097 1055.58 175.167H1051.85C1051.71 176.097 1051.59 177.042 1051.51 178H1048.81C1049.51 171.958 1050.46 167.069 1051.66 163.333ZM1069.06 163.333V165.833H1065.72V178H1063.06V165.833H1059.72V163.333H1069.06ZM1074.75 169.438C1075.78 169.438 1076.52 169.493 1076.97 169.604C1077.78 169.806 1078.44 170.281 1078.95 171.031C1079.46 171.781 1079.72 172.688 1079.72 173.75C1079.72 174.819 1079.47 175.719 1078.96 176.448C1078.45 177.17 1077.79 177.632 1076.97 177.833C1076.52 177.944 1075.78 178 1074.75 178H1071.06V163.333H1073.73V169.438H1074.75ZM1073.73 171.938V175.5H1074.76C1075.39 175.5 1075.8 175.472 1076.01 175.417C1076.36 175.326 1076.64 175.142 1076.84 174.865C1077.05 174.58 1077.16 174.208 1077.16 173.75C1077.16 173.306 1077.05 172.931 1076.84 172.625C1076.64 172.319 1076.36 172.118 1076.01 172.021C1075.8 171.965 1075.39 171.938 1074.76 171.938H1073.73ZM1090.4 175.281V177.781C1088.98 178.038 1087.72 178.167 1086.64 178.167C1085.16 178.167 1083.97 177.812 1083.06 177.104C1082.15 176.389 1081.54 175.424 1081.22 174.208C1081.01 173.361 1080.9 172.181 1080.9 170.667C1080.9 169.153 1081.01 167.972 1081.22 167.125C1081.55 165.903 1082.15 164.937 1083.03 164.229C1083.9 163.521 1085.07 163.167 1086.54 163.167C1087.65 163.167 1088.83 163.267 1090.09 163.469V165.969C1088.52 165.767 1087.35 165.667 1086.57 165.667C1085.03 165.667 1084.08 166.465 1083.7 168.062C1083.56 168.694 1083.48 169.562 1083.48 170.667C1083.48 171.771 1083.56 172.639 1083.7 173.271C1084.09 174.868 1085.06 175.667 1086.64 175.667C1087.51 175.667 1088.76 175.538 1090.4 175.281ZM1097.74 165.833H1096.43C1095.84 165.833 1095.4 165.861 1095.12 165.917C1094.66 166.014 1094.28 166.247 1094 166.615C1093.72 166.983 1093.57 167.431 1093.57 167.958C1093.57 168.486 1093.72 168.934 1094 169.302C1094.28 169.67 1094.66 169.903 1095.12 170C1095.4 170.056 1095.83 170.083 1096.43 170.083H1097.74V165.833ZM1100.41 163.333V178H1097.74V172.583H1096.45C1095.97 172.583 1095.63 172.58 1095.42 172.573L1093.48 178H1090.65L1092.94 171.885C1092.31 171.49 1091.82 170.955 1091.45 170.281C1091.09 169.601 1090.91 168.826 1090.91 167.958C1090.91 166.806 1091.22 165.833 1091.83 165.042C1092.46 164.243 1093.26 163.726 1094.25 163.49C1094.69 163.385 1095.42 163.333 1096.45 163.333H1100.41ZM1119.75 178V168.646H1119.65L1115.75 178H1113.08V163.333H1115.75V172.688H1115.85L1119.76 163.333H1122.42V178H1119.75ZM1134.43 163.333H1137.09V169.458H1141.09V163.333H1143.76V178H1141.09V171.958H1137.09V178H1134.43V163.333ZM1145.77 163.333H1153.77V165.833H1148.43V169.375H1152.43V171.875H1148.43V175.5H1153.77V178H1145.77V163.333ZM1175.78 163.333V165.833H1172.44V178H1169.78V165.833H1166.44V163.333H1175.78ZM1177.78 163.333H1185.78V165.833H1180.45V169.375H1184.45V171.875H1180.45V175.5H1185.78V178H1177.78V163.333ZM1190.45 165.833V170.083H1191.77C1192.36 170.083 1192.8 170.056 1193.07 170C1193.54 169.903 1193.91 169.67 1194.19 169.302C1194.48 168.934 1194.62 168.486 1194.62 167.958C1194.62 167.431 1194.48 166.983 1194.19 166.615C1193.91 166.247 1193.54 166.014 1193.07 165.917C1192.8 165.861 1192.36 165.833 1191.77 165.833H1190.45ZM1187.79 163.333H1191.74C1192.77 163.333 1193.51 163.385 1193.94 163.49C1194.93 163.726 1195.73 164.243 1196.35 165.042C1196.97 165.833 1197.29 166.806 1197.29 167.958C1197.29 169.111 1196.97 170.087 1196.35 170.885C1195.73 171.677 1194.93 172.191 1193.94 172.427C1193.51 172.531 1192.77 172.583 1191.74 172.583H1190.45V178H1187.79V163.333ZM1204.46 165.833H1203.15C1202.56 165.833 1202.12 165.861 1201.84 165.917C1201.38 166.014 1201 166.247 1200.72 166.615C1200.43 166.983 1200.29 167.431 1200.29 167.958C1200.29 168.486 1200.43 168.934 1200.72 169.302C1201 169.67 1201.38 169.903 1201.84 170C1202.11 170.056 1202.55 170.083 1203.15 170.083H1204.46V165.833ZM1207.12 163.333V178H1204.46V172.583H1203.17C1202.69 172.583 1202.34 172.58 1202.14 172.573L1200.2 178H1197.36L1199.66 171.885C1199.03 171.49 1198.53 170.955 1198.17 170.281C1197.81 169.601 1197.62 168.826 1197.62 167.958C1197.62 166.806 1197.93 165.833 1198.55 165.042C1199.18 164.243 1199.98 163.726 1200.97 163.49C1201.41 163.385 1202.14 163.333 1203.17 163.333H1207.12ZM1218.46 163.333V165.833H1215.13V178H1212.46V165.833H1209.13V163.333H1218.46ZM1224.16 169.438C1225.19 169.438 1225.93 169.493 1226.38 169.604C1227.19 169.806 1227.85 170.281 1228.35 171.031C1228.87 171.781 1229.12 172.688 1229.12 173.75C1229.12 174.819 1228.87 175.719 1228.36 176.448C1227.86 177.17 1227.19 177.632 1226.38 177.833C1225.93 177.944 1225.19 178 1224.16 178H1220.47V163.333H1223.14V169.438H1224.16ZM1223.14 171.938V175.5H1224.17C1224.79 175.5 1225.21 175.472 1225.42 175.417C1225.77 175.326 1226.05 175.142 1226.25 174.865C1226.46 174.58 1226.56 174.208 1226.56 173.75C1226.56 173.306 1226.46 172.931 1226.25 172.625C1226.04 172.319 1225.76 172.118 1225.42 172.021C1225.21 171.965 1224.79 171.938 1224.17 171.938H1223.14ZM1239.81 175.281V177.781C1238.38 178.038 1237.13 178.167 1236.05 178.167C1234.57 178.167 1233.37 177.812 1232.46 177.104C1231.56 176.389 1230.95 175.424 1230.63 174.208C1230.41 173.361 1230.31 172.181 1230.31 170.667C1230.31 169.153 1230.41 167.972 1230.63 167.125C1230.96 165.903 1231.56 164.937 1232.43 164.229C1233.31 163.521 1234.48 163.167 1235.94 163.167C1237.05 163.167 1238.24 163.267 1239.49 163.469V165.969C1237.93 165.767 1236.75 165.667 1235.97 165.667C1234.44 165.667 1233.48 166.465 1233.11 168.062C1232.96 168.694 1232.89 169.562 1232.89 170.667C1232.89 171.771 1232.96 172.639 1233.11 173.271C1233.49 174.868 1234.47 175.667 1236.05 175.667C1236.91 175.667 1238.17 175.538 1239.81 175.281ZM1247.15 165.833H1245.83C1245.24 165.833 1244.81 165.861 1244.53 165.917C1244.07 166.014 1243.69 166.247 1243.41 166.615C1243.12 166.983 1242.98 167.431 1242.98 167.958C1242.98 168.486 1243.12 168.934 1243.41 169.302C1243.69 169.67 1244.07 169.903 1244.53 170C1244.8 170.056 1245.24 170.083 1245.83 170.083H1247.15V165.833ZM1249.81 163.333V178H1247.15V172.583H1245.85C1245.38 172.583 1245.03 172.58 1244.82 172.573L1242.89 178H1240.05L1242.34 171.885C1241.72 171.49 1241.22 170.955 1240.85 170.281C1240.49 169.601 1240.31 168.826 1240.31 167.958C1240.31 166.806 1240.62 165.833 1241.24 165.042C1241.86 164.243 1242.67 163.726 1243.66 163.49C1244.09 163.385 1244.83 163.333 1245.85 163.333H1249.81ZM1266.28 169.375C1266.8 169.375 1267.14 169.354 1267.3 169.312C1267.68 169.222 1267.98 169.028 1268.2 168.729C1268.43 168.424 1268.54 168.049 1268.54 167.604C1268.54 167.167 1268.43 166.795 1268.2 166.49C1267.97 166.184 1267.67 165.99 1267.3 165.906C1267.08 165.858 1266.74 165.833 1266.28 165.833H1265.82V169.375H1266.28ZM1269.54 170.417C1270.26 170.625 1270.81 171.052 1271.21 171.698C1271.61 172.337 1271.81 173.104 1271.81 174C1271.81 174.972 1271.56 175.806 1271.04 176.5C1270.53 177.188 1269.88 177.632 1269.06 177.833C1268.62 177.944 1267.88 178 1266.84 178H1263.16V163.333H1266.28C1267.18 163.333 1267.82 163.378 1268.2 163.469C1269.05 163.67 1269.75 164.111 1270.29 164.792C1270.83 165.472 1271.1 166.306 1271.1 167.292C1271.1 168.757 1270.58 169.764 1269.54 170.312V170.417ZM1265.82 171.875V175.5H1266.85C1267.48 175.5 1267.9 175.472 1268.1 175.417C1268.45 175.326 1268.73 175.128 1268.94 174.823C1269.15 174.51 1269.25 174.132 1269.25 173.688C1269.25 173.243 1269.15 172.865 1268.94 172.552C1268.73 172.24 1268.45 172.042 1268.1 171.958C1267.87 171.903 1267.45 171.875 1266.85 171.875H1265.82ZM1286.5 178H1283.83V163.333H1286.5V169.062L1289.58 163.333H1292.59L1289.1 169.479L1293.56 178H1290.57L1287.31 171.635L1286.5 173.01V178ZM1297.16 167.979C1297.06 168.549 1297.01 169.444 1297.01 170.667C1297.01 171.889 1297.06 172.785 1297.16 173.354C1297.29 174.028 1297.52 174.583 1297.85 175.021C1298.19 175.451 1298.63 175.667 1299.17 175.667C1299.71 175.667 1300.15 175.451 1300.48 175.021C1300.82 174.583 1301.06 174.028 1301.18 173.354C1301.29 172.778 1301.34 171.882 1301.34 170.667C1301.34 169.444 1301.29 168.549 1301.18 167.979C1301.06 167.306 1300.82 166.753 1300.48 166.323C1300.15 165.885 1299.71 165.667 1299.17 165.667C1298.63 165.667 1298.19 165.885 1297.85 166.323C1297.52 166.753 1297.29 167.306 1297.16 167.979ZM1294.63 174.302C1294.44 173.531 1294.34 172.319 1294.34 170.667C1294.34 169.014 1294.44 167.802 1294.63 167.031C1294.91 165.906 1295.43 164.983 1296.2 164.26C1296.97 163.531 1297.96 163.167 1299.17 163.167C1300.38 163.167 1301.37 163.531 1302.14 164.26C1302.91 164.983 1303.44 165.906 1303.71 167.031C1303.91 167.802 1304.01 169.014 1304.01 170.667C1304.01 172.319 1303.91 173.531 1303.71 174.302C1303.44 175.427 1302.91 176.354 1302.14 177.083C1301.37 177.806 1300.38 178.167 1299.17 178.167C1297.96 178.167 1296.97 177.806 1296.2 177.083C1295.43 176.354 1294.91 175.427 1294.63 174.302ZM1307.99 175.5H1310.51V165.833H1309.18C1309.16 169.708 1308.77 172.931 1307.99 175.5ZM1305.29 175.5C1305.58 174.556 1305.81 173.604 1305.98 172.646C1306.15 171.681 1306.27 170.642 1306.34 169.531C1306.42 168.413 1306.47 167.451 1306.48 166.646C1306.5 165.833 1306.51 164.729 1306.51 163.333H1313.18V175.5H1314.51V180.667H1311.84V178H1306.51V180.667H1303.84V175.5H1305.29ZM1316.52 163.333H1324.52V165.833H1319.18V169.375H1323.18V171.875H1319.18V175.5H1324.52V178H1316.52V163.333Z" fill="black"/>
<path d="M48.6667 762.323C49.7986 762.552 50.7847 762.667 51.625 762.667C51.9236 762.667 52.1736 762.608 52.375 762.49C52.5764 762.372 52.7257 762.198 52.8229 761.969C52.9201 761.74 52.9861 761.497 53.0208 761.24C53.0625 760.983 53.0833 760.677 53.0833 760.323C53.0833 758.774 52.6736 758 51.8542 758C51.4097 758 51.066 758.135 50.8229 758.406L48.6667 757.844V750.333H55.3333V752.833H51.3333V756.083H51.4375C51.8611 755.812 52.3194 755.677 52.8125 755.677C54.7153 755.677 55.6667 757.233 55.6667 760.344C55.6667 761.983 55.3472 763.198 54.7083 763.99C54.0764 764.774 53.1181 765.167 51.8333 765.167C50.9861 765.167 49.9306 765.059 48.6667 764.844V762.323ZM62.526 755.865C62.8177 755.622 63.1649 755.5 63.5677 755.5C64.3385 755.5 64.9323 755.781 65.349 756.344C66.0087 757.226 66.3385 758.556 66.3385 760.333C66.3385 761.562 66.2274 762.479 66.0052 763.083C65.776 763.715 65.3941 764.222 64.8594 764.604C64.3316 764.979 63.6927 765.167 62.9427 765.167C62.1024 765.167 61.408 764.983 60.8594 764.615C60.3108 764.24 59.9149 763.729 59.6719 763.083C59.533 762.715 59.4427 762.333 59.401 761.938C59.3594 761.542 59.3385 761.01 59.3385 760.344C59.3385 758.226 59.4878 756.58 59.7865 755.406C60.2378 753.649 61.2726 751.833 62.8906 749.958L64.9219 751.635C64.283 752.378 63.7587 753.069 63.349 753.708C62.9392 754.347 62.6302 755.052 62.4219 755.823L62.526 755.865ZM63.3281 762.354C63.5573 762 63.6719 761.326 63.6719 760.333C63.6719 759.34 63.5573 758.667 63.3281 758.312C63.1962 758.104 63.033 758 62.8385 758C62.6441 758 62.4809 758.104 62.349 758.312C62.1198 758.667 62.0052 759.34 62.0052 760.333C62.0052 761.326 62.1198 762 62.349 762.354C62.4809 762.562 62.6441 762.667 62.8385 762.667C63.033 762.667 63.1962 762.562 63.3281 762.354ZM71.4062 749.75C71.9132 749.236 72.559 748.979 73.3438 748.979C74.1285 748.979 74.7708 749.236 75.2708 749.75C75.7778 750.264 76.0312 750.903 76.0312 751.667C76.0312 752.431 75.7778 753.069 75.2708 753.583C74.7708 754.097 74.1285 754.354 73.3438 754.354C72.559 754.354 71.9132 754.097 71.4062 753.583C70.9062 753.069 70.6562 752.431 70.6562 751.667C70.6562 750.903 70.9062 750.264 71.4062 749.75ZM74.0208 750.917C73.8472 750.736 73.6215 750.646 73.3438 750.646C73.066 750.646 72.8403 750.736 72.6667 750.917C72.4931 751.09 72.4062 751.34 72.4062 751.667C72.4062 751.993 72.4931 752.247 72.6667 752.427C72.8403 752.601 73.066 752.688 73.3438 752.688C73.6215 752.688 73.8472 752.601 74.0208 752.427C74.1944 752.247 74.2812 751.993 74.2812 751.667C74.2812 751.34 74.1944 751.09 74.0208 750.917ZM70.3854 752.406C70.9549 750.899 71.941 750.146 73.3438 750.146C74.7465 750.146 75.7326 750.899 76.3021 752.406C76.4271 752.747 76.5208 753.215 76.5833 753.812C76.6458 754.41 76.6806 754.955 76.6875 755.448C76.7014 755.934 76.7083 756.674 76.7083 757.667C76.7083 758.66 76.7014 759.403 76.6875 759.896C76.6806 760.382 76.6458 760.924 76.5833 761.521C76.5208 762.118 76.4271 762.587 76.3021 762.927C75.7326 764.434 74.7465 765.188 73.3438 765.188C71.941 765.188 70.9549 764.434 70.3854 762.927C70.2604 762.587 70.1667 762.118 70.1042 761.521C70.0417 760.924 70.0035 760.382 69.9896 759.896C69.9826 759.403 69.9792 758.66 69.9792 757.667C69.9792 756.674 69.9826 755.934 69.9896 755.448C70.0035 754.955 70.0417 754.41 70.1042 753.812C70.1667 753.215 70.2604 752.747 70.3854 752.406ZM73.3438 752.688C73.0451 752.688 72.8333 753.125 72.7083 754C72.6389 754.465 72.6042 755.687 72.6042 757.667V758.76L74 754.167C73.9514 753.757 73.8715 753.41 73.7604 753.125C73.6493 752.833 73.5104 752.688 73.3438 752.688ZM72.6875 761.167C72.7361 761.576 72.816 761.927 72.9271 762.219C73.0382 762.503 73.1771 762.646 73.3438 762.646C73.6424 762.646 73.8542 762.208 73.9792 761.333C74.0486 760.868 74.0833 759.646 74.0833 757.667V756.573L72.6875 761.167ZM81.0573 752.406C81.6267 750.899 82.6128 750.146 84.0156 750.146C85.4184 750.146 86.4045 750.899 86.974 752.406C87.099 752.747 87.1927 753.215 87.2552 753.812C87.3177 754.41 87.3524 754.955 87.3594 755.448C87.3733 755.934 87.3802 756.674 87.3802 757.667C87.3802 758.66 87.3733 759.403 87.3594 759.896C87.3524 760.382 87.3177 760.924 87.2552 761.521C87.1927 762.118 87.099 762.587 86.974 762.927C86.4045 764.434 85.4184 765.188 84.0156 765.188C82.6128 765.188 81.6267 764.434 81.0573 762.927C80.9323 762.587 80.8385 762.118 80.776 761.521C80.7135 760.924 80.6753 760.382 80.6615 759.896C80.6545 759.403 80.651 758.66 80.651 757.667C80.651 756.674 80.6545 755.934 80.6615 755.448C80.6753 754.955 80.7135 754.41 80.776 753.812C80.8385 753.215 80.9323 752.747 81.0573 752.406ZM84.0156 752.688C83.717 752.688 83.5052 753.125 83.3802 754C83.3108 754.465 83.276 755.687 83.276 757.667V758.76L84.6719 754.167C84.6233 753.757 84.5434 753.41 84.4323 753.125C84.3212 752.833 84.1823 752.688 84.0156 752.688ZM83.3594 761.167C83.408 761.576 83.4878 761.927 83.599 762.219C83.7101 762.503 83.849 762.646 84.0156 762.646C84.3142 762.646 84.526 762.208 84.651 761.333C84.7205 760.868 84.7552 759.646 84.7552 757.667V756.573L83.3594 761.167ZM91.4875 753.576H93.6635L90.9595 757.704H89.4235L91.4875 753.576ZM114.87 762.281V764.781C113.446 765.038 112.193 765.167 111.109 765.167C109.63 765.167 108.436 764.812 107.526 764.104C106.623 763.389 106.012 762.424 105.693 761.208C105.477 760.361 105.37 759.181 105.37 757.667C105.37 756.153 105.477 754.972 105.693 754.125C106.019 752.903 106.62 751.937 107.495 751.229C108.37 750.521 109.54 750.167 111.005 750.167C112.116 750.167 113.3 750.267 114.557 750.469V752.969C112.988 752.767 111.814 752.667 111.036 752.667C109.502 752.667 108.547 753.465 108.172 755.062C108.026 755.694 107.953 756.562 107.953 757.667C107.953 758.771 108.026 759.639 108.172 760.271C108.554 761.868 109.533 762.667 111.109 762.667C111.977 762.667 113.231 762.538 114.87 762.281ZM118.875 761.25H122.875V765H118.875V761.25ZM126.88 765V750.333H129.547V762.5H130.88V750.333H132.214V762.5H133.547V750.333H136.214V765H126.88ZM140.219 761.25H144.219V765H140.219V761.25ZM163.146 750.333H165.562V765H162.896V753.479H162.792L161.552 754.385L160.229 752.458L163.146 750.333ZM171.276 752.406C171.845 750.899 172.832 750.146 174.234 750.146C175.637 750.146 176.623 750.899 177.193 752.406C177.318 752.747 177.411 753.215 177.474 753.812C177.536 754.41 177.571 754.955 177.578 755.448C177.592 755.934 177.599 756.674 177.599 757.667C177.599 758.66 177.592 759.403 177.578 759.896C177.571 760.382 177.536 760.924 177.474 761.521C177.411 762.118 177.318 762.587 177.193 762.927C176.623 764.434 175.637 765.188 174.234 765.188C172.832 765.188 171.845 764.434 171.276 762.927C171.151 762.587 171.057 762.118 170.995 761.521C170.932 760.924 170.894 760.382 170.88 759.896C170.873 759.403 170.87 758.66 170.87 757.667C170.87 756.674 170.873 755.934 170.88 755.448C170.894 754.955 170.932 754.41 170.995 753.812C171.057 753.215 171.151 752.747 171.276 752.406ZM174.234 752.688C173.936 752.688 173.724 753.125 173.599 754C173.53 754.465 173.495 755.687 173.495 757.667V758.76L174.891 754.167C174.842 753.757 174.762 753.41 174.651 753.125C174.54 752.833 174.401 752.688 174.234 752.688ZM173.578 761.167C173.627 761.576 173.707 761.927 173.818 762.219C173.929 762.503 174.068 762.646 174.234 762.646C174.533 762.646 174.745 762.208 174.87 761.333C174.939 760.868 174.974 759.646 174.974 757.667V756.573L173.578 761.167ZM182.969 749.75C183.476 749.236 184.122 748.979 184.906 748.979C185.691 748.979 186.333 749.236 186.833 749.75C187.34 750.264 187.594 750.903 187.594 751.667C187.594 752.431 187.34 753.069 186.833 753.583C186.333 754.097 185.691 754.354 184.906 754.354C184.122 754.354 183.476 754.097 182.969 753.583C182.469 753.069 182.219 752.431 182.219 751.667C182.219 750.903 182.469 750.264 182.969 749.75ZM185.583 750.917C185.41 750.736 185.184 750.646 184.906 750.646C184.628 750.646 184.403 750.736 184.229 750.917C184.056 751.09 183.969 751.34 183.969 751.667C183.969 751.993 184.056 752.247 184.229 752.427C184.403 752.601 184.628 752.688 184.906 752.688C185.184 752.688 185.41 752.601 185.583 752.427C185.757 752.247 185.844 751.993 185.844 751.667C185.844 751.34 185.757 751.09 185.583 750.917ZM181.948 752.406C182.517 750.899 183.503 750.146 184.906 750.146C186.309 750.146 187.295 750.899 187.865 752.406C187.99 752.747 188.083 753.215 188.146 753.812C188.208 754.41 188.243 754.955 188.25 755.448C188.264 755.934 188.271 756.674 188.271 757.667C188.271 758.66 188.264 759.403 188.25 759.896C188.243 760.382 188.208 760.924 188.146 761.521C188.083 762.118 187.99 762.587 187.865 762.927C187.295 764.434 186.309 765.188 184.906 765.188C183.503 765.188 182.517 764.434 181.948 762.927C181.823 762.587 181.729 762.118 181.667 761.521C181.604 760.924 181.566 760.382 181.552 759.896C181.545 759.403 181.542 758.66 181.542 757.667C181.542 756.674 181.545 755.934 181.552 755.448C181.566 754.955 181.604 754.41 181.667 753.812C181.729 753.215 181.823 752.747 181.948 752.406ZM184.906 752.688C184.608 752.688 184.396 753.125 184.271 754C184.201 754.465 184.167 755.687 184.167 757.667V758.76L185.562 754.167C185.514 753.757 185.434 753.41 185.323 753.125C185.212 752.833 185.073 752.688 184.906 752.688ZM184.25 761.167C184.299 761.576 184.378 761.927 184.49 762.219C184.601 762.503 184.74 762.646 184.906 762.646C185.205 762.646 185.417 762.208 185.542 761.333C185.611 760.868 185.646 759.646 185.646 757.667V756.573L184.25 761.167ZM192.62 752.406C193.189 750.899 194.175 750.146 195.578 750.146C196.981 750.146 197.967 750.899 198.536 752.406C198.661 752.747 198.755 753.215 198.818 753.812C198.88 754.41 198.915 754.955 198.922 755.448C198.936 755.934 198.943 756.674 198.943 757.667C198.943 758.66 198.936 759.403 198.922 759.896C198.915 760.382 198.88 760.924 198.818 761.521C198.755 762.118 198.661 762.587 198.536 762.927C197.967 764.434 196.981 765.188 195.578 765.188C194.175 765.188 193.189 764.434 192.62 762.927C192.495 762.587 192.401 762.118 192.339 761.521C192.276 760.924 192.238 760.382 192.224 759.896C192.217 759.403 192.214 758.66 192.214 757.667C192.214 756.674 192.217 755.934 192.224 755.448C192.238 754.955 192.276 754.41 192.339 753.812C192.401 753.215 192.495 752.747 192.62 752.406ZM195.578 752.688C195.28 752.688 195.068 753.125 194.943 754C194.873 754.465 194.839 755.687 194.839 757.667V758.76L196.234 754.167C196.186 753.757 196.106 753.41 195.995 753.125C195.884 752.833 195.745 752.688 195.578 752.688ZM194.922 761.167C194.97 761.576 195.05 761.927 195.161 762.219C195.273 762.503 195.411 762.646 195.578 762.646C195.877 762.646 196.089 762.208 196.214 761.333C196.283 760.868 196.318 759.646 196.318 757.667V756.573L194.922 761.167ZM203.05 753.576H205.226L202.522 757.704H200.986L203.05 753.576ZM220.891 756.375C221.411 756.375 221.752 756.354 221.911 756.312C222.286 756.222 222.585 756.028 222.807 755.729C223.036 755.424 223.151 755.049 223.151 754.604C223.151 754.167 223.036 753.795 222.807 753.49C222.578 753.184 222.28 752.99 221.911 752.906C221.689 752.858 221.349 752.833 220.891 752.833H220.432V756.375H220.891ZM224.151 757.417C224.866 757.625 225.422 758.052 225.818 758.698C226.22 759.337 226.422 760.104 226.422 761C226.422 761.972 226.165 762.806 225.651 763.5C225.144 764.188 224.484 764.632 223.672 764.833C223.227 764.944 222.488 765 221.453 765H217.766V750.333H220.891C221.786 750.333 222.425 750.378 222.807 750.469C223.661 750.67 224.359 751.111 224.901 751.792C225.443 752.472 225.714 753.306 225.714 754.292C225.714 755.757 225.193 756.764 224.151 757.312V757.417ZM220.432 758.875V762.5H221.464C222.089 762.5 222.505 762.472 222.714 762.417C223.061 762.326 223.339 762.128 223.547 761.823C223.755 761.51 223.859 761.132 223.859 760.688C223.859 760.243 223.755 759.865 223.547 759.552C223.339 759.24 223.061 759.042 222.714 758.958C222.477 758.903 222.061 758.875 221.464 758.875H220.432ZM230.438 761.25H234.438V765H230.438V761.25ZM241.255 762.5H243.776V752.833H242.443C242.429 756.708 242.033 759.931 241.255 762.5ZM238.557 762.5C238.842 761.556 239.071 760.604 239.245 759.646C239.418 758.681 239.54 757.642 239.609 756.531C239.686 755.413 239.731 754.451 239.745 753.646C239.766 752.833 239.776 751.729 239.776 750.333H246.443V762.5H247.776V767.667H245.109V765H239.776V767.667H237.109V762.5H238.557ZM266.547 748.969L267.641 751.167C265.085 752.333 263.807 754.503 263.807 757.677C263.807 760.851 265.085 763.021 267.641 764.188L266.547 766.385C264.839 765.622 263.509 764.503 262.557 763.031C261.613 761.559 261.141 759.774 261.141 757.677C261.141 755.58 261.613 753.795 262.557 752.323C263.509 750.851 264.839 749.733 266.547 748.969ZM273.271 762.5H275.792V752.833H274.458C274.444 756.708 274.049 759.931 273.271 762.5ZM270.573 762.5C270.858 761.556 271.087 760.604 271.26 759.646C271.434 758.681 271.556 757.642 271.625 756.531C271.701 755.413 271.747 754.451 271.76 753.646C271.781 752.833 271.792 751.729 271.792 750.333H278.458V762.5H279.792V767.667H277.125V765H271.792V767.667H269.125V762.5H270.573ZM287.307 759.667C286.905 757.049 286.418 754.691 285.849 752.594H285.745C285.182 754.67 284.696 757.028 284.286 759.667H287.307ZM283.734 750.333H287.859C289.054 754.069 290.002 758.958 290.703 765H288.005C287.922 764.042 287.807 763.097 287.661 762.167H283.932C283.786 763.097 283.672 764.042 283.589 765H280.891C281.592 758.958 282.54 754.069 283.734 750.333ZM291.802 750.333H294.469V756.458H298.469V750.333H301.135V765H298.469V758.958H294.469V765H291.802V750.333ZM309.141 765V755.646H309.036L305.141 765H302.474V750.333H305.141V759.688H305.245L309.151 750.333H311.807V765H309.141ZM319.146 752.833H317.833C317.243 752.833 316.809 752.861 316.531 752.917C316.066 753.014 315.691 753.247 315.406 753.615C315.122 753.983 314.979 754.431 314.979 754.958C314.979 755.486 315.122 755.934 315.406 756.302C315.691 756.67 316.066 756.903 316.531 757C316.802 757.056 317.236 757.083 317.833 757.083H319.146V752.833ZM321.812 750.333V765H319.146V759.583H317.854C317.375 759.583 317.031 759.58 316.823 759.573L314.885 765H312.052L314.344 758.885C313.719 758.49 313.222 757.955 312.854 757.281C312.493 756.601 312.312 755.826 312.312 754.958C312.312 753.806 312.622 752.833 313.24 752.042C313.865 751.243 314.67 750.726 315.656 750.49C316.094 750.385 316.826 750.333 317.854 750.333H321.812ZM326.411 748.969C328.12 749.733 329.446 750.851 330.391 752.323C331.342 753.795 331.818 755.58 331.818 757.677C331.818 759.774 331.342 761.559 330.391 763.031C329.446 764.503 328.12 765.622 326.411 766.385L325.318 764.188C327.873 763.021 329.151 760.851 329.151 757.677C329.151 754.503 327.873 752.333 325.318 751.167L326.411 748.969ZM345.161 757.083H354.495V759.583H345.161V757.083ZM369.172 752.833V757.083H370.484C371.082 757.083 371.516 757.056 371.786 757C372.259 756.903 372.634 756.67 372.911 756.302C373.196 755.934 373.339 755.486 373.339 754.958C373.339 754.431 373.196 753.983 372.911 753.615C372.634 753.247 372.259 753.014 371.786 752.917C371.516 752.861 371.082 752.833 370.484 752.833H369.172ZM366.505 750.333H370.464C371.491 750.333 372.224 750.385 372.661 750.49C373.648 750.726 374.45 751.243 375.068 752.042C375.693 752.833 376.005 753.806 376.005 754.958C376.005 756.111 375.693 757.087 375.068 757.885C374.45 758.677 373.648 759.191 372.661 759.427C372.224 759.531 371.491 759.583 370.464 759.583H369.172V765H366.505V750.333ZM379.833 754.979C379.729 755.549 379.677 756.444 379.677 757.667C379.677 758.889 379.729 759.785 379.833 760.354C379.958 761.028 380.188 761.583 380.521 762.021C380.861 762.451 381.302 762.667 381.844 762.667C382.385 762.667 382.823 762.451 383.156 762.021C383.497 761.583 383.729 761.028 383.854 760.354C383.958 759.778 384.01 758.882 384.01 757.667C384.01 756.444 383.958 755.549 383.854 754.979C383.729 754.306 383.497 753.753 383.156 753.323C382.823 752.885 382.385 752.667 381.844 752.667C381.302 752.667 380.861 752.885 380.521 753.323C380.188 753.753 379.958 754.306 379.833 754.979ZM377.302 761.302C377.108 760.531 377.01 759.319 377.01 757.667C377.01 756.014 377.108 754.802 377.302 754.031C377.58 752.906 378.104 751.983 378.875 751.26C379.646 750.531 380.635 750.167 381.844 750.167C383.052 750.167 384.042 750.531 384.812 751.26C385.583 751.983 386.108 752.906 386.385 754.031C386.58 754.802 386.677 756.014 386.677 757.667C386.677 759.319 386.58 760.531 386.385 761.302C386.108 762.427 385.583 763.354 384.812 764.083C384.042 764.806 383.052 765.167 381.844 765.167C380.635 765.167 379.646 764.806 378.875 764.083C378.104 763.354 377.58 762.427 377.302 761.302ZM390.661 762.5H393.182V752.833H391.849C391.835 756.708 391.439 759.931 390.661 762.5ZM387.964 762.5C388.248 761.556 388.477 760.604 388.651 759.646C388.825 758.681 388.946 757.642 389.016 756.531C389.092 755.413 389.137 754.451 389.151 753.646C389.172 752.833 389.182 751.729 389.182 750.333H395.849V762.5H397.182V767.667H394.516V765H389.182V767.667H386.516V762.5H387.964ZM405.188 765V755.646H405.083L401.188 765H398.521V750.333H401.188V759.688H401.292L405.198 750.333H407.854V765H405.188ZM409.193 750.333H411.859V756.458H415.859V750.333H418.526V765H415.859V758.958H411.859V765H409.193V750.333ZM426.042 759.667C425.639 757.049 425.153 754.691 424.583 752.594H424.479C423.917 754.67 423.431 757.028 423.021 759.667H426.042ZM422.469 750.333H426.594C427.788 754.069 428.736 758.958 429.438 765H426.74C426.656 764.042 426.542 763.097 426.396 762.167H422.667C422.521 763.097 422.406 764.042 422.323 765H419.625C420.326 758.958 421.274 754.069 422.469 750.333ZM443.875 765H441.208V750.333H443.875L445.823 754.896H445.938L447.875 750.333H450.542V765H447.875V755.667H447.771L446.448 758.333H445.302L443.979 755.625H443.875V765ZM454.536 754.979C454.432 755.549 454.38 756.444 454.38 757.667C454.38 758.889 454.432 759.785 454.536 760.354C454.661 761.028 454.891 761.583 455.224 762.021C455.564 762.451 456.005 762.667 456.547 762.667C457.089 762.667 457.526 762.451 457.859 762.021C458.2 761.583 458.432 761.028 458.557 760.354C458.661 759.778 458.714 758.882 458.714 757.667C458.714 756.444 458.661 755.549 458.557 754.979C458.432 754.306 458.2 753.753 457.859 753.323C457.526 752.885 457.089 752.667 456.547 752.667C456.005 752.667 455.564 752.885 455.224 753.323C454.891 753.753 454.661 754.306 454.536 754.979ZM452.005 761.302C451.811 760.531 451.714 759.319 451.714 757.667C451.714 756.014 451.811 754.802 452.005 754.031C452.283 752.906 452.807 751.983 453.578 751.26C454.349 750.531 455.339 750.167 456.547 750.167C457.755 750.167 458.745 750.531 459.516 751.26C460.286 751.983 460.811 752.906 461.089 754.031C461.283 754.802 461.38 756.014 461.38 757.667C461.38 759.319 461.283 760.531 461.089 761.302C460.811 762.427 460.286 763.354 459.516 764.083C458.745 764.806 457.755 765.167 456.547 765.167C455.339 765.167 454.349 764.806 453.578 764.083C452.807 763.354 452.283 762.427 452.005 761.302ZM465.885 765H463.219V750.333H465.875L468.448 758.646H468.552V750.333H471.219V765H468.552L465.99 756.688H465.885V765ZM475.88 754.979C475.776 755.549 475.724 756.444 475.724 757.667C475.724 758.889 475.776 759.785 475.88 760.354C476.005 761.028 476.234 761.583 476.568 762.021C476.908 762.451 477.349 762.667 477.891 762.667C478.432 762.667 478.87 762.451 479.203 762.021C479.543 761.583 479.776 761.028 479.901 760.354C480.005 759.778 480.057 758.882 480.057 757.667C480.057 756.444 480.005 755.549 479.901 754.979C479.776 754.306 479.543 753.753 479.203 753.323C478.87 752.885 478.432 752.667 477.891 752.667C477.349 752.667 476.908 752.885 476.568 753.323C476.234 753.753 476.005 754.306 475.88 754.979ZM473.349 761.302C473.155 760.531 473.057 759.319 473.057 757.667C473.057 756.014 473.155 754.802 473.349 754.031C473.627 752.906 474.151 751.983 474.922 751.26C475.693 750.531 476.682 750.167 477.891 750.167C479.099 750.167 480.089 750.531 480.859 751.26C481.63 751.983 482.155 752.906 482.432 754.031C482.627 754.802 482.724 756.014 482.724 757.667C482.724 759.319 482.627 760.531 482.432 761.302C482.155 762.427 481.63 763.354 480.859 764.083C480.089 764.806 479.099 765.167 477.891 765.167C476.682 765.167 475.693 764.806 474.922 764.083C474.151 763.354 473.627 762.427 473.349 761.302ZM492.562 750.333V752.833H489.896V762.5H492.562V765H484.562V762.5H487.229V752.833H484.562V750.333H492.562ZM498.172 750.333C500.408 750.333 502.036 751.156 503.057 752.802C503.453 753.427 503.72 754.135 503.859 754.927C503.998 755.719 504.068 756.632 504.068 757.667C504.068 758.701 503.998 759.615 503.859 760.406C503.72 761.198 503.453 761.906 503.057 762.531C502.036 764.177 500.408 765 498.172 765H494.568V750.333H498.172ZM500.807 761.167C501.203 760.5 501.401 759.333 501.401 757.667C501.401 756 501.203 754.833 500.807 754.167C500.286 753.278 499.481 752.833 498.391 752.833H497.234V762.5H498.391C499.481 762.5 500.286 762.056 500.807 761.167Z" fill="black"/>
<path d="M46 726L1394 726" stroke="black" stroke-dasharray="6 6"/>
<path d="M46 107L1394 107" stroke="black" stroke-dasharray="6 6"/>
<path d="M606 451.333L720.333 337M720.333 337L834.667 451.333M720.333 337V680M606 565.667L720.333 451.333L834.667 565.667M606 680L720.333 565.667L834.667 680" stroke="#35A9FF" stroke-width="35" stroke-miterlimit="10"/>
<path d="M606 451.333L720.333 337M720.333 337L834.667 451.333M720.333 337V680M606 565.667L720.333 451.333L834.667 565.667M606 680L720.333 565.667L834.667 680" stroke="black" stroke-width="3" stroke-miterlimit="10" stroke-dasharray="6 6"/>
<path d="M1103.92 464.896V531.302H1114.01C1123.34 531.302 1130.12 530.868 1134.35 530C1141.62 528.481 1147.48 524.846 1151.93 519.095C1156.38 513.344 1158.6 506.345 1158.6 498.099C1158.6 489.852 1156.38 482.854 1151.93 477.103C1147.48 471.352 1141.62 467.717 1134.35 466.198C1130.01 465.33 1123.23 464.896 1114.01 464.896H1103.92ZM1062.25 425.833H1113.68C1129.74 425.833 1141.19 426.647 1148.02 428.275C1163.43 431.964 1175.97 440.048 1185.62 452.526C1195.39 464.896 1200.27 480.087 1200.27 498.099C1200.27 511.662 1197.4 523.761 1191.64 534.395C1186 544.92 1178.3 553.275 1168.53 559.46L1204.34 655H1160.07L1129.8 570.202C1126.54 570.31 1121.17 570.365 1113.68 570.365H1103.92V655H1062.25V425.833Z" fill="black"/>
<path d="M336.121 541.393C345.561 544.974 352.234 549.965 356.141 556.367C360.047 562.769 362 571.992 362 584.036V625.215C362 630.423 363.736 634.112 367.208 636.283C370.681 638.344 375.889 639.375 382.833 639.375V678.438C363.411 678.438 348.111 674.097 336.935 665.417C325.867 656.736 320.333 643.336 320.333 625.215V584.036C320.333 575.247 316.807 569.062 309.754 565.482C302.809 561.901 292.447 560.111 278.667 560.111V521.048C292.447 521.048 302.809 519.258 309.754 515.677C316.807 512.096 320.333 505.911 320.333 497.122V455.944C320.333 437.823 325.867 424.423 336.935 415.742C348.111 407.062 363.411 402.721 382.833 402.721V441.784C375.889 441.784 370.681 442.869 367.208 445.039C363.736 447.101 362 450.736 362 455.944V497.122C362 509.167 360.047 518.39 356.141 524.792C352.234 531.194 345.561 536.185 336.121 539.766V541.393Z" fill="black"/>
<path d="M1165 451.333L1279.33 337M1279.33 337L1393.67 451.333M1279.33 337V680M1165 565.667L1279.33 451.333L1393.67 565.667M1165 680L1279.33 565.667L1393.67 680" stroke="#35A9FF" stroke-width="35" stroke-miterlimit="10"/>
<path d="M1165 451.333L1279.33 337M1279.33 337L1393.67 451.333M1279.33 337V680M1165 565.667L1279.33 451.333L1393.67 565.667M1165 680L1279.33 565.667L1393.67 680" stroke="#FFFBF0" stroke-width="3" stroke-miterlimit="10"/>
<rect x="46" y="46" width="171" height="45" fill="#FFFBF0"/>
<path d="M53.9792 61.9583C53.7708 63.0972 53.6667 64.8889 53.6667 67.3333C53.6667 69.7778 53.7708 71.5694 53.9792 72.7083C54.2292 74.0556 54.6875 75.1667 55.3542 76.0417C56.0347 76.9028 56.9167 77.3333 58 77.3333C59.0833 77.3333 59.9583 76.9028 60.625 76.0417C61.3056 75.1667 61.7708 74.0556 62.0208 72.7083C62.2292 71.5556 62.3333 69.7639 62.3333 67.3333C62.3333 64.8889 62.2292 63.0972 62.0208 61.9583C61.7708 60.6111 61.3056 59.5069 60.625 58.6458C59.9583 57.7708 59.0833 57.3333 58 57.3333C56.9167 57.3333 56.0347 57.7708 55.3542 58.6458C54.6875 59.5069 54.2292 60.6111 53.9792 61.9583ZM48.9167 74.6042C48.5278 73.0625 48.3333 70.6389 48.3333 67.3333C48.3333 64.0278 48.5278 61.6042 48.9167 60.0625C49.4722 57.8125 50.5208 55.9653 52.0625 54.5208C53.6042 53.0625 55.5833 52.3333 58 52.3333C60.4167 52.3333 62.3958 53.0625 63.9375 54.5208C65.4792 55.9653 66.5278 57.8125 67.0833 60.0625C67.4722 61.6042 67.6667 64.0278 67.6667 67.3333C67.6667 70.6389 67.4722 73.0625 67.0833 74.6042C66.5278 76.8542 65.4792 78.7083 63.9375 80.1667C62.3958 81.6111 60.4167 82.3333 58 82.3333C55.5833 82.3333 53.6042 81.6111 52.0625 80.1667C50.5208 78.7083 49.4722 76.8542 48.9167 74.6042ZM91.3542 82V52.6667H96.6875V77H99.3542V52.6667H102.021V77H104.688V52.6667H110.021V82H91.3542ZM118.031 57.6667V66.1667H120.656C121.851 66.1667 122.719 66.1111 123.26 66C124.205 65.8056 124.955 65.3403 125.51 64.6042C126.08 63.8681 126.365 62.9722 126.365 61.9167C126.365 60.8611 126.08 59.9653 125.51 59.2292C124.955 58.4931 124.205 58.0278 123.26 57.8333C122.719 57.7222 121.851 57.6667 120.656 57.6667H118.031ZM112.698 52.6667H120.615C122.67 52.6667 124.135 52.7708 125.01 52.9792C126.983 53.4514 128.587 54.4861 129.823 56.0833C131.073 57.6667 131.698 59.6111 131.698 61.9167C131.698 64.2222 131.073 66.1736 129.823 67.7708C128.587 69.3542 126.983 70.3819 125.01 70.8542C124.135 71.0625 122.67 71.1667 120.615 71.1667H118.031V82H112.698V52.6667ZM147.375 82V63.2917H147.167L139.375 82H134.042V52.6667H139.375V71.375H139.583L147.396 52.6667H152.708V82H147.375ZM155.74 73.25C155.281 71.75 155.052 69.7778 155.052 67.3333C155.052 64.8889 155.281 62.9167 155.74 61.4167C156.226 59.8611 157.003 58.5486 158.073 57.4792C159.142 56.4097 160.469 55.6806 162.052 55.2917V52.6667H167.385V55.2917C168.969 55.6806 170.295 56.4097 171.365 57.4792C172.434 58.5486 173.212 59.8611 173.698 61.4167C174.156 62.9167 174.385 64.8889 174.385 67.3333C174.385 69.7778 174.156 71.75 173.698 73.25C173.212 74.8056 172.434 76.1181 171.365 77.1875C170.295 78.2569 168.969 78.9861 167.385 79.375V81.5625H162.052V79.375C160.469 78.9861 159.142 78.2569 158.073 77.1875C157.003 76.1181 156.226 74.8056 155.74 73.25ZM161.052 62.3333C160.608 63.5556 160.385 65.2222 160.385 67.3333C160.385 69.4444 160.608 71.1181 161.052 72.3542C161.497 73.5764 162.274 74.3125 163.385 74.5625V60.1042C162.274 60.3542 161.497 61.0972 161.052 62.3333ZM166.052 74.5625C167.163 74.3125 167.941 73.5764 168.385 72.3542C168.83 71.1181 169.052 69.4444 169.052 67.3333C169.052 65.2222 168.83 63.5556 168.385 62.3333C167.941 61.0972 167.163 60.3542 166.052 60.1042V74.5625ZM195.396 52.6667V57.6667H188.729V82H183.396V57.6667H176.729V52.6667H195.396ZM199.406 52.6667H215.406V57.6667H204.74V64.75H212.74V69.75H204.74V77H215.406V82H199.406V52.6667Z" fill="black"/>
<rect x="84.5" y="233.5" width="19" height="19" stroke="black"/>
<rect x="84.5" y="271.5" width="19" height="19" stroke="black"/>
<rect x="84.5" y="309.5" width="19" height="19" stroke="black"/>
<rect x="84.5" y="347.5" width="19" height="19" stroke="black"/>
<rect x="84.5" y="385.5" width="19" height="19" stroke="black"/>
<rect x="84.5" y="252.5" width="19" height="19" stroke="black"/>
<rect x="84.5" y="290.5" width="19" height="19" stroke="black"/>
<rect x="84.5" y="328.5" width="19" height="19" stroke="black"/>
<rect x="84.5" y="366.5" width="19" height="19" stroke="black"/>
<rect x="84.5" y="404.5" width="19" height="19" stroke="black"/>
<rect x="160.5" y="233.5" width="19" height="19" stroke="black"/>
<rect x="160.5" y="271.5" width="19" height="19" stroke="black"/>
<rect x="160.5" y="309.5" width="19" height="19" stroke="black"/>
<rect x="160.5" y="347.5" width="19" height="19" stroke="black"/>
<rect x="160.5" y="385.5" width="19" height="19" stroke="black"/>
<rect x="160.5" y="252.5" width="19" height="19" stroke="black"/>
<rect x="160.5" y="290.5" width="19" height="19" stroke="black"/>
<rect x="160.5" y="328.5" width="19" height="19" stroke="black"/>
<rect x="160.5" y="366.5" width="19" height="19" stroke="black"/>
<rect x="160.5" y="404.5" width="19" height="19" stroke="black"/>
<rect x="46.5" y="233.5" width="19" height="19" stroke="black"/>
<rect x="46.5" y="271.5" width="19" height="19" stroke="black"/>
<rect x="46.5" y="309.5" width="19" height="19" stroke="black"/>
<rect x="46.5" y="347.5" width="19" height="19" stroke="black"/>
<rect x="46.5" y="385.5" width="19" height="19" stroke="black"/>
<rect x="46.5" y="252.5" width="19" height="19" stroke="black"/>
<rect x="46.5" y="290.5" width="19" height="19" stroke="black"/>
<rect x="46.5" y="328.5" width="19" height="19" stroke="black"/>
<rect x="46.5" y="366.5" width="19" height="19" stroke="black"/>
<rect x="46.5" y="404.5" width="19" height="19" stroke="black"/>
<rect x="122.5" y="233.5" width="19" height="19" stroke="black"/>
<rect x="122.5" y="271.5" width="19" height="19" stroke="black"/>
<rect x="122.5" y="309.5" width="19" height="19" stroke="black"/>
<rect x="122.5" y="347.5" width="19" height="19" stroke="black"/>
<rect x="122.5" y="385.5" width="19" height="19" stroke="black"/>
<rect x="122.5" y="252.5" width="19" height="19" stroke="black"/>
<rect x="122.5" y="290.5" width="19" height="19" stroke="black"/>
<rect x="122.5" y="328.5" width="19" height="19" stroke="black"/>
<rect x="122.5" y="366.5" width="19" height="19" stroke="black"/>
<rect x="122.5" y="404.5" width="19" height="19" stroke="black"/>
<rect x="198.5" y="233.5" width="19" height="19" stroke="black"/>
<rect x="198.5" y="271.5" width="19" height="19" stroke="black"/>
<rect x="198.5" y="309.5" width="19" height="19" stroke="black"/>
<rect x="198.5" y="347.5" width="19" height="19" stroke="black"/>
<rect x="198.5" y="385.5" width="19" height="19" stroke="black"/>
<rect x="198.5" y="252.5" width="19" height="19" stroke="black"/>
<rect x="198.5" y="290.5" width="19" height="19" stroke="black"/>
<rect x="198.5" y="328.5" width="19" height="19" stroke="black"/>
<rect x="198.5" y="366.5" width="19" height="19" stroke="black"/>
<rect x="198.5" y="404.5" width="19" height="19" stroke="black"/>
<rect x="103.5" y="233.5" width="19" height="19" stroke="black"/>
<rect x="103.5" y="271.5" width="19" height="19" stroke="black"/>
<rect x="103.5" y="309.5" width="19" height="19" stroke="black"/>
<rect x="103.5" y="347.5" width="19" height="19" stroke="black"/>
<rect x="103.5" y="385.5" width="19" height="19" stroke="black"/>
<rect x="103.5" y="252.5" width="19" height="19" stroke="black"/>
<rect x="103.5" y="290.5" width="19" height="19" stroke="black"/>
<rect x="103.5" y="328.5" width="19" height="19" stroke="black"/>
<rect x="103.5" y="366.5" width="19" height="19" stroke="black"/>
<rect x="103.5" y="404.5" width="19" height="19" stroke="black"/>
<rect x="179.5" y="233.5" width="19" height="19" stroke="black"/>
<rect x="179.5" y="271.5" width="19" height="19" stroke="black"/>
<rect x="179.5" y="309.5" width="19" height="19" stroke="black"/>
<rect x="179.5" y="347.5" width="19" height="19" stroke="black"/>
<rect x="179.5" y="385.5" width="19" height="19" stroke="black"/>
<rect x="179.5" y="252.5" width="19" height="19" stroke="black"/>
<rect x="179.5" y="290.5" width="19" height="19" stroke="black"/>
<rect x="179.5" y="328.5" width="19" height="19" stroke="black"/>
<rect x="179.5" y="366.5" width="19" height="19" stroke="black"/>
<rect x="179.5" y="404.5" width="19" height="19" stroke="black"/>
<rect x="65.5" y="233.5" width="19" height="19" stroke="black"/>
<rect x="65.5" y="271.5" width="19" height="19" stroke="black"/>
<rect x="65.5" y="309.5" width="19" height="19" stroke="black"/>
<rect x="65.5" y="347.5" width="19" height="19" stroke="black"/>
<rect x="65.5" y="385.5" width="19" height="19" stroke="black"/>
<rect x="65.5" y="252.5" width="19" height="19" stroke="black"/>
<rect x="65.5" y="290.5" width="19" height="19" stroke="black"/>
<rect x="65.5" y="328.5" width="19" height="19" stroke="black"/>
<rect x="65.5" y="366.5" width="19" height="19" stroke="black"/>
<rect x="65.5" y="404.5" width="19" height="19" stroke="black"/>
<rect x="141.5" y="233.5" width="19" height="19" stroke="black"/>
<rect x="141.5" y="271.5" width="19" height="19" stroke="black"/>
<rect x="141.5" y="309.5" width="19" height="19" stroke="black"/>
<rect x="141.5" y="347.5" width="19" height="19" stroke="black"/>
<rect x="141.5" y="385.5" width="19" height="19" stroke="black"/>
<rect x="141.5" y="252.5" width="19" height="19" stroke="black"/>
<rect x="141.5" y="290.5" width="19" height="19" stroke="black"/>
<rect x="141.5" y="328.5" width="19" height="19" stroke="black"/>
<rect x="141.5" y="366.5" width="19" height="19" stroke="black"/>
<rect x="141.5" y="404.5" width="19" height="19" stroke="black"/>
<rect x="217.5" y="233.5" width="19" height="19" stroke="black"/>
<rect x="217.5" y="271.5" width="19" height="19" stroke="black"/>
<rect x="217.5" y="309.5" width="19" height="19" stroke="black"/>
<rect x="217.5" y="347.5" width="19" height="19" stroke="black"/>
<rect x="217.5" y="385.5" width="19" height="19" stroke="black"/>
<rect x="217.5" y="252.5" width="19" height="19" stroke="black"/>
<rect x="217.5" y="290.5" width="19" height="19" stroke="black"/>
<rect x="217.5" y="328.5" width="19" height="19" stroke="black"/>
<rect x="217.5" y="366.5" width="19" height="19" stroke="black"/>
<rect x="217.5" y="404.5" width="19" height="19" stroke="black"/>
</svg>
