<svg width="1440" height="582" viewBox="0 0 1440 582" fill="none" xmlns="http://www.w3.org/2000/svg">
<rect width="1440" height="582" fill="#FFFBF0"/>
<path d="M46 550L1394 550" stroke="black" stroke-dasharray="6 6"/>
<rect x="701" width="3" height="549" fill="#35A9FF"/>
<rect x="900" width="3" height="549" fill="#35A9FF"/>
<path d="M358.833 249.833H400.5V312.333C400.5 326.765 401.694 336.639 404.081 341.956C409.289 353.457 418.512 359.208 431.75 359.208C444.879 359.208 454.102 353.457 459.419 341.956C461.806 336.747 463 326.873 463 312.333V249.833H504.667V479H463V383.622H461.372C452.692 393.388 441.733 398.271 428.495 398.271C411.568 398.271 396.974 393.442 384.712 383.785C372.451 374.128 364.638 361.65 361.275 346.35C359.647 338.972 358.833 327.633 358.833 312.333V249.833Z" fill="black"/>
<rect x="1099" width="3" height="549" fill="#35A9FF"/>
<path d="M654.35 395.667C648.057 354.76 640.461 317.921 631.564 285.152H629.936C621.147 317.596 613.552 354.434 607.15 395.667H654.35ZM598.523 249.833H662.977C681.64 308.21 696.451 384.599 707.41 479H665.255C663.953 464.026 662.163 449.269 659.884 434.729H601.616C599.337 449.269 597.547 464.026 596.245 479H554.09C565.049 384.599 579.86 308.21 598.523 249.833Z" fill="black"/>
<path d="M881.833 479H756.833V249.833H798.5V439.938H819.333V249.833H840.167V439.938H861V249.833H902.667V440.1H923.5V520.667H881.833V479Z" fill="black"/>
<path d="M1052.35 395.667C1046.06 354.76 1038.46 317.921 1029.56 285.152H1027.94C1019.15 317.596 1011.55 354.434 1005.15 395.667H1052.35ZM996.523 249.833H1060.98C1079.64 308.21 1094.45 384.599 1105.41 479H1063.26C1061.95 464.026 1060.16 449.269 1057.88 434.729H999.616C997.337 449.269 995.547 464.026 994.245 479H952.09C963.049 384.599 977.86 308.21 996.523 249.833Z" fill="black"/>
<rect x="502" width="3" height="549" fill="#35A9FF"/>
<rect x="338" y="1" width="3" height="548" fill="#35A9FF"/>
<rect x="537" y="1" width="3" height="548" fill="#35A9FF"/>
<rect x="736" y="1" width="3" height="548" fill="#35A9FF"/>
<rect x="935" y="1" width="3" height="548" fill="#35A9FF"/>
<rect x="84.5" y="313.5" width="19" height="19" stroke="black"/>
<rect x="84.5" y="351.5" width="19" height="19" stroke="black"/>
<rect x="84.5" y="389.5" width="19" height="19" stroke="black"/>
<rect x="84.5" y="427.5" width="19" height="19" stroke="black"/>
<rect x="84.5" y="465.5" width="19" height="19" stroke="black"/>
<rect x="84.5" y="332.5" width="19" height="19" stroke="black"/>
<rect x="84.5" y="370.5" width="19" height="19" stroke="black"/>
<rect x="84.5" y="408.5" width="19" height="19" stroke="black"/>
<rect x="84.5" y="446.5" width="19" height="19" stroke="black"/>
<rect x="84.5" y="484.5" width="19" height="19" stroke="black"/>
<rect x="160.5" y="313.5" width="19" height="19" stroke="black"/>
<rect x="160.5" y="351.5" width="19" height="19" stroke="black"/>
<rect x="160.5" y="389.5" width="19" height="19" stroke="black"/>
<rect x="160.5" y="427.5" width="19" height="19" stroke="black"/>
<rect x="160.5" y="465.5" width="19" height="19" stroke="black"/>
<rect x="160.5" y="332.5" width="19" height="19" stroke="black"/>
<rect x="160.5" y="370.5" width="19" height="19" stroke="black"/>
<rect x="160.5" y="408.5" width="19" height="19" stroke="black"/>
<rect x="160.5" y="446.5" width="19" height="19" stroke="black"/>
<rect x="160.5" y="484.5" width="19" height="19" stroke="black"/>
<rect x="46.5" y="313.5" width="19" height="19" stroke="black"/>
<rect x="46.5" y="351.5" width="19" height="19" stroke="black"/>
<rect x="46.5" y="389.5" width="19" height="19" stroke="black"/>
<rect x="46.5" y="427.5" width="19" height="19" stroke="black"/>
<rect x="46.5" y="465.5" width="19" height="19" stroke="black"/>
<rect x="46.5" y="332.5" width="19" height="19" stroke="black"/>
<rect x="46.5" y="370.5" width="19" height="19" stroke="black"/>
<rect x="46.5" y="408.5" width="19" height="19" stroke="black"/>
<rect x="46.5" y="446.5" width="19" height="19" stroke="black"/>
<rect x="46.5" y="484.5" width="19" height="19" stroke="black"/>
<rect x="122.5" y="313.5" width="19" height="19" stroke="black"/>
<rect x="122.5" y="351.5" width="19" height="19" stroke="black"/>
<rect x="122.5" y="389.5" width="19" height="19" stroke="black"/>
<rect x="122.5" y="427.5" width="19" height="19" stroke="black"/>
<rect x="122.5" y="465.5" width="19" height="19" stroke="black"/>
<rect x="122.5" y="332.5" width="19" height="19" stroke="black"/>
<rect x="122.5" y="370.5" width="19" height="19" stroke="black"/>
<rect x="122.5" y="408.5" width="19" height="19" stroke="black"/>
<rect x="122.5" y="446.5" width="19" height="19" stroke="black"/>
<rect x="122.5" y="484.5" width="19" height="19" stroke="black"/>
<rect x="198.5" y="313.5" width="19" height="19" stroke="black"/>
<rect x="198.5" y="351.5" width="19" height="19" stroke="black"/>
<rect x="198.5" y="389.5" width="19" height="19" stroke="black"/>
<rect x="198.5" y="427.5" width="19" height="19" stroke="black"/>
<rect x="198.5" y="465.5" width="19" height="19" stroke="black"/>
<rect x="198.5" y="332.5" width="19" height="19" stroke="black"/>
<rect x="198.5" y="370.5" width="19" height="19" stroke="black"/>
<rect x="198.5" y="408.5" width="19" height="19" stroke="black"/>
<rect x="198.5" y="446.5" width="19" height="19" stroke="black"/>
<rect x="198.5" y="484.5" width="19" height="19" stroke="black"/>
<rect x="103.5" y="313.5" width="19" height="19" stroke="black"/>
<rect x="103.5" y="351.5" width="19" height="19" stroke="black"/>
<rect x="103.5" y="389.5" width="19" height="19" stroke="black"/>
<rect x="103.5" y="427.5" width="19" height="19" stroke="black"/>
<rect x="103.5" y="465.5" width="19" height="19" stroke="black"/>
<rect x="103.5" y="332.5" width="19" height="19" stroke="black"/>
<rect x="103.5" y="370.5" width="19" height="19" stroke="black"/>
<rect x="103.5" y="408.5" width="19" height="19" stroke="black"/>
<rect x="103.5" y="446.5" width="19" height="19" stroke="black"/>
<rect x="103.5" y="484.5" width="19" height="19" stroke="black"/>
<rect x="179.5" y="313.5" width="19" height="19" stroke="black"/>
<rect x="179.5" y="351.5" width="19" height="19" stroke="black"/>
<rect x="179.5" y="389.5" width="19" height="19" stroke="black"/>
<rect x="179.5" y="427.5" width="19" height="19" stroke="black"/>
<rect x="179.5" y="465.5" width="19" height="19" stroke="black"/>
<rect x="179.5" y="332.5" width="19" height="19" stroke="black"/>
<rect x="179.5" y="370.5" width="19" height="19" stroke="black"/>
<rect x="179.5" y="408.5" width="19" height="19" stroke="black"/>
<rect x="179.5" y="446.5" width="19" height="19" stroke="black"/>
<rect x="179.5" y="484.5" width="19" height="19" stroke="black"/>
<rect x="65.5" y="313.5" width="19" height="19" stroke="black"/>
<rect x="65.5" y="351.5" width="19" height="19" stroke="black"/>
<rect x="65.5" y="389.5" width="19" height="19" stroke="black"/>
<rect x="65.5" y="427.5" width="19" height="19" stroke="black"/>
<rect x="65.5" y="465.5" width="19" height="19" stroke="black"/>
<rect x="65.5" y="332.5" width="19" height="19" stroke="black"/>
<rect x="65.5" y="370.5" width="19" height="19" stroke="black"/>
<rect x="65.5" y="408.5" width="19" height="19" stroke="black"/>
<rect x="65.5" y="446.5" width="19" height="19" stroke="black"/>
<rect x="65.5" y="484.5" width="19" height="19" stroke="black"/>
<rect x="141.5" y="313.5" width="19" height="19" stroke="black"/>
<rect x="141.5" y="351.5" width="19" height="19" stroke="black"/>
<rect x="141.5" y="389.5" width="19" height="19" stroke="black"/>
<rect x="141.5" y="427.5" width="19" height="19" stroke="black"/>
<rect x="141.5" y="465.5" width="19" height="19" stroke="black"/>
<rect x="141.5" y="332.5" width="19" height="19" stroke="black"/>
<rect x="141.5" y="370.5" width="19" height="19" stroke="black"/>
<rect x="141.5" y="408.5" width="19" height="19" stroke="black"/>
<rect x="141.5" y="446.5" width="19" height="19" stroke="black"/>
<rect x="141.5" y="484.5" width="19" height="19" stroke="black"/>
<rect x="217.5" y="313.5" width="19" height="19" stroke="black"/>
<rect x="217.5" y="351.5" width="19" height="19" stroke="black"/>
<rect x="217.5" y="389.5" width="19" height="19" stroke="black"/>
<rect x="217.5" y="427.5" width="19" height="19" stroke="black"/>
<rect x="217.5" y="465.5" width="19" height="19" stroke="black"/>
<rect x="217.5" y="332.5" width="19" height="19" stroke="black"/>
<rect x="217.5" y="370.5" width="19" height="19" stroke="black"/>
<rect x="217.5" y="408.5" width="19" height="19" stroke="black"/>
<rect x="217.5" y="446.5" width="19" height="19" stroke="black"/>
<rect x="217.5" y="484.5" width="19" height="19" stroke="black"/>
<rect x="84.5" y="0.5" width="19" height="19" stroke="black"/>
<rect x="84.5" y="38.5" width="19" height="19" stroke="black"/>
<rect x="84.5" y="76.5" width="19" height="19" stroke="black"/>
<rect x="84.5" y="114.5" width="19" height="19" stroke="black"/>
<rect x="84.5" y="152.5" width="19" height="19" stroke="black"/>
<rect x="84.5" y="19.5" width="19" height="19" stroke="black"/>
<rect x="84.5" y="57.5" width="19" height="19" stroke="black"/>
<rect x="84.5" y="95.5" width="19" height="19" stroke="black"/>
<rect x="84.5" y="133.5" width="19" height="19" stroke="black"/>
<rect x="84.5" y="171.5" width="19" height="19" stroke="black"/>
<rect x="160.5" y="0.5" width="19" height="19" stroke="black"/>
<rect x="160.5" y="38.5" width="19" height="19" stroke="black"/>
<rect x="160.5" y="76.5" width="19" height="19" stroke="black"/>
<rect x="160.5" y="114.5" width="19" height="19" stroke="black"/>
<rect x="160.5" y="152.5" width="19" height="19" stroke="black"/>
<rect x="160.5" y="19.5" width="19" height="19" stroke="black"/>
<rect x="160.5" y="57.5" width="19" height="19" stroke="black"/>
<rect x="160.5" y="95.5" width="19" height="19" stroke="black"/>
<rect x="160.5" y="133.5" width="19" height="19" stroke="black"/>
<rect x="160.5" y="171.5" width="19" height="19" stroke="black"/>
<rect x="46.5" y="0.5" width="19" height="19" stroke="black"/>
<rect x="46.5" y="38.5" width="19" height="19" stroke="black"/>
<rect x="46.5" y="76.5" width="19" height="19" stroke="black"/>
<rect x="46.5" y="114.5" width="19" height="19" stroke="black"/>
<rect x="46.5" y="152.5" width="19" height="19" stroke="black"/>
<rect x="46.5" y="19.5" width="19" height="19" stroke="black"/>
<rect x="46.5" y="57.5" width="19" height="19" stroke="black"/>
<rect x="46.5" y="95.5" width="19" height="19" stroke="black"/>
<rect x="46.5" y="133.5" width="19" height="19" stroke="black"/>
<rect x="46.5" y="171.5" width="19" height="19" stroke="black"/>
<rect x="122.5" y="0.5" width="19" height="19" stroke="black"/>
<rect x="122.5" y="38.5" width="19" height="19" stroke="black"/>
<rect x="122.5" y="76.5" width="19" height="19" stroke="black"/>
<rect x="122.5" y="114.5" width="19" height="19" stroke="black"/>
<rect x="122.5" y="152.5" width="19" height="19" stroke="black"/>
<rect x="122.5" y="19.5" width="19" height="19" stroke="black"/>
<rect x="122.5" y="57.5" width="19" height="19" stroke="black"/>
<rect x="122.5" y="95.5" width="19" height="19" stroke="black"/>
<rect x="122.5" y="133.5" width="19" height="19" stroke="black"/>
<rect x="122.5" y="171.5" width="19" height="19" stroke="black"/>
<rect x="198.5" y="0.5" width="19" height="19" stroke="black"/>
<rect x="198.5" y="38.5" width="19" height="19" stroke="black"/>
<rect x="198.5" y="76.5" width="19" height="19" stroke="black"/>
<rect x="198.5" y="114.5" width="19" height="19" stroke="black"/>
<rect x="198.5" y="152.5" width="19" height="19" stroke="black"/>
<rect x="198.5" y="19.5" width="19" height="19" stroke="black"/>
<rect x="198.5" y="57.5" width="19" height="19" stroke="black"/>
<rect x="198.5" y="95.5" width="19" height="19" stroke="black"/>
<rect x="198.5" y="133.5" width="19" height="19" stroke="black"/>
<rect x="198.5" y="171.5" width="19" height="19" stroke="black"/>
<rect x="103.5" y="0.5" width="19" height="19" stroke="black"/>
<rect x="103.5" y="38.5" width="19" height="19" stroke="black"/>
<rect x="103.5" y="76.5" width="19" height="19" stroke="black"/>
<rect x="103.5" y="114.5" width="19" height="19" stroke="black"/>
<rect x="103.5" y="152.5" width="19" height="19" stroke="black"/>
<rect x="103.5" y="19.5" width="19" height="19" stroke="black"/>
<rect x="103.5" y="57.5" width="19" height="19" stroke="black"/>
<rect x="103.5" y="95.5" width="19" height="19" stroke="black"/>
<rect x="103.5" y="133.5" width="19" height="19" stroke="black"/>
<rect x="103.5" y="171.5" width="19" height="19" stroke="black"/>
<rect x="179.5" y="0.5" width="19" height="19" stroke="black"/>
<rect x="179.5" y="38.5" width="19" height="19" stroke="black"/>
<rect x="179.5" y="76.5" width="19" height="19" stroke="black"/>
<rect x="179.5" y="114.5" width="19" height="19" stroke="black"/>
<rect x="179.5" y="152.5" width="19" height="19" stroke="black"/>
<rect x="179.5" y="19.5" width="19" height="19" stroke="black"/>
<rect x="179.5" y="57.5" width="19" height="19" stroke="black"/>
<rect x="179.5" y="95.5" width="19" height="19" stroke="black"/>
<rect x="179.5" y="133.5" width="19" height="19" stroke="black"/>
<rect x="179.5" y="171.5" width="19" height="19" stroke="black"/>
<rect x="65.5" y="0.5" width="19" height="19" stroke="black"/>
<rect x="65.5" y="38.5" width="19" height="19" stroke="black"/>
<rect x="65.5" y="76.5" width="19" height="19" stroke="black"/>
<rect x="65.5" y="114.5" width="19" height="19" stroke="black"/>
<rect x="65.5" y="152.5" width="19" height="19" stroke="black"/>
<rect x="65.5" y="19.5" width="19" height="19" stroke="black"/>
<rect x="65.5" y="57.5" width="19" height="19" stroke="black"/>
<rect x="65.5" y="95.5" width="19" height="19" stroke="black"/>
<rect x="65.5" y="133.5" width="19" height="19" stroke="black"/>
<rect x="65.5" y="171.5" width="19" height="19" stroke="black"/>
<rect x="141.5" y="0.5" width="19" height="19" stroke="black"/>
<rect x="141.5" y="38.5" width="19" height="19" stroke="black"/>
<rect x="141.5" y="76.5" width="19" height="19" stroke="black"/>
<rect x="141.5" y="114.5" width="19" height="19" stroke="black"/>
<rect x="141.5" y="152.5" width="19" height="19" stroke="black"/>
<rect x="141.5" y="19.5" width="19" height="19" stroke="black"/>
<rect x="141.5" y="57.5" width="19" height="19" stroke="black"/>
<rect x="141.5" y="95.5" width="19" height="19" stroke="black"/>
<rect x="141.5" y="133.5" width="19" height="19" stroke="black"/>
<rect x="141.5" y="171.5" width="19" height="19" stroke="black"/>
<rect x="217.5" y="0.5" width="19" height="19" stroke="black"/>
<rect x="217.5" y="38.5" width="19" height="19" stroke="black"/>
<rect x="217.5" y="76.5" width="19" height="19" stroke="black"/>
<rect x="217.5" y="114.5" width="19" height="19" stroke="black"/>
<rect x="217.5" y="152.5" width="19" height="19" stroke="black"/>
<rect x="217.5" y="19.5" width="19" height="19" stroke="black"/>
<rect x="217.5" y="57.5" width="19" height="19" stroke="black"/>
<rect x="217.5" y="95.5" width="19" height="19" stroke="black"/>
<rect x="217.5" y="133.5" width="19" height="19" stroke="black"/>
<rect x="217.5" y="171.5" width="19" height="19" stroke="black"/>
<path d="M1249.04 492.333H1250.96L1251.66 495.76H1251.76C1252 492.691 1252.11 488.882 1252.11 484.333H1254.76C1254.76 489.194 1254.49 494.083 1253.94 499H1250.98L1250.05 494.958H1249.95L1249.02 499H1246.06C1245.51 494.083 1245.24 489.194 1245.24 484.333H1247.89C1247.89 488.882 1248 492.691 1248.24 495.76H1248.34L1249.04 492.333ZM1267.34 493.792H1275.34V496.292H1267.34V493.792ZM1267.34 488.458H1275.34V490.958H1267.34V488.458ZM1292.27 484.333H1294.69V499H1292.02V487.479H1291.92L1290.68 488.385L1289.35 486.458L1292.27 484.333ZM1303.21 489.865C1303.51 489.622 1303.85 489.5 1304.26 489.5C1305.03 489.5 1305.62 489.781 1306.04 490.344C1306.7 491.226 1307.03 492.556 1307.03 494.333C1307.03 495.562 1306.91 496.479 1306.69 497.083C1306.46 497.715 1306.08 498.222 1305.55 498.604C1305.02 498.979 1304.38 499.167 1303.63 499.167C1302.79 499.167 1302.1 498.983 1301.55 498.615C1301 498.24 1300.6 497.729 1300.36 497.083C1300.22 496.715 1300.13 496.333 1300.09 495.938C1300.05 495.542 1300.03 495.01 1300.03 494.344C1300.03 492.226 1300.18 490.58 1300.47 489.406C1300.93 487.649 1301.96 485.833 1303.58 483.958L1305.61 485.635C1304.97 486.378 1304.45 487.069 1304.04 487.708C1303.63 488.347 1303.32 489.052 1303.11 489.823L1303.21 489.865ZM1304.02 496.354C1304.24 496 1304.36 495.326 1304.36 494.333C1304.36 493.34 1304.24 492.667 1304.02 492.312C1303.88 492.104 1303.72 492 1303.53 492C1303.33 492 1303.17 492.104 1303.04 492.312C1302.81 492.667 1302.69 493.34 1302.69 494.333C1302.69 495.326 1302.81 496 1303.04 496.354C1303.17 496.562 1303.33 496.667 1303.53 496.667C1303.72 496.667 1303.88 496.562 1304.02 496.354ZM1310.18 484.333H1317.68V486.521L1314.41 499H1311.71L1314.92 486.938V486.833H1310.18V484.333ZM1334.04 486.833V491.083H1334.69C1335.28 491.083 1335.72 491.056 1335.99 491C1336.46 490.903 1336.84 490.67 1337.11 490.302C1337.4 489.934 1337.54 489.486 1337.54 488.958C1337.54 488.431 1337.4 487.983 1337.11 487.615C1336.84 487.247 1336.46 487.014 1335.99 486.917C1335.72 486.861 1335.28 486.833 1334.69 486.833H1334.04ZM1331.38 484.333H1334.67C1335.69 484.333 1336.43 484.385 1336.86 484.49C1337.85 484.726 1338.65 485.243 1339.27 486.042C1339.9 486.833 1340.21 487.806 1340.21 488.958C1340.21 490.111 1339.9 491.087 1339.27 491.885C1338.65 492.677 1337.85 493.191 1336.86 493.427C1336.43 493.531 1335.69 493.583 1334.67 493.583H1334.04V499H1331.38V484.333ZM1345.99 489.167H1346.1L1348.01 484.333H1350.79L1347.65 491.49V491.594L1351.12 499H1348.33L1346.1 493.812H1345.99L1343.77 499H1340.97L1344.44 491.594V491.49L1341.31 484.333H1344.09L1345.99 489.167ZM1367.34 489.167H1367.44L1369.35 484.333H1372.13L1368.99 491.49V491.594L1372.46 499H1369.67L1367.44 493.812H1367.34L1365.11 499H1362.32L1365.79 491.594V491.49L1362.65 484.333H1365.43L1367.34 489.167ZM1392.07 499H1389.4V496.167H1384.73V493.875L1389.89 483.906L1392.16 485.073L1387.78 493.562V493.667H1389.4V492.208H1392.07V493.667H1393.4V496.167H1392.07V499Z" fill="black"/>
</svg>
