<svg width="1440" height="810" viewBox="0 0 1440 810" fill="none" xmlns="http://www.w3.org/2000/svg">
<rect width="1440" height="810" fill="#FFFBF0"/>
<path d="M53.9792 61.9583C53.7708 63.0972 53.6667 64.8889 53.6667 67.3333C53.6667 69.7778 53.7708 71.5694 53.9792 72.7083C54.2292 74.0556 54.6875 75.1667 55.3542 76.0417C56.0347 76.9028 56.9167 77.3333 58 77.3333C59.0833 77.3333 59.9583 76.9028 60.625 76.0417C61.3056 75.1667 61.7708 74.0556 62.0208 72.7083C62.2292 71.5556 62.3333 69.7639 62.3333 67.3333C62.3333 64.8889 62.2292 63.0972 62.0208 61.9583C61.7708 60.6111 61.3056 59.5069 60.625 58.6458C59.9583 57.7708 59.0833 57.3333 58 57.3333C56.9167 57.3333 56.0347 57.7708 55.3542 58.6458C54.6875 59.5069 54.2292 60.6111 53.9792 61.9583ZM48.9167 74.6042C48.5278 73.0625 48.3333 70.6389 48.3333 67.3333C48.3333 64.0278 48.5278 61.6042 48.9167 60.0625C49.4722 57.8125 50.5208 55.9653 52.0625 54.5208C53.6042 53.0625 55.5833 52.3333 58 52.3333C60.4167 52.3333 62.3958 53.0625 63.9375 54.5208C65.4792 55.9653 66.5278 57.8125 67.0833 60.0625C67.4722 61.6042 67.6667 64.0278 67.6667 67.3333C67.6667 70.6389 67.4722 73.0625 67.0833 74.6042C66.5278 76.8542 65.4792 78.7083 63.9375 80.1667C62.3958 81.6111 60.4167 82.3333 58 82.3333C55.5833 82.3333 53.6042 81.6111 52.0625 80.1667C50.5208 78.7083 49.4722 76.8542 48.9167 74.6042ZM88.6771 76.5625V81.5625C85.8299 82.0764 83.3229 82.3333 81.1562 82.3333C78.1979 82.3333 75.809 81.625 73.9896 80.2083C72.184 78.7778 70.9618 76.8472 70.3229 74.4167C69.8924 72.7222 69.6771 70.3611 69.6771 67.3333C69.6771 64.3056 69.8924 61.9444 70.3229 60.25C70.9757 57.8056 72.1771 55.875 73.9271 54.4583C75.6771 53.0417 78.0174 52.3333 80.9479 52.3333C83.1701 52.3333 85.5382 52.5347 88.0521 52.9375V57.9375C84.9132 57.5347 82.566 57.3333 81.0104 57.3333C77.941 57.3333 76.0312 58.9306 75.2812 62.125C74.9896 63.3889 74.8438 65.125 74.8438 67.3333C74.8438 69.5417 74.9896 71.2778 75.2812 72.5417C76.0451 75.7361 78.0035 77.3333 81.1562 77.3333C82.8924 77.3333 85.3993 77.0764 88.6771 76.5625ZM91.3542 52.6667H96.6875V64.9167H104.688V52.6667H110.021V82H104.688V69.9167H96.6875V82H91.3542V52.6667ZM118.01 61.9583C117.802 63.0972 117.698 64.8889 117.698 67.3333C117.698 69.7778 117.802 71.5694 118.01 72.7083C118.26 74.0556 118.719 75.1667 119.385 76.0417C120.066 76.9028 120.948 77.3333 122.031 77.3333C123.115 77.3333 123.99 76.9028 124.656 76.0417C125.337 75.1667 125.802 74.0556 126.052 72.7083C126.26 71.5556 126.365 69.7639 126.365 67.3333C126.365 64.8889 126.26 63.0972 126.052 61.9583C125.802 60.6111 125.337 59.5069 124.656 58.6458C123.99 57.7708 123.115 57.3333 122.031 57.3333C120.948 57.3333 120.066 57.7708 119.385 58.6458C118.719 59.5069 118.26 60.6111 118.01 61.9583ZM112.948 74.6042C112.559 73.0625 112.365 70.6389 112.365 67.3333C112.365 64.0278 112.559 61.6042 112.948 60.0625C113.503 57.8125 114.552 55.9653 116.094 54.5208C117.635 53.0625 119.615 52.3333 122.031 52.3333C124.448 52.3333 126.427 53.0625 127.969 54.5208C129.51 55.9653 130.559 57.8125 131.115 60.0625C131.503 61.6042 131.698 64.0278 131.698 67.3333C131.698 70.6389 131.503 73.0625 131.115 74.6042C130.559 76.8542 129.51 78.7083 127.969 80.1667C126.427 81.6111 124.448 82.3333 122.031 82.3333C119.615 82.3333 117.635 81.6111 116.094 80.1667C114.552 78.7083 113.503 76.8542 112.948 74.6042ZM141.625 64.75C142.667 64.75 143.347 64.7083 143.667 64.625C144.417 64.4444 145.014 64.0556 145.458 63.4583C145.917 62.8472 146.146 62.0972 146.146 61.2083C146.146 60.3333 145.917 59.5903 145.458 58.9792C145 58.3681 144.403 57.9792 143.667 57.8125C143.222 57.7153 142.542 57.6667 141.625 57.6667H140.708V64.75H141.625ZM148.146 66.8333C149.576 67.25 150.688 68.1042 151.479 69.3958C152.285 70.6736 152.688 72.2083 152.688 74C152.688 75.9444 152.174 77.6111 151.146 79C150.132 80.375 148.812 81.2639 147.188 81.6667C146.299 81.8889 144.819 82 142.75 82H135.375V52.6667H141.625C143.417 52.6667 144.694 52.7569 145.458 52.9375C147.167 53.3403 148.563 54.2222 149.646 55.5833C150.729 56.9444 151.271 58.6111 151.271 60.5833C151.271 63.5139 150.229 65.5278 148.146 66.625V66.8333ZM140.708 69.75V77H142.771C144.021 77 144.854 76.9444 145.271 76.8333C145.965 76.6528 146.521 76.2569 146.938 75.6458C147.354 75.0208 147.562 74.2639 147.562 73.375C147.562 72.4861 147.354 71.7292 146.938 71.1042C146.521 70.4792 145.965 70.0833 145.271 69.9167C144.799 69.8056 143.965 69.75 142.771 69.75H140.708ZM155.385 52.6667H160.719V64.9167H168.719V52.6667H174.052V82H168.719V69.9167H160.719V82H155.385V52.6667ZM195.396 52.6667V82H190.062V76.5625C189.729 77.8681 189.201 78.9583 188.479 79.8333C187.771 80.7083 186.931 81.3194 185.958 81.6667C185.319 81.8889 184.257 82 182.771 82H176.729V52.6667H182.062V64.875H182.771C184.257 64.875 185.319 64.9861 185.958 65.2083C186.917 65.5417 187.757 66.1667 188.479 67.0833C189.201 67.9861 189.729 69.1042 190.062 70.4375V52.6667H195.396ZM182.062 69.875V77H182.792C183.417 77 183.833 76.9444 184.042 76.8333C184.875 76.4028 185.292 75.2917 185.292 73.5C185.292 72.625 185.174 71.8819 184.938 71.2708C184.715 70.6597 184.417 70.25 184.042 70.0417C183.833 69.9306 183.417 69.875 182.792 69.875H182.062ZM199.406 52.6667H215.406V57.6667H204.74V64.75H212.74V69.75H204.74V77H215.406V82H199.406V52.6667ZM259.427 76.5625V81.5625C256.58 82.0764 254.073 82.3333 251.906 82.3333C248.948 82.3333 246.559 81.625 244.74 80.2083C242.934 78.7778 241.712 76.8472 241.073 74.4167C240.642 72.7222 240.427 70.3611 240.427 67.3333C240.427 64.3056 240.642 61.9444 241.073 60.25C241.726 57.8056 242.927 55.875 244.677 54.4583C246.427 53.0417 248.767 52.3333 251.698 52.3333C253.92 52.3333 256.288 52.5347 258.802 52.9375V57.9375C255.663 57.5347 253.316 57.3333 251.76 57.3333C248.691 57.3333 246.781 58.9306 246.031 62.125C245.74 63.3889 245.594 65.125 245.594 67.3333C245.594 69.5417 245.74 71.2778 246.031 72.5417C246.795 75.7361 248.753 77.3333 251.906 77.3333C253.642 77.3333 256.149 77.0764 259.427 76.5625ZM275.438 82V63.2917H275.229L267.438 82H262.104V52.6667H267.438V71.375H267.646L275.458 52.6667H280.771V82H275.438ZM288.781 82H283.448V52.6667H288.781L292.677 61.7917H292.906L296.781 52.6667H302.115V82H296.781V63.3333H296.573L293.927 68.6667H291.635L288.99 63.25H288.781V82ZM312.375 64.75C313.417 64.75 314.097 64.7083 314.417 64.625C315.167 64.4444 315.764 64.0556 316.208 63.4583C316.667 62.8472 316.896 62.0972 316.896 61.2083C316.896 60.3333 316.667 59.5903 316.208 58.9792C315.75 58.3681 315.153 57.9792 314.417 57.8125C313.972 57.7153 313.292 57.6667 312.375 57.6667H311.458V64.75H312.375ZM318.896 66.8333C320.326 67.25 321.438 68.1042 322.229 69.3958C323.035 70.6736 323.438 72.2083 323.438 74C323.438 75.9444 322.924 77.6111 321.896 79C320.882 80.375 319.562 81.2639 317.938 81.6667C317.049 81.8889 315.569 82 313.5 82H306.125V52.6667H312.375C314.167 52.6667 315.444 52.7569 316.208 52.9375C317.917 53.3403 319.313 54.2222 320.396 55.5833C321.479 56.9444 322.021 58.6111 322.021 60.5833C322.021 63.5139 320.979 65.5278 318.896 66.625V66.8333ZM311.458 69.75V77H313.521C314.771 77 315.604 76.9444 316.021 76.8333C316.715 76.6528 317.271 76.2569 317.688 75.6458C318.104 75.0208 318.312 74.2639 318.312 73.375C318.312 72.4861 318.104 71.7292 317.688 71.1042C317.271 70.4792 316.715 70.0833 316.021 69.9167C315.549 69.8056 314.715 69.75 313.521 69.75H311.458ZM331.448 61.9583C331.24 63.0972 331.135 64.8889 331.135 67.3333C331.135 69.7778 331.24 71.5694 331.448 72.7083C331.698 74.0556 332.156 75.1667 332.823 76.0417C333.503 76.9028 334.385 77.3333 335.469 77.3333C336.552 77.3333 337.427 76.9028 338.094 76.0417C338.774 75.1667 339.24 74.0556 339.49 72.7083C339.698 71.5556 339.802 69.7639 339.802 67.3333C339.802 64.8889 339.698 63.0972 339.49 61.9583C339.24 60.6111 338.774 59.5069 338.094 58.6458C337.427 57.7708 336.552 57.3333 335.469 57.3333C334.385 57.3333 333.503 57.7708 332.823 58.6458C332.156 59.5069 331.698 60.6111 331.448 61.9583ZM326.385 74.6042C325.997 73.0625 325.802 70.6389 325.802 67.3333C325.802 64.0278 325.997 61.6042 326.385 60.0625C326.941 57.8125 327.99 55.9653 329.531 54.5208C331.073 53.0625 333.052 52.3333 335.469 52.3333C337.885 52.3333 339.865 53.0625 341.406 54.5208C342.948 55.9653 343.997 57.8125 344.552 60.0625C344.941 61.6042 345.135 64.0278 345.135 67.3333C345.135 70.6389 344.941 73.0625 344.552 74.6042C343.997 76.8542 342.948 78.7083 341.406 80.1667C339.865 81.6111 337.885 82.3333 335.469 82.3333C333.052 82.3333 331.073 81.6111 329.531 80.1667C327.99 78.7083 326.941 76.8542 326.385 74.6042ZM358.146 57.4583C358.146 61.75 358.097 65.2569 358 67.9792C357.917 70.3958 357.736 72.3681 357.458 73.8958C357.181 75.4236 356.625 76.8472 355.792 78.1667C354.111 80.9444 351.34 82.3333 347.479 82.3333V77.3333C348.549 77.3333 349.326 77.2222 349.812 77C350.299 76.7639 350.75 76.3194 351.167 75.6667C351.556 75.0972 351.861 74.3403 352.083 73.3958C352.306 72.4514 352.444 71.5972 352.5 70.8333C352.569 70.0556 352.625 69.0486 352.667 67.8125C352.764 65.1736 352.812 61.7778 352.812 57.625V52.6667H358.146H366.146V82H360.812V57.4583H358.146ZM387.49 52.6667V82H382.156V76.5625C381.823 77.8681 381.295 78.9583 380.573 79.8333C379.865 80.7083 379.024 81.3194 378.052 81.6667C377.413 81.8889 376.351 82 374.865 82H368.823V52.6667H374.156V64.875H374.865C376.351 64.875 377.413 64.9861 378.052 65.2083C379.01 65.5417 379.851 66.1667 380.573 67.0833C381.295 67.9861 381.823 69.1042 382.156 70.4375V52.6667H387.49ZM374.156 69.875V77H374.885C375.51 77 375.927 76.9444 376.135 76.8333C376.969 76.4028 377.385 75.2917 377.385 73.5C377.385 72.625 377.267 71.8819 377.031 71.2708C376.809 70.6597 376.51 70.25 376.135 70.0417C375.927 69.9306 375.51 69.875 374.885 69.875H374.156Z" fill="black"/>
<path d="M46 107L1394 107" stroke="black" stroke-dasharray="6 6"/>
<rect x="46.5" y="153.5" width="99" height="99" stroke="#D5D5D5"/>
<path d="M121.51 234.667C121.108 232.049 120.622 229.691 120.052 227.594H119.948C119.385 229.67 118.899 232.028 118.49 234.667H121.51ZM117.938 225.333H122.062C123.257 229.069 124.205 233.958 124.906 240H122.208C122.125 239.042 122.01 238.097 121.865 237.167H118.135C117.99 238.097 117.875 239.042 117.792 240H115.094C115.795 233.958 116.743 229.069 117.938 225.333ZM131.339 235.615H130.63C130.29 235.615 130.043 235.715 129.891 235.917C129.745 236.111 129.672 236.42 129.672 236.844C129.672 237.08 129.727 237.278 129.839 237.438C129.95 237.59 130.109 237.667 130.318 237.667C130.554 237.667 130.745 237.608 130.891 237.49C131.043 237.372 131.148 237.205 131.203 236.99C131.266 236.767 131.304 236.58 131.318 236.427C131.332 236.274 131.339 236.083 131.339 235.854V235.615ZM131.005 229.167C131.602 229.167 132.127 229.26 132.578 229.448C133.03 229.628 133.401 229.976 133.693 230.49C133.901 230.858 134.005 231.427 134.005 232.198V240H131.339V239.448H131.234C130.845 239.927 130.352 240.167 129.755 240.167C129.019 240.167 128.377 239.851 127.828 239.219C127.28 238.587 127.005 237.802 127.005 236.865C127.005 235.844 127.311 235.003 127.922 234.344C128.144 234.108 128.38 233.917 128.63 233.771C128.887 233.618 129.148 233.514 129.411 233.458C129.682 233.403 129.898 233.368 130.057 233.354C130.224 233.34 130.422 233.333 130.651 233.333H131.339V232.25C131.339 232.111 131.28 231.983 131.161 231.865C131.043 231.74 130.891 231.677 130.703 231.677C130.064 231.677 129.165 231.743 128.005 231.875V229.365C129.151 229.233 130.151 229.167 131.005 229.167Z" fill="black"/>
<rect x="1234.5" y="153.5" width="99" height="99" stroke="#D5D5D5"/>
<path d="M1308.67 227.729C1308.67 229.875 1308.64 231.628 1308.59 232.99C1308.55 234.198 1308.46 235.184 1308.32 235.948C1308.18 236.712 1307.91 237.424 1307.49 238.083C1306.65 239.472 1305.26 240.167 1303.33 240.167V237.667C1303.87 237.667 1304.26 237.611 1304.5 237.5C1304.74 237.382 1304.97 237.16 1305.18 236.833C1305.37 236.549 1305.52 236.17 1305.64 235.698C1305.75 235.226 1305.82 234.799 1305.84 234.417C1305.88 234.028 1305.91 233.524 1305.93 232.906C1305.98 231.587 1306 229.889 1306 227.812V225.333H1308.67H1312.67V240H1310V227.729H1308.67ZM1322.01 229.333V240H1319.34V231.833H1318.01V236.625C1318.01 237.229 1317.93 237.747 1317.77 238.177C1317.61 238.608 1317.34 238.986 1316.97 239.312C1316.61 239.632 1316.2 239.854 1315.74 239.979C1315.29 240.104 1314.71 240.167 1314.01 240.167V237.667C1314.5 237.667 1314.84 237.59 1315.03 237.438C1315.23 237.264 1315.34 236.993 1315.34 236.625V229.333H1322.01Z" fill="black"/>
<rect x="1234.5" y="252.5" width="99" height="99" stroke="#D5D5D5"/>
<path d="M1303.33 339V324.333H1306V336.5H1307.33V324.333H1308.67V336.5H1310V324.333H1312.67V339H1303.33ZM1314.01 339V328.333H1316.67V336.5H1318.01V328.333H1319.34V336.5H1320.67V328.333H1323.34V339H1314.01Z" fill="black"/>
<rect x="46.5" y="664.5" width="99" height="99" stroke="#D5D5D5"/>
<path d="M128.042 738.406C128.611 736.899 129.597 736.146 131 736.146C132.403 736.146 133.389 736.899 133.958 738.406C134.083 738.747 134.177 739.215 134.24 739.812C134.302 740.41 134.337 740.955 134.344 741.448C134.358 741.934 134.365 742.674 134.365 743.667C134.365 744.66 134.358 745.403 134.344 745.896C134.337 746.382 134.302 746.924 134.24 747.521C134.177 748.118 134.083 748.587 133.958 748.927C133.389 750.434 132.403 751.188 131 751.188C129.597 751.188 128.611 750.434 128.042 748.927C127.917 748.587 127.823 748.118 127.76 747.521C127.698 746.924 127.66 746.382 127.646 745.896C127.639 745.403 127.635 744.66 127.635 743.667C127.635 742.674 127.639 741.934 127.646 741.448C127.66 740.955 127.698 740.41 127.76 739.812C127.823 739.215 127.917 738.747 128.042 738.406ZM131 738.688C130.701 738.688 130.49 739.125 130.365 740C130.295 740.465 130.26 741.687 130.26 743.667V744.76L131.656 740.167C131.608 739.757 131.528 739.41 131.417 739.125C131.306 738.833 131.167 738.688 131 738.688ZM130.344 747.167C130.392 747.576 130.472 747.927 130.583 748.219C130.694 748.503 130.833 748.646 131 748.646C131.299 748.646 131.51 748.208 131.635 747.333C131.705 746.868 131.74 745.646 131.74 743.667V742.573L130.344 747.167Z" fill="black"/>
<rect x="244.5" y="153.5" width="99" height="99" stroke="#D5D5D5"/>
<path d="M317.125 231.375C317.646 231.375 317.986 231.354 318.146 231.312C318.521 231.222 318.819 231.028 319.042 230.729C319.271 230.424 319.385 230.049 319.385 229.604C319.385 229.167 319.271 228.795 319.042 228.49C318.813 228.184 318.514 227.99 318.146 227.906C317.924 227.858 317.583 227.833 317.125 227.833H316.667V231.375H317.125ZM320.385 232.417C321.101 232.625 321.656 233.052 322.052 233.698C322.455 234.337 322.656 235.104 322.656 236C322.656 236.972 322.399 237.806 321.885 238.5C321.378 239.188 320.719 239.632 319.906 239.833C319.462 239.944 318.722 240 317.688 240H314V225.333H317.125C318.021 225.333 318.66 225.378 319.042 225.469C319.896 225.67 320.594 226.111 321.135 226.792C321.677 227.472 321.948 228.306 321.948 229.292C321.948 230.757 321.427 231.764 320.385 232.312V232.417ZM316.667 233.875V237.5H317.698C318.323 237.5 318.74 237.472 318.948 237.417C319.295 237.326 319.573 237.128 319.781 236.823C319.99 236.51 320.094 236.132 320.094 235.688C320.094 235.243 319.99 234.865 319.781 234.552C319.573 234.24 319.295 234.042 318.948 233.958C318.712 233.903 318.295 233.875 317.698 233.875H316.667ZM328.005 233.375H328.62C328.793 233.375 328.915 233.365 328.984 233.344C329.13 233.309 329.245 233.226 329.328 233.094C329.418 232.962 329.464 232.799 329.464 232.604C329.464 232.41 329.418 232.247 329.328 232.115C329.245 231.983 329.13 231.899 328.984 231.865C328.887 231.844 328.766 231.833 328.62 231.833H328.005V233.375ZM328.005 237.5H328.422C328.582 237.5 328.759 237.486 328.953 237.458C329.175 237.417 329.349 237.33 329.474 237.198C329.606 237.059 329.672 236.889 329.672 236.688C329.672 236.486 329.606 236.316 329.474 236.177C329.349 236.038 329.175 235.948 328.953 235.906C328.807 235.885 328.63 235.875 328.422 235.875H328.005V237.5ZM325.339 240V229.333H329.172C329.602 229.333 329.946 229.365 330.203 229.427C330.773 229.566 331.234 229.892 331.589 230.406C331.95 230.92 332.13 231.549 332.13 232.292C332.13 232.785 332.043 233.226 331.87 233.615C331.696 234.003 331.464 234.319 331.172 234.562C331.95 235.181 332.339 235.993 332.339 237C332.339 237.722 332.13 238.337 331.714 238.844C331.297 239.351 330.745 239.694 330.057 239.875C329.745 239.958 329.311 240 328.755 240H325.339Z" fill="black"/>
<rect x="145.5" y="252.5" width="99" height="99" stroke="#D5D5D5"/>
<path d="M214.333 324.333H217V330.458H221V324.333H223.667V339H221V332.958H217V339H214.333V324.333ZM226.339 328.333H229.005V332.333H230.339V328.333H233.005V339H230.339V334.833H229.005V339H226.339V328.333Z" fill="black"/>
<rect x="244.5" y="664.5" width="99" height="99" stroke="#D5D5D5"/>
<path d="M325.667 736.49C326.771 736.274 327.771 736.167 328.667 736.167C329.333 736.167 329.917 736.267 330.417 736.469C330.924 736.67 331.319 736.944 331.604 737.292C331.896 737.639 332.111 738.021 332.25 738.438C332.389 738.854 332.458 739.299 332.458 739.771C332.458 740.229 332.41 740.625 332.312 740.958C332.222 741.285 332.076 741.635 331.875 742.01L328.708 748.5H332.542V751H325.667V748.823L329.354 741.427C329.646 740.885 329.792 740.333 329.792 739.771C329.792 739.035 329.417 738.667 328.667 738.667C327.826 738.667 326.826 738.774 325.667 738.99V736.49Z" fill="black"/>
<rect x="145.5" y="153.5" width="99" height="99" stroke="#D5D5D5"/>
<path d="M218.688 231.438C219.722 231.438 220.462 231.493 220.906 231.604C221.719 231.806 222.378 232.281 222.885 233.031C223.399 233.781 223.656 234.688 223.656 235.75C223.656 236.819 223.403 237.719 222.896 238.448C222.389 239.17 221.726 239.632 220.906 239.833C220.462 239.944 219.722 240 218.688 240H215V225.333H223V227.833H217.667V231.438H218.688ZM217.667 233.938V237.5H218.698C219.323 237.5 219.74 237.472 219.948 237.417C220.302 237.326 220.58 237.142 220.781 236.865C220.99 236.58 221.094 236.208 221.094 235.75C221.094 235.306 220.99 234.931 220.781 234.625C220.573 234.319 220.295 234.118 219.948 234.021C219.74 233.965 219.323 233.938 218.698 233.938H217.667ZM230.464 232.385C230.29 231.906 230.026 231.667 229.672 231.667C229.318 231.667 229.054 231.906 228.88 232.385C228.741 232.767 228.672 233.528 228.672 234.667C228.672 235.806 228.741 236.566 228.88 236.948C229.054 237.427 229.318 237.667 229.672 237.667C230.026 237.667 230.29 237.427 230.464 236.948C230.602 236.566 230.672 235.806 230.672 234.667C230.672 233.528 230.602 232.767 230.464 232.385ZM230.026 229.271C230.762 229.271 231.387 229.469 231.901 229.865C232.415 230.253 232.769 230.753 232.964 231.365C233.214 232.128 233.339 233.229 233.339 234.667C233.339 235.194 233.332 235.604 233.318 235.896C233.311 236.181 233.273 236.517 233.203 236.906C233.141 237.288 233.047 237.642 232.922 237.969C232.345 239.434 231.193 240.167 229.464 240.167C228.776 240.167 228.158 239.958 227.609 239.542C227.061 239.118 226.665 238.594 226.422 237.969C226.144 237.24 226.005 236.361 226.005 235.333C226.005 233.944 226.009 232.927 226.016 232.281C226.023 231.628 226.043 230.955 226.078 230.26C226.113 229.559 226.165 229.052 226.234 228.74C226.484 227.649 226.97 226.837 227.693 226.302C228.137 225.969 228.599 225.729 229.078 225.583C229.564 225.437 229.988 225.368 230.349 225.375C230.717 225.375 231.155 225.365 231.661 225.344C232.168 225.316 232.616 225.25 233.005 225.146V227.677C232.616 227.774 232.144 227.83 231.589 227.844C231.04 227.858 230.557 227.896 230.141 227.958C229.724 228.014 229.366 228.153 229.068 228.375C228.783 228.59 228.63 229.042 228.609 229.729H228.714C229.123 229.424 229.561 229.271 230.026 229.271Z" fill="black"/>
<rect x="46.5" y="252.5" width="99" height="99" stroke="#D5D5D5"/>
<path d="M118 339H115.333V324.333H118L119.948 328.896H120.062L122 324.333H124.667V339H122V329.667H121.896L120.573 332.333H119.427L118.104 329.625H118V339ZM128.672 339H126.005V328.333H128.672L130.62 332.896H130.734L132.672 328.333H135.339V339H132.672V333.667H132.568L131.245 336.333H130.099L128.776 333.625H128.672V339Z" fill="black"/>
<rect x="46.5" y="351.5" width="99" height="99" stroke="#D5D5D5"/>
<path d="M123.333 438H115.333V423.333H118V435.5H119.333V423.333H120.667V435.5H122V423.333H124.667V435.51H126V440.667H123.333V438ZM135.339 435.51H136.672V440.667H134.005V438H126.005V427.333H128.672V435.5H130.005V427.333H131.339V435.5H132.672V427.333H135.339V435.51Z" fill="black"/>
<rect x="145.5" y="351.5" width="99" height="99" stroke="#D5D5D5"/>
<path d="M217.667 431.938V435.5H218.698C219.323 435.5 219.74 435.472 219.948 435.417C220.302 435.326 220.58 435.142 220.781 434.865C220.99 434.58 221.094 434.208 221.094 433.75C221.094 433.306 220.99 432.931 220.781 432.625C220.573 432.319 220.295 432.118 219.948 432.021C219.74 431.965 219.323 431.938 218.698 431.938H217.667ZM218.688 429.438C219.722 429.438 220.462 429.493 220.906 429.604C221.719 429.806 222.378 430.281 222.885 431.031C223.399 431.781 223.656 432.688 223.656 433.75C223.656 434.819 223.403 435.719 222.896 436.448C222.389 437.17 221.726 437.632 220.906 437.833C220.462 437.944 219.722 438 218.688 438H215V425.833H213V423.333H217.667V429.438H218.688ZM229.672 433.208V435.5H230.422C231.033 435.5 231.339 435.118 231.339 434.354C231.339 433.59 231.033 433.208 230.422 433.208H229.672ZM229.682 430.708H230.422C230.977 430.708 231.411 430.75 231.724 430.833C232.411 431.021 232.964 431.431 233.38 432.062C233.797 432.688 234.005 433.451 234.005 434.354C234.005 435.257 233.797 436.024 233.38 436.656C232.964 437.281 232.411 437.688 231.724 437.875C231.411 437.958 230.977 438 230.422 438H227.005V429.729H225.005V427.333H229.682V430.708Z" fill="black"/>
<rect x="442.5" y="351.5" width="99" height="99" stroke="#D5D5D5"/>
<path d="M512 435.417C513.403 435.583 514.503 435.667 515.302 435.667C516.774 435.667 517.667 434.868 517.979 433.271C518.069 432.833 518.125 432.354 518.146 431.833H513.333V429.333H518.135C518.101 428.812 518.049 428.389 517.979 428.062C517.667 426.465 516.799 425.667 515.375 425.667C514.618 425.667 513.545 425.729 512.156 425.854V423.354C513.26 423.229 514.344 423.167 515.406 423.167C516.809 423.167 517.934 423.521 518.781 424.229C519.628 424.937 520.205 425.903 520.51 427.125C520.726 427.972 520.833 429.153 520.833 430.667C520.833 432.181 520.726 433.361 520.51 434.208C520.205 435.424 519.615 436.389 518.74 437.104C517.872 437.812 516.726 438.167 515.302 438.167C514.344 438.167 513.243 438.083 512 437.917V435.417ZM530.255 430.75C530.311 431.25 530.339 431.889 530.339 432.667C530.339 433.444 530.311 434.083 530.255 434.583C530.207 435.083 530.085 435.552 529.891 435.99C529.259 437.441 528.082 438.167 526.359 438.167C525.54 438.167 524.533 438.076 523.339 437.896V435.396C524.54 435.576 525.547 435.667 526.359 435.667C526.658 435.667 526.894 435.587 527.068 435.427C527.241 435.267 527.384 435.024 527.495 434.698C527.578 434.455 527.63 434.125 527.651 433.708H524.672V431.417H527.641C527.62 431.139 527.571 430.878 527.495 430.635C527.384 430.309 527.241 430.066 527.068 429.906C526.894 429.747 526.658 429.667 526.359 429.667C525.658 429.667 524.686 429.733 523.443 429.865V427.365C524.672 427.233 525.644 427.167 526.359 427.167C528.082 427.167 529.259 427.892 529.891 429.344C530.085 429.781 530.207 430.25 530.255 430.75Z" fill="black"/>
<rect x="244.5" y="351.5" width="99" height="99" stroke="#D5D5D5"/>
<path d="M322.667 423.333V438H320V435.281C319.833 435.934 319.569 436.479 319.208 436.917C318.854 437.354 318.434 437.66 317.948 437.833C317.628 437.944 317.097 438 316.354 438H313.333V423.333H316V429.438H316.354C317.097 429.438 317.628 429.493 317.948 429.604C318.427 429.771 318.847 430.083 319.208 430.542C319.569 430.993 319.833 431.552 320 432.219V423.333H322.667ZM316 431.938V435.5H316.365C316.677 435.5 316.885 435.472 316.99 435.417C317.406 435.201 317.615 434.646 317.615 433.75C317.615 433.312 317.556 432.941 317.438 432.635C317.326 432.33 317.177 432.125 316.99 432.021C316.885 431.965 316.677 431.938 316.365 431.938H316ZM326.672 433.208V435.5H327.422C328.033 435.5 328.339 435.118 328.339 434.354C328.339 433.59 328.033 433.208 327.422 433.208H326.672ZM326.682 430.708H327.422C327.977 430.708 328.411 430.75 328.724 430.833C329.155 430.944 329.536 431.156 329.87 431.469C330.21 431.774 330.477 432.153 330.672 432.604V427.333H333.339V438H330.672V436.104C330.477 436.556 330.21 436.938 329.87 437.25C329.536 437.556 329.155 437.764 328.724 437.875C328.411 437.958 327.977 438 327.422 438H324.005V427.333H326.682V430.708Z" fill="black"/>
<rect x="541.5" y="351.5" width="99" height="99" stroke="#D5D5D5"/>
<path d="M616.365 423.146C617.747 423.146 618.722 423.899 619.292 425.406C619.417 425.747 619.51 426.215 619.573 426.812C619.635 427.41 619.67 427.955 619.677 428.448C619.691 428.934 619.698 429.674 619.698 430.667C619.698 431.66 619.691 432.403 619.677 432.896C619.67 433.382 619.635 433.924 619.573 434.521C619.51 435.118 619.417 435.587 619.292 435.927C618.722 437.434 617.747 438.188 616.365 438.188C615.274 438.188 614.51 437.434 614.073 435.927C613.878 435.26 613.774 433.924 613.76 431.917H613V438H610.333V423.323H613V429.417H613.76C613.774 427.403 613.878 426.066 614.073 425.406C614.51 423.899 615.274 423.146 616.365 423.146ZM615.896 430.667C615.896 432.681 615.92 433.903 615.969 434.333C616.066 435.208 616.236 435.646 616.479 435.646C616.722 435.646 616.892 435.208 616.99 434.333C617.045 433.868 617.073 432.646 617.073 430.667C617.073 428.687 617.045 427.465 616.99 427C616.892 426.125 616.722 425.688 616.479 425.688C616.236 425.688 616.066 426.125 615.969 427C615.92 427.438 615.896 428.66 615.896 430.667ZM626.964 431.719C626.964 431.038 626.932 430.552 626.87 430.26C626.786 429.844 626.651 429.635 626.464 429.635C626.276 429.635 626.141 429.844 626.057 430.26C625.995 430.552 625.964 431.038 625.964 431.719V433.615C625.964 434.295 625.995 434.781 626.057 435.073C626.141 435.49 626.276 435.698 626.464 435.698C626.651 435.698 626.786 435.49 626.87 435.073C626.932 434.781 626.964 434.295 626.964 433.615V431.719ZM626.443 427.167C626.97 427.167 627.439 427.326 627.849 427.646C628.259 427.958 628.568 428.34 628.776 428.792C628.901 429.056 628.995 429.354 629.057 429.688C629.12 430.021 629.155 430.292 629.161 430.5C629.168 430.708 629.172 430.99 629.172 431.344V434C629.172 434.354 629.168 434.635 629.161 434.844C629.155 435.052 629.12 435.323 629.057 435.656C628.995 435.983 628.901 436.278 628.776 436.542C628.568 436.993 628.259 437.378 627.849 437.698C627.439 438.01 626.97 438.167 626.443 438.167C625.97 438.167 625.547 438.01 625.172 437.698C624.797 437.378 624.526 436.993 624.359 436.542C624.151 435.986 624.047 435.139 624.047 434V433.958H623.672V438H621.005V427.333H623.672V431.458H624.047V431.333C624.047 430.194 624.151 429.347 624.359 428.792C624.526 428.34 624.797 427.958 625.172 427.646C625.547 427.326 625.97 427.167 626.443 427.167Z" fill="black"/>
<rect x="343.5" y="351.5" width="99" height="99" stroke="#D5D5D5"/>
<path d="M416.688 429.438C417.722 429.438 418.462 429.493 418.906 429.604C419.719 429.806 420.378 430.281 420.885 431.031C421.399 431.781 421.656 432.688 421.656 433.75C421.656 434.819 421.403 435.719 420.896 436.448C420.389 437.17 419.726 437.632 418.906 437.833C418.462 437.944 417.722 438 416.688 438H413V423.333H415.667V429.438H416.688ZM415.667 431.938V435.5H416.698C417.323 435.5 417.74 435.472 417.948 435.417C418.302 435.326 418.58 435.142 418.781 434.865C418.99 434.58 419.094 434.208 419.094 433.75C419.094 433.306 418.99 432.931 418.781 432.625C418.573 432.319 418.295 432.118 417.948 432.021C417.74 431.965 417.323 431.938 416.698 431.938H415.667ZM427.016 430.708H427.755C428.311 430.708 428.745 430.75 429.057 430.833C429.745 431.021 430.297 431.431 430.714 432.062C431.13 432.688 431.339 433.451 431.339 434.354C431.339 435.257 431.13 436.024 430.714 436.656C430.297 437.281 429.745 437.688 429.057 437.875C428.745 437.958 428.311 438 427.755 438H424.339V427.333H427.016V430.708ZM427.005 433.208V435.5H427.755C428.366 435.5 428.672 435.118 428.672 434.354C428.672 433.59 428.366 433.208 427.755 433.208H427.005Z" fill="black"/>
<rect x="640.5" y="351.5" width="99" height="99" stroke="#D5D5D5"/>
<path d="M715.333 425.833H714.021C713.431 425.833 712.997 425.861 712.719 425.917C712.253 426.014 711.878 426.247 711.594 426.615C711.309 426.983 711.167 427.431 711.167 427.958C711.167 428.486 711.309 428.934 711.594 429.302C711.878 429.67 712.253 429.903 712.719 430C712.99 430.056 713.424 430.083 714.021 430.083H715.333V425.833ZM718 423.333V438H715.333V432.583H714.042C713.563 432.583 713.219 432.58 713.01 432.573L711.073 438H708.24L710.531 431.885C709.906 431.49 709.41 430.955 709.042 430.281C708.681 429.601 708.5 428.826 708.5 427.958C708.5 426.806 708.809 425.833 709.427 425.042C710.052 424.243 710.858 423.726 711.844 423.49C712.281 423.385 713.014 423.333 714.042 423.333H718ZM725.328 434.583H724.807L723.641 438H720.984L722.422 433.99C721.984 433.74 721.637 433.351 721.38 432.823C721.13 432.288 721.005 431.667 721.005 430.958C721.005 430.062 721.214 429.302 721.63 428.677C722.047 428.052 722.599 427.646 723.286 427.458C723.599 427.375 724.033 427.333 724.589 427.333H728.005V438H725.328V434.583ZM725.339 432.083V429.833H724.589C723.977 429.833 723.672 430.208 723.672 430.958C723.672 431.708 723.977 432.083 724.589 432.083H725.339Z" fill="black"/>
<rect x="145.5" y="664.5" width="99" height="99" stroke="#D5D5D5"/>
<path d="M229.583 736.333H232V751H229.333V739.479H229.229L227.99 740.385L226.667 738.458L229.583 736.333Z" fill="black"/>
<rect x="343.5" y="153.5" width="99" height="99" stroke="#D5D5D5"/>
<path d="M413.667 225.333H421.667V227.833H416.333V240H413.667V225.333ZM424.339 229.333H431.005V231.833H427.005V240H424.339V229.333Z" fill="black"/>
<rect x="244.5" y="252.5" width="99" height="99" stroke="#D5D5D5"/>
<path d="M315.99 328.979C315.885 329.549 315.833 330.444 315.833 331.667C315.833 332.889 315.885 333.785 315.99 334.354C316.115 335.028 316.344 335.583 316.677 336.021C317.017 336.451 317.458 336.667 318 336.667C318.542 336.667 318.979 336.451 319.312 336.021C319.653 335.583 319.885 335.028 320.01 334.354C320.115 333.778 320.167 332.882 320.167 331.667C320.167 330.444 320.115 329.549 320.01 328.979C319.885 328.306 319.653 327.753 319.312 327.323C318.979 326.885 318.542 326.667 318 326.667C317.458 326.667 317.017 326.885 316.677 327.323C316.344 327.753 316.115 328.306 315.99 328.979ZM313.458 335.302C313.264 334.531 313.167 333.319 313.167 331.667C313.167 330.014 313.264 328.802 313.458 328.031C313.736 326.906 314.26 325.983 315.031 325.26C315.802 324.531 316.792 324.167 318 324.167C319.208 324.167 320.198 324.531 320.969 325.26C321.74 325.983 322.264 326.906 322.542 328.031C322.736 328.802 322.833 330.014 322.833 331.667C322.833 333.319 322.736 334.531 322.542 335.302C322.264 336.427 321.74 337.354 320.969 338.083C320.198 338.806 319.208 339.167 318 339.167C316.792 339.167 315.802 338.806 315.031 338.083C314.26 337.354 313.736 336.427 313.458 335.302ZM326.932 328.615C327.446 328.316 328.026 328.167 328.672 328.167C329.318 328.167 329.894 328.316 330.401 328.615C330.915 328.906 331.335 329.312 331.661 329.833C331.932 330.278 332.113 330.806 332.203 331.417C332.293 332.021 332.339 332.771 332.339 333.667C332.339 334.562 332.293 335.316 332.203 335.927C332.113 336.531 331.932 337.056 331.661 337.5C331.335 338.021 330.915 338.431 330.401 338.729C329.894 339.021 329.318 339.167 328.672 339.167C328.026 339.167 327.446 339.021 326.932 338.729C326.425 338.431 326.009 338.021 325.682 337.5C325.411 337.056 325.231 336.531 325.141 335.927C325.05 335.316 325.005 334.562 325.005 333.667C325.005 332.771 325.05 332.021 325.141 331.417C325.231 330.806 325.411 330.278 325.682 329.833C326.009 329.312 326.425 328.906 326.932 328.615ZM329.464 331.385C329.29 330.906 329.026 330.667 328.672 330.667C328.318 330.667 328.054 330.906 327.88 331.385C327.741 331.767 327.672 332.528 327.672 333.667C327.672 334.806 327.741 335.566 327.88 335.948C328.054 336.427 328.318 336.667 328.672 336.667C329.026 336.667 329.29 336.427 329.464 335.948C329.602 335.566 329.672 334.806 329.672 333.667C329.672 332.528 329.602 331.767 329.464 331.385Z" fill="black"/>
<rect x="343.5" y="664.5" width="99" height="99" stroke="#D5D5D5"/>
<path d="M429 746.531C429 745.67 428.92 745.052 428.76 744.677C428.608 744.295 428.34 744.104 427.958 744.104C427.611 744.104 427.271 744.177 426.938 744.323L425.385 742.594L428.354 738.833H424.667V736.333H431.333V738.729L428.708 741.802L428.781 741.875C428.885 741.84 429.007 741.823 429.146 741.823C430.826 741.823 431.667 743.399 431.667 746.552C431.667 748.122 431.347 749.285 430.708 750.042C430.069 750.792 429.111 751.167 427.833 751.167C426.986 751.167 425.931 751.059 424.667 750.844V748.323C425.875 748.552 426.931 748.667 427.833 748.667C428.285 748.667 428.59 748.479 428.75 748.104C428.917 747.729 429 747.205 429 746.531Z" fill="black"/>
<rect x="442.5" y="153.5" width="99" height="99" stroke="#D5D5D5"/>
<path d="M514.146 237.5H516.667V227.833H515.333C515.319 231.708 514.924 234.931 514.146 237.5ZM511.448 237.5C511.733 236.556 511.962 235.604 512.135 234.646C512.309 233.681 512.431 232.642 512.5 231.531C512.576 230.413 512.622 229.451 512.635 228.646C512.656 227.833 512.667 226.729 512.667 225.333H519.333V237.5H520.667V242.667H518V240H512.667V242.667H510V237.5H511.448ZM525.484 237.5H527.339V231.833H526.005C526.005 234.062 525.832 235.951 525.484 237.5ZM522.786 237.5C522.953 236.667 523.078 235.764 523.161 234.792C523.252 233.812 523.304 232.976 523.318 232.281C523.332 231.58 523.339 230.597 523.339 229.333H530.005V237.5H531.339V242.667H528.672V240H524.005V242.667H521.339V237.5H522.786Z" fill="black"/>
<rect x="343.5" y="252.5" width="99" height="99" stroke="#D5D5D5"/>
<path d="M413 324.333H421V339H418.333V326.833H415.667V339H413V324.333ZM424.339 328.333H431.005V339H428.339V330.833H427.005V339H424.339V328.333Z" fill="black"/>
<rect x="442.5" y="664.5" width="99" height="99" stroke="#D5D5D5"/>
<path d="M530.333 751H527.667V748.167H523V745.875L528.156 735.906L530.427 737.073L526.042 745.562V745.667H527.667V744.208H530.333V745.667H531.667V748.167H530.333V751Z" fill="black"/>
<rect x="541.5" y="153.5" width="99" height="99" stroke="#D5D5D5"/>
<path d="M611 225.333H619V227.833H613.667V231.375H617.667V233.875H613.667V237.5H619V240H611V225.333ZM625.672 229.167C626.477 229.167 627.165 229.365 627.734 229.76C628.304 230.149 628.71 230.649 628.953 231.26C629.071 231.559 629.158 231.91 629.214 232.312C629.276 232.715 629.311 233.073 629.318 233.385C629.332 233.691 629.339 234.118 629.339 234.667V235.917H624.682C624.682 236.486 624.734 236.885 624.839 237.115C625.019 237.483 625.366 237.667 625.88 237.667C626.637 237.667 627.679 237.597 629.005 237.458V239.948C627.741 240.094 626.7 240.167 625.88 240.167C625.019 240.167 624.293 239.965 623.703 239.562C623.113 239.16 622.686 238.635 622.422 237.99C622.241 237.552 622.127 237.083 622.078 236.583C622.03 236.083 622.005 235.444 622.005 234.667C622.005 233.868 622.026 233.212 622.068 232.698C622.116 232.177 622.224 231.698 622.391 231.26C622.62 230.642 623.019 230.139 623.589 229.75C624.165 229.361 624.859 229.167 625.672 229.167ZM625.672 231.667C625.554 231.667 625.446 231.681 625.349 231.708C625.252 231.729 625.168 231.774 625.099 231.844C625.036 231.906 624.981 231.965 624.932 232.021C624.884 232.069 624.842 232.156 624.807 232.281C624.78 232.399 624.755 232.493 624.734 232.562C624.72 232.632 624.707 232.75 624.693 232.917C624.686 233.076 624.682 233.191 624.682 233.26C624.682 233.323 624.679 233.444 624.672 233.625H626.672C626.658 232.91 626.602 232.437 626.505 232.208C626.366 231.847 626.089 231.667 625.672 231.667Z" fill="black"/>
<rect x="442.5" y="252.5" width="99" height="99" stroke="#D5D5D5"/>
<path d="M514 326.833V331.083H515.312C515.91 331.083 516.344 331.056 516.615 331C517.087 330.903 517.462 330.67 517.74 330.302C518.024 329.934 518.167 329.486 518.167 328.958C518.167 328.431 518.024 327.983 517.74 327.615C517.462 327.247 517.087 327.014 516.615 326.917C516.344 326.861 515.91 326.833 515.312 326.833H514ZM511.333 324.333H515.292C516.319 324.333 517.052 324.385 517.49 324.49C518.476 324.726 519.278 325.243 519.896 326.042C520.521 326.833 520.833 327.806 520.833 328.958C520.833 330.111 520.521 331.087 519.896 331.885C519.278 332.677 518.476 333.191 517.49 333.427C517.052 333.531 516.319 333.583 515.292 333.583H514V339H511.333V324.333ZM527.828 339.333C527.023 339.333 526.443 339.052 526.089 338.49H526.005V343.167H523.339V328.5H526.005V329.177H526.089C526.443 328.615 527.023 328.333 527.828 328.333C528.356 328.333 528.821 328.552 529.224 328.99C529.634 329.42 529.932 330.024 530.12 330.802C530.266 331.427 530.339 332.437 530.339 333.833C530.339 335.229 530.266 336.24 530.12 336.865C529.932 337.642 529.634 338.25 529.224 338.688C528.821 339.118 528.356 339.333 527.828 339.333ZM526.38 336.521C526.505 336.729 526.658 336.833 526.839 336.833C527.019 336.833 527.172 336.729 527.297 336.521C527.422 336.306 527.512 336.038 527.568 335.719C527.637 335.344 527.672 334.715 527.672 333.833C527.672 332.951 527.637 332.323 527.568 331.948C527.512 331.628 527.422 331.365 527.297 331.156C527.172 330.941 527.019 330.833 526.839 330.833C526.658 330.833 526.505 330.941 526.38 331.156C526.255 331.365 526.165 331.628 526.109 331.948C526.04 332.323 526.005 332.951 526.005 333.833C526.005 334.715 526.04 335.344 526.109 335.719C526.165 336.038 526.255 336.306 526.38 336.521Z" fill="black"/>
<rect x="541.5" y="664.5" width="99" height="99" stroke="#D5D5D5"/>
<path d="M622.667 748.323C623.799 748.552 624.785 748.667 625.625 748.667C625.924 748.667 626.174 748.608 626.375 748.49C626.576 748.372 626.726 748.198 626.823 747.969C626.92 747.74 626.986 747.497 627.021 747.24C627.063 746.983 627.083 746.677 627.083 746.323C627.083 744.774 626.674 744 625.854 744C625.41 744 625.066 744.135 624.823 744.406L622.667 743.844V736.333H629.333V738.833H625.333V742.083H625.438C625.861 741.812 626.319 741.677 626.812 741.677C628.715 741.677 629.667 743.233 629.667 746.344C629.667 747.983 629.347 749.198 628.708 749.99C628.076 750.774 627.118 751.167 625.833 751.167C624.986 751.167 623.931 751.059 622.667 750.844V748.323Z" fill="black"/>
<rect x="838.5" y="252.5" width="99" height="99" stroke="#D5D5D5"/>
<path d="M907.51 334.625C907.281 333.875 907.167 332.889 907.167 331.667C907.167 330.444 907.281 329.458 907.51 328.708C907.753 327.931 908.142 327.274 908.677 326.74C909.212 326.205 909.875 325.84 910.667 325.646V324.333H913.333V325.646C914.125 325.84 914.788 326.205 915.323 326.74C915.858 327.274 916.247 327.931 916.49 328.708C916.719 329.458 916.833 330.444 916.833 331.667C916.833 332.889 916.719 333.875 916.49 334.625C916.247 335.403 915.858 336.059 915.323 336.594C914.788 337.128 914.125 337.493 913.333 337.688V338.781H910.667V337.688C909.875 337.493 909.212 337.128 908.677 336.594C908.142 336.059 907.753 335.403 907.51 334.625ZM910.167 329.167C909.944 329.778 909.833 330.611 909.833 331.667C909.833 332.722 909.944 333.559 910.167 334.177C910.389 334.788 910.778 335.156 911.333 335.281V328.052C910.778 328.177 910.389 328.549 910.167 329.167ZM912.667 335.281C913.222 335.156 913.611 334.788 913.833 334.177C914.056 333.559 914.167 332.722 914.167 331.667C914.167 330.611 914.056 329.778 913.833 329.167C913.611 328.549 913.222 328.177 912.667 328.052V335.281ZM923.339 336.604C923.845 336.528 924.203 336.274 924.411 335.844C924.627 335.406 924.734 334.681 924.734 333.667C924.734 332.625 924.63 331.896 924.422 331.479C924.214 331.062 923.852 330.812 923.339 330.729V336.604ZM922.005 330.729C921.491 330.812 921.13 331.062 920.922 331.479C920.714 331.896 920.609 332.625 920.609 333.667C920.609 334.681 920.714 335.406 920.922 335.844C921.137 336.274 921.498 336.528 922.005 336.604V330.729ZM921.339 324.333H924.005V328.365C925.123 328.573 925.95 329.09 926.484 329.917C927.026 330.736 927.297 331.986 927.297 333.667C927.297 335.312 927.026 336.556 926.484 337.396C925.943 338.229 925.116 338.753 924.005 338.969V343H921.339V338.969C920.227 338.753 919.401 338.229 918.859 337.396C918.318 336.556 918.047 335.312 918.047 333.667C918.047 331.986 918.314 330.736 918.849 329.917C919.391 329.09 920.22 328.573 921.339 328.365V324.333Z" fill="black"/>
<rect x="640.5" y="153.5" width="99" height="99" stroke="#D5D5D5"/>
<path d="M715.26 221.604C715.538 221.326 715.896 221.188 716.333 221.188C716.771 221.188 717.125 221.326 717.396 221.604C717.674 221.875 717.812 222.229 717.812 222.667C717.812 223.104 717.674 223.462 717.396 223.74C717.125 224.01 716.771 224.146 716.333 224.146C715.896 224.146 715.538 224.01 715.26 223.74C714.99 223.462 714.854 223.104 714.854 222.667C714.854 222.229 714.99 221.875 715.26 221.604ZM710.594 221.604C710.872 221.326 711.229 221.188 711.667 221.188C712.104 221.188 712.458 221.326 712.729 221.604C713.007 221.875 713.146 222.229 713.146 222.667C713.146 223.104 713.007 223.462 712.729 223.74C712.458 224.01 712.104 224.146 711.667 224.146C711.229 224.146 710.872 224.01 710.594 223.74C710.323 223.462 710.188 223.104 710.188 222.667C710.188 222.229 710.323 221.875 710.594 221.604ZM710 225.333H718V227.833H712.667V231.375H716.667V233.875H712.667V237.5H718V240H710V225.333ZM725.932 225.604C726.21 225.326 726.568 225.188 727.005 225.188C727.443 225.188 727.797 225.326 728.068 225.604C728.345 225.875 728.484 226.229 728.484 226.667C728.484 227.104 728.345 227.462 728.068 227.74C727.797 228.01 727.443 228.146 727.005 228.146C726.568 228.146 726.21 228.01 725.932 227.74C725.661 227.462 725.526 227.104 725.526 226.667C725.526 226.229 725.661 225.875 725.932 225.604ZM721.266 225.604C721.543 225.326 721.901 225.188 722.339 225.188C722.776 225.188 723.13 225.326 723.401 225.604C723.679 225.875 723.818 226.229 723.818 226.667C723.818 227.104 723.679 227.462 723.401 227.74C723.13 228.01 722.776 228.146 722.339 228.146C721.901 228.146 721.543 228.01 721.266 227.74C720.995 227.462 720.859 227.104 720.859 226.667C720.859 226.229 720.995 225.875 721.266 225.604ZM724.672 229.167C725.477 229.167 726.165 229.365 726.734 229.76C727.304 230.149 727.71 230.649 727.953 231.26C728.071 231.559 728.158 231.91 728.214 232.312C728.276 232.715 728.311 233.073 728.318 233.385C728.332 233.691 728.339 234.118 728.339 234.667V235.917H723.682C723.682 236.486 723.734 236.885 723.839 237.115C724.019 237.483 724.366 237.667 724.88 237.667C725.637 237.667 726.679 237.597 728.005 237.458V239.948C726.741 240.094 725.7 240.167 724.88 240.167C724.019 240.167 723.293 239.965 722.703 239.562C722.113 239.16 721.686 238.635 721.422 237.99C721.241 237.552 721.127 237.083 721.078 236.583C721.03 236.083 721.005 235.444 721.005 234.667C721.005 233.868 721.026 233.212 721.068 232.698C721.116 232.177 721.224 231.698 721.391 231.26C721.62 230.642 722.019 230.139 722.589 229.75C723.165 229.361 723.859 229.167 724.672 229.167ZM724.672 231.667C724.554 231.667 724.446 231.681 724.349 231.708C724.252 231.729 724.168 231.774 724.099 231.844C724.036 231.906 723.981 231.965 723.932 232.021C723.884 232.069 723.842 232.156 723.807 232.281C723.78 232.399 723.755 232.493 723.734 232.562C723.72 232.632 723.707 232.75 723.693 232.917C723.686 233.076 723.682 233.191 723.682 233.26C723.682 233.323 723.679 233.444 723.672 233.625H725.672C725.658 232.91 725.602 232.437 725.505 232.208C725.366 231.847 725.089 231.667 724.672 231.667Z" fill="black"/>
<rect x="541.5" y="252.5" width="99" height="99" stroke="#D5D5D5"/>
<path d="M619.667 336.281V338.781C618.243 339.038 616.99 339.167 615.906 339.167C614.427 339.167 613.233 338.812 612.323 338.104C611.42 337.389 610.809 336.424 610.49 335.208C610.274 334.361 610.167 333.181 610.167 331.667C610.167 330.153 610.274 328.972 610.49 328.125C610.816 326.903 611.417 325.937 612.292 325.229C613.167 324.521 614.337 324.167 615.802 324.167C616.913 324.167 618.097 324.267 619.354 324.469V326.969C617.785 326.767 616.611 326.667 615.833 326.667C614.299 326.667 613.344 327.465 612.969 329.062C612.823 329.694 612.75 330.562 612.75 331.667C612.75 332.771 612.823 333.639 612.969 334.271C613.351 335.868 614.33 336.667 615.906 336.667C616.774 336.667 618.028 336.538 619.667 336.281ZM622.078 335.583C622.03 335.083 622.005 334.444 622.005 333.667C622.005 332.889 622.03 332.25 622.078 331.75C622.134 331.25 622.259 330.781 622.453 330.344C623.085 328.892 624.262 328.167 625.984 328.167C626.769 328.167 627.741 328.229 628.901 328.354V330.854C627.727 330.729 626.755 330.667 625.984 330.667C625.686 330.667 625.45 330.747 625.276 330.906C625.102 331.066 624.96 331.309 624.849 331.635C624.731 331.997 624.672 332.674 624.672 333.667C624.672 334.66 624.731 335.337 624.849 335.698C624.96 336.024 625.102 336.267 625.276 336.427C625.45 336.587 625.686 336.667 625.984 336.667C626.797 336.667 627.804 336.576 629.005 336.396V338.896C627.811 339.076 626.804 339.167 625.984 339.167C624.262 339.167 623.085 338.441 622.453 336.99C622.259 336.552 622.134 336.083 622.078 335.583Z" fill="black"/>
<rect x="640.5" y="664.5" width="99" height="99" stroke="#D5D5D5"/>
<path d="M724.854 741.865C725.146 741.622 725.493 741.5 725.896 741.5C726.667 741.5 727.26 741.781 727.677 742.344C728.337 743.226 728.667 744.556 728.667 746.333C728.667 747.562 728.556 748.479 728.333 749.083C728.104 749.715 727.722 750.222 727.188 750.604C726.66 750.979 726.021 751.167 725.271 751.167C724.431 751.167 723.736 750.983 723.188 750.615C722.639 750.24 722.243 749.729 722 749.083C721.861 748.715 721.771 748.333 721.729 747.938C721.688 747.542 721.667 747.01 721.667 746.344C721.667 744.226 721.816 742.58 722.115 741.406C722.566 739.649 723.601 737.833 725.219 735.958L727.25 737.635C726.611 738.378 726.087 739.069 725.677 739.708C725.267 740.347 724.958 741.052 724.75 741.823L724.854 741.865ZM725.656 748.354C725.885 748 726 747.326 726 746.333C726 745.34 725.885 744.667 725.656 744.312C725.524 744.104 725.361 744 725.167 744C724.972 744 724.809 744.104 724.677 744.312C724.448 744.667 724.333 745.34 724.333 746.333C724.333 747.326 724.448 748 724.677 748.354C724.809 748.562 724.972 748.667 725.167 748.667C725.361 748.667 725.524 748.562 725.656 748.354Z" fill="black"/>
<rect x="937.5" y="153.5" width="99" height="99" stroke="#D5D5D5"/>
<path d="M1013 240V230.646H1012.9L1009 240H1006.33V225.333H1009V234.688H1009.1L1013.01 225.333H1015.67V240H1013ZM1022.34 240V234.75H1022.23L1020.59 240H1018.34V229.333H1021.01V234.688H1021.11L1022.77 229.333H1025.01V240H1022.34Z" fill="black"/>
<rect x="937.5" y="252.5" width="99" height="99" stroke="#D5D5D5"/>
<path d="M1010.95 329.167H1011.05L1012.96 324.333H1015.74L1012.6 331.49V331.594L1016.07 339H1013.28L1011.05 333.812H1010.95L1008.72 339H1005.93L1009.4 331.594V331.49L1006.26 324.333H1009.04L1010.95 329.167ZM1021.62 330.833H1021.72L1022.8 328.333H1025.79L1023.38 333.365V333.469L1026.02 339H1023.02L1021.72 336H1021.62L1020.33 339H1017.33L1019.96 333.469V333.365L1017.56 328.333H1020.55L1021.62 330.833Z" fill="black"/>
<rect x="739.5" y="153.5" width="99" height="99" stroke="#D5D5D5"/>
<path d="M813.667 231.531H814.24L815.031 225.333H817.74L816.312 232.646L818.229 240H815.49L814.292 233.823H813.667V240H812.333V233.823H811.708L810.51 240H807.771L809.688 232.646L808.26 225.333H810.969L811.76 231.531H812.333V225.333H813.667V231.531ZM823.005 240V235.604H822.797L821.182 240H818.547L820.776 234.427L819.141 229.333H821.745L822.849 233.312H823.005V229.333H824.339V233.312H824.495L825.599 229.333H828.203L826.568 234.427L828.797 240H826.266L824.547 235.604H824.339V240H823.005Z" fill="black"/>
<rect x="640.5" y="252.5" width="99" height="99" stroke="#D5D5D5"/>
<path d="M718.667 324.333V326.833H715.333V339H712.667V326.833H709.333V324.333H718.667ZM729.339 328.333V330.938H726.005V339H723.339V330.938H720.005V328.333H729.339Z" fill="black"/>
<rect x="739.5" y="664.5" width="99" height="99" stroke="#D5D5D5"/>
<path d="M820.146 736.333H827.646V738.521L824.375 751H821.677L824.885 738.938V738.833H820.146V736.333Z" fill="black"/>
<rect x="1036.5" y="153.5" width="99" height="99" stroke="#D5D5D5"/>
<path d="M1111.58 221.333H1113.75C1113.75 222.187 1113.39 222.875 1112.67 223.396C1111.95 223.91 1111.06 224.167 1110 224.167C1108.94 224.167 1108.05 223.91 1107.32 223.396C1106.61 222.875 1106.25 222.187 1106.25 221.333H1108.42C1108.42 221.618 1108.55 221.851 1108.82 222.031C1109.09 222.205 1109.49 222.292 1110 222.292C1110.51 222.292 1110.91 222.205 1111.18 222.031C1111.45 221.851 1111.58 221.618 1111.58 221.333ZM1112 240V230.646H1111.9L1108 240H1105.33V225.333H1108V234.688H1108.1L1112.01 225.333H1114.67V240H1112ZM1122.26 225.333H1124.42C1124.42 226.187 1124.06 226.875 1123.34 227.396C1122.62 227.91 1121.73 228.167 1120.67 228.167C1119.61 228.167 1118.72 227.91 1117.99 227.396C1117.28 226.875 1116.92 226.187 1116.92 225.333H1119.09C1119.09 225.618 1119.22 225.851 1119.49 226.031C1119.77 226.205 1120.16 226.292 1120.67 226.292C1121.19 226.292 1121.58 226.205 1121.85 226.031C1122.12 225.851 1122.26 225.618 1122.26 225.333ZM1121.34 240V234.75H1121.23L1119.59 240H1117.34V229.333H1120.01V234.688H1120.11L1121.77 229.333H1124.01V240H1121.34Z" fill="black"/>
<rect x="1036.5" y="252.5" width="99" height="99" stroke="#D5D5D5"/>
<path d="M1112 339H1105.33V324.333H1108V336.5H1110.67V324.333H1113.33V336.51H1114.67V341.667H1112V339ZM1124.01 336.51H1125.34V341.667H1122.67V339H1117.34V328.333H1120.01V336.5H1121.34V328.333H1124.01V336.51Z" fill="black"/>
<rect x="838.5" y="153.5" width="99" height="99" stroke="#D5D5D5"/>
<path d="M911.062 225.167C911.812 225.167 912.472 225.267 913.042 225.469C913.611 225.67 914.069 225.955 914.417 226.323C914.764 226.691 915.024 227.118 915.198 227.604C915.372 228.09 915.458 228.632 915.458 229.229C915.458 229.944 915.33 230.597 915.073 231.188C914.816 231.771 914.448 232.233 913.969 232.573V232.677C914.497 233.003 914.91 233.469 915.208 234.073C915.514 234.67 915.667 235.337 915.667 236.073V236.104C915.66 237.299 915.274 238.274 914.51 239.031C913.747 239.788 912.632 240.167 911.167 240.167C909.993 240.167 908.715 240.007 907.333 239.688V237.177C908.792 237.503 910.035 237.667 911.062 237.667C912.354 237.667 913 237.076 913 235.896C913 235.194 912.854 234.691 912.562 234.385C912.278 234.073 911.764 233.917 911.021 233.917H909.333V231.417H911.031C911.733 231.417 912.201 231.26 912.438 230.948C912.674 230.635 912.792 230.132 912.792 229.438C912.792 228.875 912.66 228.441 912.396 228.135C912.139 227.823 911.694 227.667 911.062 227.667C910.917 227.667 910.771 227.67 910.625 227.677C910.486 227.684 910.333 227.694 910.167 227.708C910.007 227.722 909.868 227.736 909.75 227.75C909.639 227.757 909.493 227.774 909.312 227.802C909.132 227.83 908.997 227.851 908.906 227.865C908.823 227.878 908.681 227.906 908.479 227.948C908.285 227.983 908.16 228.007 908.104 228.021C908.049 228.028 907.913 228.052 907.698 228.094C907.483 228.135 907.361 228.16 907.333 228.167V225.667C908.792 225.333 910.035 225.167 911.062 225.167ZM924.849 234.552C925.842 235.031 926.339 235.847 926.339 237C926.339 237.931 925.984 238.691 925.276 239.281C924.568 239.872 923.665 240.167 922.568 240.167C921.616 240.167 920.54 240.132 919.339 240.062V237.562C920.575 237.632 921.651 237.667 922.568 237.667C922.901 237.667 923.168 237.59 923.37 237.438C923.571 237.278 923.672 237.062 923.672 236.792C923.672 236.153 923.151 235.833 922.109 235.833H920.672V233.333H922.12C923.085 233.333 923.568 233.042 923.568 232.458C923.568 232.243 923.481 232.059 923.307 231.906C923.134 231.747 922.891 231.667 922.578 231.667C921.905 231.667 920.894 231.722 919.547 231.833V229.333C920.734 229.222 921.745 229.167 922.578 229.167C923.661 229.167 924.54 229.462 925.214 230.052C925.894 230.635 926.234 231.358 926.234 232.219C926.234 233.267 925.773 234.01 924.849 234.448V234.552Z" fill="black"/>
<rect x="739.5" y="252.5" width="99" height="99" stroke="#D5D5D5"/>
<path d="M811.698 334.344C810.781 332.83 810.069 331.264 809.562 329.646C809.062 328.021 808.684 326.25 808.427 324.333H811.062C811.326 326.833 811.899 329.08 812.781 331.073H812.885C813.74 328.587 814.389 326.34 814.833 324.333H817.573C816.573 328.625 815.063 332.99 813.042 337.427C812.84 337.872 812.531 338.247 812.115 338.552C811.698 338.851 811.191 339.031 810.594 339.094C810.087 339.142 809.333 339.167 808.333 339.167V336.729C809.014 336.729 809.538 336.701 809.906 336.646C810.281 336.583 810.545 336.465 810.698 336.292C810.788 336.194 810.872 336.094 810.948 335.99C811.024 335.878 811.101 335.743 811.177 335.583C811.253 335.417 811.309 335.295 811.344 335.219C811.378 335.135 811.441 334.983 811.531 334.76C811.622 334.531 811.677 334.392 811.698 334.344ZM823.734 335.427C824.318 333.219 824.8 330.854 825.182 328.333H827.849C827.55 330.201 827.255 331.809 826.964 333.156C826.672 334.503 826.262 336.007 825.734 337.667C825.589 338.125 825.467 338.49 825.37 338.76C825.273 339.024 825.148 339.33 824.995 339.677C824.842 340.024 824.672 340.313 824.484 340.542C824.304 340.778 824.102 340.969 823.88 341.115C823.609 341.281 823.37 341.406 823.161 341.49C822.96 341.58 822.62 341.66 822.141 341.729C821.668 341.799 821.068 341.833 820.339 341.833V339.333C820.845 339.333 821.227 339.316 821.484 339.281C821.748 339.253 821.97 339.174 822.151 339.042C822.332 338.917 822.464 338.771 822.547 338.604C822.63 338.431 822.741 338.16 822.88 337.792C822.901 337.736 822.915 337.694 822.922 337.667H821.891C821.356 336.312 820.905 334.892 820.536 333.406C820.175 331.92 819.828 330.229 819.495 328.333H822.172C822.519 330.868 823.005 333.233 823.63 335.427H823.734Z" fill="black"/>
<rect x="838.5" y="664.5" width="99" height="99" stroke="#D5D5D5"/>
<path d="M923.594 739.135C923.462 738.823 923.264 738.667 923 738.667C922.736 738.667 922.538 738.823 922.406 739.135C922.274 739.441 922.208 739.837 922.208 740.323C922.208 740.892 922.274 741.368 922.406 741.75C922.538 742.125 922.736 742.312 923 742.312C923.264 742.312 923.462 742.125 923.594 741.75C923.726 741.368 923.792 740.892 923.792 740.323C923.792 739.837 923.726 739.441 923.594 739.135ZM920.448 737.292C921.052 736.542 921.903 736.167 923 736.167C924.097 736.167 924.948 736.542 925.552 737.292C926.156 738.035 926.458 738.976 926.458 740.115C926.458 741.698 925.913 742.816 924.823 743.469V743.573C926.052 744.24 926.667 745.417 926.667 747.104C926.667 748.285 926.344 749.257 925.698 750.021C925.052 750.785 924.153 751.167 923 751.167C921.847 751.167 920.948 750.785 920.302 750.021C919.656 749.257 919.333 748.285 919.333 747.104C919.333 745.417 919.948 744.24 921.177 743.573V743.469C920.087 742.816 919.542 741.698 919.542 740.115C919.542 738.976 919.844 738.035 920.448 737.292ZM923.75 745.396C923.583 745.007 923.333 744.812 923 744.812C922.667 744.812 922.417 745.007 922.25 745.396C922.083 745.785 922 746.285 922 746.896C922 747.424 922.083 747.851 922.25 748.177C922.417 748.503 922.667 748.667 923 748.667C923.333 748.667 923.583 748.503 923.75 748.177C923.917 747.851 924 747.424 924 746.896C924 746.285 923.917 745.785 923.75 745.396Z" fill="black"/>
<rect x="937.5" y="664.5" width="99" height="99" stroke="#D5D5D5"/>
<path d="M1025.33 740.99C1025.33 743.108 1025.18 744.753 1024.89 745.927C1024.43 747.684 1023.4 749.5 1021.78 751.375L1019.75 749.698C1020.39 748.955 1020.91 748.264 1021.32 747.625C1021.73 746.986 1022.04 746.281 1022.25 745.51L1022.15 745.469C1021.85 745.712 1021.51 745.833 1021.1 745.833C1020.33 745.833 1019.74 745.552 1019.32 744.99C1018.66 744.108 1018.33 742.778 1018.33 741C1018.33 739.771 1018.44 738.854 1018.67 738.25C1018.9 737.611 1019.29 737.104 1019.83 736.729C1020.38 736.354 1021.04 736.167 1021.83 736.167C1022.63 736.167 1023.29 736.354 1023.83 736.729C1024.38 737.104 1024.76 737.611 1025 738.25C1025.14 738.618 1025.23 739 1025.27 739.396C1025.31 739.792 1025.33 740.323 1025.33 740.99ZM1021.34 738.979C1021.11 739.333 1021 740.007 1021 741C1021 741.993 1021.11 742.667 1021.34 743.021C1021.48 743.229 1021.64 743.333 1021.83 743.333C1022.03 743.333 1022.19 743.229 1022.32 743.021C1022.55 742.667 1022.67 741.993 1022.67 741C1022.67 740.007 1022.55 739.333 1022.32 738.979C1022.19 738.771 1022.03 738.667 1021.83 738.667C1021.64 738.667 1021.48 738.771 1021.34 738.979Z" fill="black"/>
<rect x="1135.5" y="153.5" width="99" height="99" stroke="#D5D5D5"/>
<path d="M1207 240H1204.33V225.333H1207V231.062L1210.08 225.333H1213.09L1209.6 231.479L1214.06 240H1211.07L1207.81 233.635L1207 235.01V240ZM1219.01 240H1216.34V229.333H1219.01V232.74L1220.74 229.333H1223.62L1221.26 233.948L1224.11 240H1221.23L1219.49 236.323L1219.01 237.344V240Z" fill="black"/>
<rect x="1135.5" y="252.5" width="99" height="99" stroke="#D5D5D5"/>
<path d="M1204.33 324.333H1207V328.333C1207 329.257 1207.08 329.889 1207.23 330.229C1207.56 330.965 1208.15 331.333 1209 331.333C1209.84 331.333 1210.43 330.965 1210.77 330.229C1210.92 329.896 1211 329.264 1211 328.333V324.333H1213.67V339H1211V332.896H1210.9C1210.34 333.521 1209.64 333.833 1208.79 333.833C1207.71 333.833 1206.77 333.524 1205.99 332.906C1205.2 332.288 1204.7 331.49 1204.49 330.51C1204.39 330.038 1204.33 329.312 1204.33 328.333V324.333ZM1218.68 335.167C1217.94 335.167 1217.34 334.795 1216.88 334.052C1216.71 333.774 1216.59 333.455 1216.49 333.094C1216.41 332.733 1216.36 332.434 1216.35 332.198C1216.34 331.955 1216.34 331.615 1216.34 331.177V328.333H1219.01V331.177C1219.01 331.74 1219.06 332.118 1219.16 332.312C1219.29 332.549 1219.46 332.667 1219.67 332.667C1219.88 332.667 1220.05 332.549 1220.18 332.312C1220.29 332.118 1220.34 331.74 1220.34 331.177V328.333H1223.01V339H1220.34V334.354H1220.27C1220.07 334.604 1219.83 334.802 1219.55 334.948C1219.26 335.094 1218.97 335.167 1218.68 335.167Z" fill="black"/>
<rect width="1440" height="121" transform="translate(0 497)" fill="#35A9FF"/>
<path d="M0 557L1440 557" stroke="black" stroke-width="3" stroke-dasharray="12 12"/>
<rect width="1" height="37" transform="translate(1375 727)" fill="black"/>
<rect width="1" height="37" transform="translate(1394 745) rotate(90)" fill="black"/>
</svg>
